<?xml version="1.0" standalone="no"?>
<!DOCTYPE svg PUBLIC "-//W3C//DTD SVG 20010904//EN"
 "http://www.w3.org/TR/2001/REC-SVG-20010904/DTD/svg10.dtd">
<svg version="1.0" xmlns="http://www.w3.org/2000/svg"
 width="1328.000000pt" height="1328.000000pt" viewBox="0 0 1328.000000 1328.000000"
 preserveAspectRatio="xMidYMid meet">
<metadata>
Created by potrace 1.16, written by Peter Selinger 2001-2019
</metadata>
<g transform="translate(0.000000,1328.000000) scale(0.100000,-0.100000)"
fill="#000000" stroke="none">
<path d="M7901 11874 c0 -11 3 -14 6 -6 3 7 2 16 -1 19 -3 4 -6 -2 -5 -13z"/>
<path d="M7925 11826 c9 -43 33 -96 33 -71 0 11 -8 38 -19 60 -16 33 -18 35
-14 11z"/>
<path d="M7967 11698 c7 -39 9 -42 22 -34 6 4 4 17 -6 36 -19 39 -24 38 -16
-2z"/>
<path d="M7990 11615 c-19 -23 -7 -39 13 -17 10 11 14 23 9 26 -5 3 -15 -1
-22 -9z"/>
<path d="M5396 11601 c-22 -9 -35 -38 -28 -64 4 -16 10 -13 43 19 48 46 41 67
-15 45z"/>
<path d="M5488 11434 c-36 -27 -48 -43 -48 -62 l0 -26 16 24 c10 14 33 42 53
63 44 46 39 46 -21 1z"/>
<path d="M5493 11290 c2 -8 12 -16 23 -17 13 -2 15 -1 4 4 -8 3 -19 11 -23 17
-6 7 -7 6 -4 -4z"/>
<path d="M5646 11268 c3 -4 -2 -8 -10 -8 -8 0 -19 -7 -24 -16 -7 -13 -13 -14
-31 -5 -11 7 -21 16 -21 22 0 9 -37 4 -48 -6 -4 -4 19 -45 36 -63 6 -7 12 -25
13 -40 0 -15 4 -36 8 -47 7 -17 10 -14 21 20 11 36 29 71 67 131 11 17 11 21
-2 21 -8 0 -12 -4 -9 -9z"/>
<path d="M5635 11089 c3 -38 10 -56 29 -74 14 -13 26 -28 26 -33 0 -5 11 -21
25 -36 14 -15 25 -31 25 -37 0 -5 6 -9 14 -9 9 0 19 20 26 51 7 28 28 72 47
97 l36 47 -36 -33 c-22 -22 -37 -30 -42 -23 -3 6 -11 9 -16 5 -5 -3 -8 -2 -7
3 2 4 -19 28 -46 53 -27 25 -46 38 -41 30 6 -12 5 -13 -6 -2 -28 26 -39 14
-34 -39z"/>
<path d="M5861 11059 c-42 -25 -75 -98 -66 -145 3 -19 11 -34 18 -34 9 0 9 -2
-1 -8 -10 -7 -8 -13 7 -26 10 -10 22 -28 25 -40 3 -13 26 -44 50 -70 41 -42
46 -45 60 -30 9 8 16 21 16 27 0 7 9 29 20 50 21 39 19 57 -5 57 -8 0 -30 14
-48 30 -19 17 -37 30 -41 30 -13 0 -66 58 -66 71 0 8 7 25 16 37 8 12 12 27 8
34 -4 6 -3 9 2 5 5 -3 18 1 28 9 31 22 13 25 -23 3z"/>
<path d="M6043 10807 c-31 -33 -53 -81 -59 -129 -5 -36 -1 -50 25 -90 16 -26
42 -55 56 -64 26 -17 28 -17 63 2 43 22 122 98 122 116 0 10 -2 10 -9 0 -5 -9
-15 -2 -34 26 -14 22 -39 46 -55 53 -25 11 -39 26 -78 91 -10 17 -12 16 -31
-5z"/>
<path d="M6850 10011 c0 -6 4 -13 10 -16 6 -3 7 1 4 9 -7 18 -14 21 -14 7z"/>
<path d="M6243 9917 c-2 -4 -9 -5 -14 -2 -5 4 -9 -3 -9 -14 0 -12 5 -21 10
-21 6 0 1 -9 -10 -20 -24 -24 -65 -26 -87 -4 -11 11 -19 12 -26 5 -6 -6 -20
-11 -31 -12 -12 0 -15 -3 -8 -6 6 -2 12 -12 12 -20 0 -13 -3 -13 -17 -2 -10 7
-15 10 -11 5 3 -4 -5 -24 -18 -43 -13 -20 -24 -42 -24 -49 0 -8 -4 -14 -9 -14
-9 0 -21 -56 -26 -113 -1 -10 -7 -22 -13 -26 -6 -4 -13 -22 -16 -41 -2 -19
-11 -55 -20 -80 -14 -41 -40 -128 -42 -140 0 -3 -4 -12 -7 -20 -12 -30 -27
-174 -21 -206 3 -18 13 -34 21 -36 11 -2 10 -8 -8 -26 -19 -22 -20 -26 -8 -50
18 -35 52 -63 60 -50 4 7 9 7 13 0 4 -6 13 -9 20 -6 7 3 16 -2 19 -10 4 -9 18
-16 32 -16 14 0 25 -4 25 -10 0 -17 48 -11 60 8 8 14 9 11 5 -13 -3 -16 -2
-23 1 -15 4 8 11 18 17 21 5 4 6 14 0 25 -10 23 -9 289 2 359 4 28 9 59 10 70
2 11 4 20 6 20 1 0 3 18 5 40 3 47 28 118 37 108 4 -3 7 8 7 26 0 18 4 30 8
27 5 -3 14 18 22 47 12 48 54 125 65 120 14 -7 16 -1 5 12 -12 15 -5 39 9 30
5 -2 17 5 27 16 10 11 24 17 32 14 8 -3 16 2 18 12 4 12 17 19 40 21 l36 2
-42 -47 c-171 -195 -253 -696 -160 -979 12 -36 20 -38 265 -79 173 -29 282
-32 325 -10 69 36 96 163 87 408 -8 230 -55 440 -124 559 -42 72 -114 141
-174 167 -30 13 -60 26 -68 30 -15 7 -94 -9 -107 -22 -4 -4 -17 -7 -28 -7 -18
0 -19 2 -6 11 11 8 12 12 2 16 -6 2 -9 9 -6 14 3 6 12 5 22 -3 15 -12 16 -11
3 4 -7 10 -17 15 -22 12 -5 -3 -22 -8 -36 -10 -15 -3 -31 -10 -35 -17 -4 -6
-10 -8 -14 -4 -4 3 -2 13 5 21 10 12 4 15 -35 18 -25 2 -48 0 -51 -5z m-96
-116 c-2 -17 -11 -27 -25 -29 -19 -3 -20 -1 -10 26 14 36 40 39 35 3z m107
-47 c3 -8 2 -12 -4 -9 -6 3 -10 10 -10 16 0 14 7 11 14 -7z m480 -20 c58 -58
113 -222 101 -300 -10 -72 -72 -124 -130 -110 -39 10 -92 63 -110 111 -36 94
-17 241 37 296 36 36 67 37 102 3z m-799 -764 c3 -5 1 -10 -4 -10 -6 0 -11 5
-11 10 0 6 2 10 4 10 3 0 8 -4 11 -10z"/>
<path d="M8505 9865 c-15 -19 -33 -55 -41 -81 -19 -64 -17 -77 5 -29 l17 40
31 -31 c50 -49 76 -151 71 -273 -4 -115 -22 -154 -66 -149 -45 5 -74 73 -82
188 -6 77 -7 55 -8 -111 -3 -353 24 -586 75 -637 22 -22 31 -24 79 -19 30 3
71 14 91 24 56 27 66 75 67 308 0 257 -35 469 -106 640 -16 39 -32 78 -35 88
-3 9 -9 17 -14 17 -5 0 -9 7 -9 16 0 15 2 15 28 -1 24 -15 24 -13 -6 14 -42
40 -65 39 -97 -4z"/>
<path d="M8441 9684 c0 -11 3 -14 6 -6 3 7 2 16 -1 19 -3 4 -6 -2 -5 -13z"/>
<path d="M3790 9579 c-92 -95 -108 -218 -52 -398 60 -196 35 -331 -87 -461
-28 -29 -58 -69 -66 -87 -9 -18 -20 -33 -25 -33 -10 0 -57 -90 -65 -123 -2
-12 -9 -40 -15 -62 -6 -22 -10 -87 -9 -145 1 -149 2 -146 -25 -158 -27 -12
-84 1 -128 31 -14 10 -36 19 -47 20 -15 1 -19 6 -16 18 3 9 -1 24 -10 32 -8 9
-15 20 -15 26 0 6 -10 21 -21 32 -12 12 -21 32 -21 45 0 14 -4 27 -9 30 -4 2
-6 11 -3 18 3 8 1 17 -4 20 -17 10 -21 -36 -10 -113 13 -93 31 -138 61 -147
12 -4 28 -16 36 -26 8 -13 16 -16 20 -9 7 11 69 -16 124 -53 36 -24 145 -33
188 -16 20 9 37 26 46 48 16 38 16 142 0 240 -8 50 -14 62 -28 62 -11 0 -19
-6 -20 -12 0 -7 -5 1 -10 17 -6 21 -3 59 12 133 11 56 17 111 14 122 -4 11 -2
20 3 20 5 0 17 -35 27 -77 14 -58 16 -85 8 -113 l-9 -37 53 54 c29 29 59 53
67 53 18 0 102 75 120 108 41 74 46 89 62 182 6 34 -9 168 -22 206 -5 12 1 10
15 -9 55 -67 72 -192 39 -283 -19 -53 -99 -155 -148 -189 -79 -55 -142 -167
-111 -198 6 -6 11 -19 11 -28 0 -18 24 -42 46 -45 8 -1 23 10 33 25 32 44 104
118 128 130 27 14 73 14 73 1 0 -5 -5 -10 -12 -10 -6 0 -9 -3 -5 -6 3 -3 -1
-28 -9 -54 -8 -27 -13 -67 -12 -90 2 -32 7 -40 23 -41 17 0 17 -2 -4 -10 -18
-7 -21 -13 -13 -21 6 -6 8 -17 5 -24 -3 -8 0 -14 6 -14 6 0 11 -9 11 -20 0
-11 4 -20 9 -20 11 0 22 -26 27 -65 2 -17 13 -48 24 -70 11 -22 20 -48 20 -60
0 -11 8 -32 18 -47 14 -22 21 -25 30 -16 9 9 12 9 14 -3 0 -7 4 22 8 66 5 54
3 101 -6 145 -25 127 -35 240 -20 240 4 0 6 20 4 45 -2 25 0 45 3 45 11 0 40
183 42 260 1 68 -11 170 -23 184 -5 7 -7 15 -5 18 9 8 -17 58 -26 52 -5 -3 -9
4 -9 15 0 11 -11 31 -25 45 -14 14 -25 30 -25 36 0 5 -7 10 -15 10 -8 0 -15 3
-15 8 0 4 -12 21 -27 37 -16 16 -27 33 -25 37 1 5 -4 8 -11 8 -7 0 -20 8 -29
19 -8 10 -20 20 -24 22 -18 8 -101 115 -113 146 -26 66 -11 204 28 254 10 13
23 34 30 47 20 38 -14 27 -59 -19z m304 -1116 c4 -10 1 -20 -9 -25 -8 -5 -15
-19 -15 -31 0 -21 -1 -21 -13 3 -8 14 -19 24 -26 22 -7 -1 -6 7 5 23 19 29 49
33 58 8z m-14 -118 c0 -26 -3 -33 -15 -29 -8 4 -15 1 -15 -6 0 -6 -5 -8 -10
-5 -17 11 10 73 33 75 4 0 7 -16 7 -35z"/>
<path d="M6140 8851 c0 -6 4 -13 10 -16 6 -3 7 1 4 9 -7 18 -14 21 -14 7z"/>
<path d="M5860 8570 c0 -5 6 -10 13 -11 6 0 2 -5 -10 -11 -13 -6 -23 -17 -23
-23 0 -7 -9 -19 -21 -27 -15 -9 -23 -27 -26 -58 -2 -25 -9 -61 -13 -80 -5 -19
-6 -37 -2 -40 4 -3 8 -21 9 -41 2 -20 10 -52 18 -72 8 -20 15 -46 15 -57 0
-11 7 -20 15 -20 8 0 15 -5 15 -11 0 -19 33 -83 50 -96 8 -6 15 -15 15 -20 0
-8 25 -45 63 -93 23 -29 28 -50 13 -50 -24 0 -40 -34 -46 -97 -15 -166 -74
-434 -116 -528 -21 -45 -46 -71 -106 -107 -30 -18 -67 -43 -83 -55 -15 -13
-33 -23 -39 -23 -6 0 -11 -4 -11 -9 0 -5 -10 -13 -22 -16 -26 -8 -78 -60 -78
-78 0 -7 4 -6 10 3 9 13 12 13 21 -2 5 -10 17 -18 24 -18 8 0 15 -4 15 -10 0
-6 27 -10 61 -10 56 0 60 -1 48 -17 -12 -15 -12 -16 3 -10 12 4 15 2 11 -9 -3
-9 2 -14 16 -14 12 0 21 -4 21 -9 0 -5 9 -13 20 -16 25 -8 48 -47 31 -53 -16
-5 -14 -52 4 -58 18 -7 35 -66 34 -114 -1 -32 -2 -33 -9 -10 l-8 25 -1 -27
c-1 -20 -5 -26 -16 -22 -8 4 -15 2 -15 -4 0 -6 6 -12 13 -15 9 -3 9 -7 0 -17
-9 -10 -9 -16 2 -26 14 -14 9 -54 -6 -54 -5 0 -9 9 -9 20 0 22 -29 28 -32 8 0
-7 -2 -18 -2 -24 -2 -19 -41 -94 -49 -94 -4 0 -3 -10 4 -21 8 -15 8 -19 0 -15
-6 4 -14 -1 -18 -11 -9 -24 -50 -58 -71 -58 -11 0 -17 -9 -18 -22 -1 -13 -13
-35 -28 -50 -18 -18 -23 -29 -15 -33 8 -6 8 -9 0 -11 -7 -3 -13 -11 -15 -19
-6 -32 -18 -49 -34 -49 -47 -2 -53 -5 -50 -25 1 -12 -1 -27 -6 -35 -5 -8 -3
-17 5 -23 11 -8 10 -9 -3 -4 -10 3 -18 1 -18 -4 0 -6 -6 -10 -14 -10 -19 0
-68 -48 -61 -60 3 -5 -4 -14 -15 -20 -11 -6 -18 -15 -15 -21 4 -5 3 -9 -2 -8
-20 4 -34 -2 -28 -11 4 -6 -13 -29 -37 -51 -23 -22 -42 -44 -40 -49 1 -6 -2
-10 -7 -10 -5 0 -25 -22 -44 -49 -20 -27 -49 -57 -66 -67 -17 -10 -31 -24 -31
-30 0 -7 -3 -14 -7 -16 -14 -6 -95 -132 -99 -153 -2 -11 -6 -34 -10 -50 -3
-17 0 -44 7 -60 l13 -30 4 30 c3 22 26 51 81 105 103 101 304 261 311 250 4
-6 0 -47 -7 -93 -6 -45 -22 -176 -33 -291 -12 -115 -25 -217 -31 -227 -5 -10
-9 -28 -9 -42 0 -13 -8 -50 -19 -83 -10 -32 -26 -84 -35 -114 -9 -30 -20 -64
-25 -75 -5 -11 -14 -38 -21 -60 -7 -22 -25 -67 -40 -100 -46 -100 -79 -188
-86 -227 -3 -21 -12 -42 -19 -48 -7 -5 -10 -21 -7 -35 2 -15 0 -25 -7 -25 -19
0 6 -38 30 -45 17 -6 19 -9 8 -16 -11 -7 -11 -9 3 -9 24 0 50 29 46 54 -1 12
7 35 20 50 18 23 27 27 49 22 18 -4 23 -3 15 2 -10 7 -8 11 9 15 28 7 39 -1
19 -13 -13 -8 -12 -10 2 -10 26 0 48 11 42 21 -7 12 57 11 76 -1 11 -7 7 -10
-20 -11 -28 -1 -30 -3 -10 -6 14 -3 31 -10 39 -16 18 -15 41 -18 41 -4 0 8 4
7 12 -1 7 -7 20 -12 30 -12 10 0 18 -6 18 -14 0 -17 49 -27 72 -15 17 9 23 1
19 -25 -3 -13 49 -77 68 -84 31 -12 67 -64 56 -82 -3 -6 0 -10 7 -10 10 0 11
-2 0 -8 -9 -6 -5 -12 15 -21 18 -8 23 -15 15 -20 -16 -10 -5 -41 14 -41 8 0
14 -3 14 -7 0 -5 4 -34 10 -67 7 -42 16 -65 36 -82 14 -14 23 -31 20 -39 -3
-8 -1 -17 5 -21 5 -3 7 -14 4 -25 -4 -10 -2 -19 4 -19 6 0 10 -8 9 -17 -2 -27
13 -83 23 -83 5 0 9 -6 9 -14 0 -7 16 -47 35 -89 19 -42 35 -86 35 -99 0 -13
7 -32 16 -43 12 -17 35 -80 40 -110 0 -5 4 -17 7 -25 3 -8 8 -33 12 -55 4 -22
11 -46 17 -52 7 -9 7 -13 -1 -13 -8 0 -6 -10 4 -30 9 -18 11 -30 5 -30 -6 0
-3 -11 6 -25 8 -13 13 -28 11 -32 -3 -5 2 -33 10 -63 14 -51 16 -69 14 -125
-1 -11 -1 -54 -1 -96 0 -41 -4 -89 -9 -107 -6 -20 -6 -32 0 -32 5 0 9 -5 9
-11 0 -5 -5 -7 -11 -3 -8 5 -10 -1 -5 -19 4 -17 1 -31 -10 -41 -8 -9 -13 -20
-9 -26 3 -5 -4 -19 -15 -30 -11 -11 -18 -25 -14 -31 3 -5 -10 -25 -30 -44 -20
-18 -36 -40 -36 -49 0 -11 -10 -14 -47 -11 -45 3 -73 -10 -73 -33 0 -23 -31
-18 -59 9 -31 29 -61 38 -61 18 0 -6 -9 -9 -20 -6 -11 3 -27 -1 -35 -10 -17
-16 -37 -9 -29 11 3 7 -3 17 -13 22 -24 11 -143 13 -143 2 0 -4 -13 -8 -30 -8
-20 0 -30 5 -30 15 0 8 -17 18 -42 25 -24 6 -58 17 -76 25 -18 8 -39 15 -47
15 -7 0 -16 6 -19 13 -5 9 -7 9 -12 -1 -8 -17 -24 -5 -24 19 0 19 -21 49 -34
49 -3 0 -6 -10 -6 -22 0 -20 -13 -18 -16 3 -1 5 -2 13 -3 18 0 5 -12 12 -26
15 -14 4 -25 11 -25 16 0 6 -7 10 -15 10 -8 0 -15 5 -15 10 0 6 -7 10 -16 10
-25 0 -45 25 -31 39 9 10 8 15 -5 25 -10 7 -18 18 -18 23 0 5 -11 20 -25 33
-14 13 -25 18 -25 12 0 -22 -25 -11 -54 25 -19 22 -26 37 -19 41 16 10 -6 104
-23 98 -13 -5 -24 15 -24 45 0 18 24 27 33 12 2 -5 2 -2 0 5 -1 8 -3 20 -3 28
0 9 -4 13 -9 10 -11 -7 -21 17 -21 54 0 16 -4 30 -9 32 -5 1 -11 19 -15 38 -5
27 -4 31 4 15 8 -16 9 -11 7 22 -1 24 2 45 8 47 5 2 -2 16 -17 30 -31 30 -36
46 -13 46 8 0 15 -9 15 -20 0 -24 6 -25 26 -5 14 14 11 19 -8 16 -4 0 -5 6 -2
14 4 10 0 15 -15 15 -13 0 -19 5 -15 14 7 19 -16 32 -27 15 -7 -12 -9 -12 -9
1 0 9 -6 6 -16 -9 -9 -13 -16 -34 -16 -47 0 -19 -4 -23 -19 -19 -14 5 -19 1
-19 -14 0 -12 -4 -21 -9 -21 -16 0 -50 -78 -52 -117 -1 -21 -8 -45 -14 -53
-18 -22 -26 -88 -12 -93 8 -3 7 -10 -4 -23 -9 -10 -19 -43 -23 -73 -4 -29 -13
-72 -20 -95 -47 -144 -46 -142 -41 -278 6 -150 7 -156 25 -218 7 -25 13 -49
15 -55 1 -5 7 -23 14 -40 7 -16 15 -43 18 -60 4 -16 26 -69 50 -117 37 -73 44
-98 45 -148 1 -40 -4 -66 -14 -78 -8 -9 -18 -32 -21 -49 -6 -28 -4 -33 13 -33
11 0 20 -4 20 -9 0 -23 86 -35 142 -20 47 12 83 0 91 -31 5 -19 29 -21 75 -6
15 5 22 3 22 -5 0 -7 3 -9 7 -6 3 4 12 2 19 -4 7 -6 45 -11 84 -11 49 0 73 -4
76 -13 8 -21 110 -28 138 -10 32 22 215 26 239 7 9 -8 35 -15 57 -16 22 -1 49
-10 60 -19 11 -9 27 -17 35 -17 9 0 18 -6 21 -14 3 -8 19 -20 35 -26 16 -7 29
-16 29 -21 0 -4 8 -10 18 -13 12 -4 22 -23 29 -54 5 -26 13 -56 17 -67 6 -16
6 -17 -3 -5 -9 12 -11 11 -11 -10 0 -20 -2 -22 -10 -10 -7 11 -8 8 -6 -13 1
-15 6 -30 11 -35 4 -4 5 -1 1 6 -6 9 -1 11 17 8 19 -3 33 5 60 32 80 82 100
197 58 342 -39 136 -22 222 76 390 11 19 40 69 63 110 24 41 58 98 76 125 63
94 48 87 149 74 99 -12 394 -6 460 9 45 11 138 24 173 24 12 0 22 4 22 9 0 5
12 9 28 9 15 0 60 9 101 20 41 10 77 19 80 18 3 0 15 0 26 1 15 1 17 3 7 10
-10 6 -7 10 12 15 47 12 70 -3 111 -67 141 -222 175 -284 175 -317 0 -11 -13
-66 -30 -122 -47 -159 -40 -249 27 -319 74 -78 161 -107 593 -198 435 -92 575
-111 825 -110 l170 0 -78 28 c-87 32 -142 76 -152 123 -4 15 -11 26 -16 23 -5
-4 -6 1 -3 9 6 15 -19 50 -28 40 -3 -2 -13 8 -23 23 -10 15 -29 38 -42 50 -12
13 -23 28 -23 32 0 5 -9 11 -20 14 -28 7 -25 45 6 82 14 17 22 24 18 16 -5 -9
-3 -12 4 -7 7 4 12 12 12 18 0 18 49 58 65 52 8 -4 15 -2 15 3 0 6 11 15 25
21 14 7 30 24 36 39 7 16 22 48 34 73 33 67 31 104 -5 140 -34 33 -32 45 12
92 16 17 36 47 43 65 8 19 18 32 22 30 5 -3 9 13 10 35 0 23 7 44 13 48 9 6 8
15 -4 36 -8 16 -15 25 -16 20 0 -11 -29 25 -30 37 0 4 5 7 10 7 6 0 10 -7 10
-16 0 -8 5 -12 11 -9 7 5 3 15 -10 29 -12 12 -18 26 -14 31 5 4 3 5 -4 1 -6
-3 -15 -1 -18 4 -4 6 -19 16 -33 21 -21 8 -23 12 -12 19 12 8 11 10 -7 10 -12
0 -24 6 -26 13 -4 9 -6 9 -6 -1 -1 -7 -8 -20 -16 -29 -14 -13 -18 -13 -40 1
-23 15 -25 27 -10 71 6 16 5 17 -4 5 -7 -10 -11 -11 -11 -2 0 8 -16 12 -44 12
-46 0 -56 10 -56 55 0 13 -4 26 -9 30 -5 3 -13 19 -16 36 -5 23 -10 28 -16 18
-4 -7 -11 -10 -16 -6 -4 4 -2 16 4 26 10 15 7 22 -13 40 -13 11 -25 27 -25 33
-5 41 -3 64 6 70 6 4 4 12 -6 20 -28 22 -75 148 -59 158 5 3 7 16 3 28 -3 12
-10 19 -15 16 -7 -5 -8 22 -2 77 4 46 8 96 7 112 0 15 3 27 8 27 4 0 11 15 14
33 4 17 16 50 26 71 11 22 19 44 19 48 0 16 -39 -12 -45 -32 -9 -30 -55 -27
-55 3 0 14 -17 -8 -49 -64 -95 -170 -285 -419 -392 -514 -193 -172 -427 -329
-511 -342 -39 -6 -73 -22 -48 -23 12 0 11 -3 -3 -11 -9 -5 -22 -7 -27 -4 -6 3
-10 2 -10 -3 0 -14 -48 -32 -67 -25 -9 4 -14 2 -11 -3 3 -5 -14 -9 -37 -9 -46
-1 -68 -11 -48 -23 9 -6 -16 -6 -127 0 -14 0 -48 -5 -105 -16 -11 -2 -24 -1
-30 2 -17 10 -59 10 -72 0 -7 -6 -26 -5 -50 1 -21 6 -52 11 -69 11 -16 0 -34
4 -40 9 -16 15 -74 31 -74 20 0 -6 -7 -6 -19 1 -11 5 -33 10 -50 10 -38 0
-144 47 -136 60 4 6 1 10 -5 10 -6 0 -8 5 -4 12 4 7 3 8 -4 4 -14 -8 -82 43
-82 61 0 7 -15 34 -34 61 -19 26 -38 61 -42 77 -4 17 -10 32 -14 35 -20 16
-52 77 -83 160 -19 52 -56 145 -82 205 -213 494 -265 713 -265 1120 0 327 37
612 125 965 70 281 178 597 277 809 16 34 27 65 24 68 -3 3 -8 -2 -12 -11 -3
-9 -10 -14 -14 -11 -5 3 -8 -3 -8 -12 0 -10 -20 -70 -46 -133 -86 -208 -198
-545 -236 -710 -11 -47 -25 -103 -30 -125 -10 -44 -42 -213 -59 -315 -16 -92
-31 -236 -31 -295 0 -36 -3 -46 -10 -35 -9 13 -10 13 -10 -1 0 -8 -6 -23 -12
-32 -11 -15 -13 -10 -16 35 -3 42 -1 49 10 40 11 -9 13 -5 10 23 -2 19 -8 35
-13 35 -5 0 -9 9 -9 20 0 11 5 20 10 20 6 0 10 29 10 68 0 37 5 85 10 106 7
31 5 42 -7 55 -15 14 -14 16 8 21 23 6 23 6 4 14 -19 7 -19 8 -2 21 15 11 16
13 2 19 -18 7 -20 33 -3 38 9 3 7 13 -6 34 -11 16 -21 23 -24 16 -2 -6 -19
-12 -37 -12 -28 0 -32 3 -28 20 5 20 23 28 23 10 0 -5 5 -10 11 -10 6 0 9 9 6
19 -3 11 2 29 10 40 8 12 10 21 4 21 -6 0 -11 14 -11 30 0 27 3 30 30 30 21 0
30 -5 30 -16 0 -13 3 -14 14 -5 15 13 10 48 -9 68 -18 17 -6 73 15 73 17 0 28
15 27 35 -1 6 -8 9 -15 7 -8 -2 -11 1 -8 6 3 5 -4 25 -14 45 -11 20 -20 47
-19 59 0 15 3 18 6 8 4 -8 12 -20 19 -27 21 -22 28 61 11 134 -12 53 -12 66
-1 80 13 17 13 17 14 1 0 -20 16 -25 18 -5 6 77 13 112 22 121 5 5 10 23 10
38 0 21 7 32 26 40 21 10 25 17 21 42 -5 32 18 96 34 96 18 0 9 17 -15 28 -38
17 -38 55 0 98 37 40 36 37 25 107 -5 27 -4 47 1 47 16 0 39 28 28 35 -5 3
-10 15 -10 27 0 16 5 19 25 16 16 -4 25 -1 25 8 0 7 10 22 22 34 12 11 16 20
9 20 -20 0 -44 29 -37 45 6 17 36 20 36 4 0 -6 7 -8 16 -5 8 3 22 -1 30 -9 20
-20 34 -19 34 3 0 10 9 24 20 32 21 15 28 70 9 70 -5 0 -7 5 -4 10 3 6 17 10
31 10 13 0 24 4 24 9 0 5 10 11 23 13 12 2 21 9 19 16 -3 18 63 15 78 -3 10
-12 9 -15 -6 -15 -18 -1 -18 -1 -1 -11 10 -6 34 -9 53 -7 26 3 34 0 35 -12 0
-10 3 -9 8 5 5 11 4 22 0 23 -15 6 -10 27 11 45 11 9 20 13 21 9 6 -52 7 -73
2 -68 -4 3 -15 -8 -25 -25 -12 -19 -23 -27 -31 -23 -9 6 -9 4 1 -8 10 -13 10
-17 -4 -22 -9 -4 -14 -9 -11 -13 9 -9 -13 -44 -23 -38 -6 4 -7 -1 -3 -11 5
-13 3 -15 -7 -9 -8 5 -11 4 -7 -2 10 -16 -98 -189 -114 -185 -11 3 -11 1 -2
-9 9 -9 9 -18 2 -31 -6 -11 -8 -22 -6 -25 3 -2 21 26 40 64 46 91 110 195 165
268 34 45 45 68 44 91 -2 18 4 37 13 44 12 10 15 10 15 -4 0 -9 -4 -16 -10
-16 -5 0 -10 -8 -10 -17 0 -11 32 15 88 72 154 157 307 258 487 323 212 77
435 81 614 13 63 -24 84 -19 25 5 -21 9 -41 19 -44 23 -3 3 -9 6 -15 7 -27 2
-95 28 -95 36 0 5 3 7 8 5 4 -3 18 0 32 5 24 10 24 11 5 18 -16 6 -11 10 27
20 26 7 46 15 43 19 -2 4 10 23 26 42 56 63 89 111 82 122 -3 5 -1 7 4 4 15
-10 61 40 83 90 10 23 24 43 29 43 6 0 11 8 11 18 0 10 20 39 45 66 25 26 42
52 39 58 -4 6 0 14 7 19 28 17 -1 20 -67 6 -67 -14 -108 -11 -68 4 13 5 14 8
4 9 -9 0 -6 6 9 14 14 8 30 13 35 12 6 -2 8 -1 4 1 -5 3 -8 12 -8 22 0 13 9
17 35 17 20 0 47 9 64 22 16 12 43 23 59 24 24 2 29 6 26 21 -5 28 -12 33 -20
14 -5 -13 -10 -14 -25 -6 -21 11 -26 54 -6 63 10 5 10 7 0 12 -7 3 -13 12 -13
19 0 22 -50 28 -66 8 -7 -10 -14 -22 -14 -27 0 -5 -7 -3 -15 4 -8 6 -20 8 -27
4 -7 -4 -9 -3 -5 1 4 5 -3 15 -15 22 -13 7 -17 12 -10 13 7 0 11 4 8 8 -5 8
123 69 137 64 4 -1 7 3 7 10 0 6 3 8 7 5 3 -4 11 0 17 7 10 13 167 83 223 100
15 5 27 0 42 -15 l21 -23 -3 38 c-2 37 0 39 53 67 30 16 60 27 67 24 36 -13
177 109 250 216 27 39 54 78 61 89 8 11 9 20 3 24 -5 3 -28 -22 -52 -56 -104
-155 -232 -245 -468 -332 -64 -24 -136 -53 -159 -65 -24 -12 -50 -20 -58 -17
-9 3 -12 1 -9 -4 3 -6 1 -10 -4 -10 -6 0 -11 8 -12 18 -1 11 -4 8 -8 -8 -4
-15 -14 -24 -24 -24 -9 1 -15 -2 -12 -6 2 -4 -7 -12 -21 -19 -33 -15 -34 -14
-34 9 0 11 -5 20 -12 20 -6 0 -9 3 -5 6 3 4 -1 13 -9 21 -8 9 -13 22 -10 29
10 25 -5 44 -34 44 -16 0 -30 -4 -32 -10 -1 -5 -18 5 -37 22 -19 18 -41 33
-50 34 -30 4 -103 35 -118 49 -8 8 -12 19 -8 25 3 6 -1 7 -10 4 -9 -4 -24 1
-34 10 -10 9 -31 16 -47 14 -16 -1 -35 1 -42 6 -7 4 -12 2 -12 -3 0 -6 -4 -11
-10 -11 -5 0 -10 8 -10 18 0 14 -8 18 -36 18 -19 0 -38 5 -42 11 -4 6 -18 13
-32 17 -19 6 -21 5 -10 -3 12 -9 11 -11 -7 -11 -12 0 -24 4 -27 9 -7 11 -73
25 -103 22 -13 -1 -23 2 -23 8 0 6 -18 11 -39 11 -25 0 -41 5 -45 15 -7 19
-51 20 -68 2 -15 -17 -48 -10 -48 9 0 14 -11 14 -63 -1 -21 -6 -31 -3 -41 10
-10 14 -22 17 -58 13 -25 -3 -53 -1 -63 5 -13 7 -16 6 -10 -2 5 -9 2 -10 -11
-2 -24 12 -56 25 -69 26 -5 0 -15 4 -21 7 -6 4 -26 9 -45 12 -41 5 -90 24 -69
26 23 3 -31 18 -66 19 -35 1 -124 37 -124 50 0 5 -11 6 -24 4 -13 -3 -27 1
-31 8 -6 8 -4 10 5 4 9 -5 11 -4 6 4 -5 7 -26 10 -59 8 -37 -3 -57 0 -70 11
-11 10 -40 17 -75 18 -74 2 -72 2 -72 17 0 9 -20 11 -78 9 -62 -3 -82 -1 -95
12 -17 18 -47 22 -47 6z m1063 -257 c-7 -2 -21 -2 -30 0 -10 3 -4 5 12 5 17 0
24 -2 18 -5z m-20 -224 c45 -11 83 -22 85 -24 2 -1 -5 -21 -14 -44 -26 -67
-73 -79 -131 -35 -55 41 -81 108 -45 117 9 3 19 5 20 6 2 0 40 -8 85 -20z
m1047 -213 c0 -2 -9 -6 -20 -9 -11 -3 -18 -1 -14 4 5 9 34 13 34 5z m-1255
-1225 c-3 -6 -11 -11 -17 -11 -6 0 -6 6 2 15 14 17 26 13 15 -4z m-698 -713
c-2 -13 -4 -5 -4 17 -1 22 1 32 4 23 2 -10 2 -28 0 -40z m-17 -98 c0 -11 -4
-20 -10 -20 -5 0 -10 9 -10 20 0 11 5 20 10 20 6 0 10 -9 10 -20z m-160 -963
c0 -20 6 -37 13 -40 7 -2 8 -8 3 -13 -5 -5 -11 -4 -13 4 -3 6 -11 12 -19 12
-8 0 -13 6 -11 13 1 7 -7 11 -20 9 -13 -2 -23 2 -23 7 0 6 5 11 11 11 5 0 7 5
4 10 -3 6 -1 10 4 10 6 0 11 -4 11 -10 0 -5 7 -10 16 -10 10 0 14 5 10 15 -21
53 -21 51 -3 33 10 -9 17 -32 17 -51z m-3 -159 c-3 -8 -6 -5 -6 6 -1 11 2 17
5 13 3 -3 4 -12 1 -19z m30 -120 c-3 -8 -6 -5 -6 6 -1 11 2 17 5 13 3 -3 4
-12 1 -19z m-71 -55 c-10 -10 -19 5 -10 18 6 11 8 11 12 0 2 -7 1 -15 -2 -18z
m103 -305 c-1 -90 -3 -155 -6 -145 -4 14 -8 16 -19 6 -11 -9 -14 -8 -14 4 0 9
-14 27 -31 40 -20 15 -27 27 -20 31 6 4 11 2 11 -3 0 -6 13 -11 29 -11 23 0
31 -5 34 -22 2 -13 3 35 1 105 -3 116 1 157 12 157 2 0 3 -73 3 -162z m-29 10
c0 -16 -4 -28 -10 -28 -5 0 -10 19 -10 43 0 31 3 38 10 27 5 -8 10 -27 10 -42z
m-354 19 c4 -4 -2 -7 -14 -7 -12 0 -22 4 -22 9 0 10 26 9 36 -2z m381 -379
c-3 -7 -5 -2 -5 12 0 14 2 19 5 13 2 -7 2 -19 0 -25z m33 -82 c-1 -20 -2 -20
-15 4 -19 33 -19 46 0 30 8 -7 15 -22 15 -34z m-70 -1576 c0 -5 -4 -10 -10
-10 -5 0 -10 5 -10 10 0 6 5 10 10 10 6 0 10 -4 10 -10z m40 -993 c0 -2 -10
-12 -22 -23 l-23 -19 19 23 c18 21 26 27 26 19z"/>
<path d="M8294 8458 c-39 -41 -54 -69 -54 -102 0 -47 56 -23 101 45 52 77 14
122 -47 57z"/>
<path d="M7498 8460 c-48 -29 -3 -93 90 -131 62 -25 89 -18 84 22 -8 72 -121
142 -174 109z"/>
<path d="M3133 8403 c8 -12 -17 -66 -25 -57 -10 10 -30 -111 -31 -186 -1 -62
3 -82 22 -112 14 -23 31 -38 42 -38 16 0 19 7 19 44 0 25 -7 74 -15 111 -16
69 -18 182 -3 191 12 8 10 42 -4 50 -6 4 -8 3 -5 -3z"/>
<path d="M8004 7992 c3 -5 0 -13 -6 -15 -9 -4 -10 -6 -1 -6 17 -1 25 16 12 25
-7 4 -9 3 -5 -4z"/>
<path d="M8050 7960 c-12 -7 -10 -9 8 -7 12 0 22 5 22 9 0 11 -12 10 -30 -2z"/>
<path d="M3331 7844 c0 -11 3 -14 6 -6 3 7 2 16 -1 19 -3 4 -6 -2 -5 -13z"/>
<path d="M8220 7823 c0 -13 5 -23 10 -23 13 0 13 11 0 30 -8 12 -10 11 -10 -7z"/>
<path d="M7865 6905 c22 -18 86 -53 70 -38 -5 6 -28 20 -50 32 -22 13 -31 15
-20 6z"/>
<path d="M7975 6830 c10 -11 20 -20 23 -20 3 0 -3 9 -13 20 -10 11 -20 20 -23
20 -3 0 3 -9 13 -20z"/>
<path d="M3830 6660 c-8 -5 -29 -10 -47 -10 -28 0 -34 -5 -52 -46 -12 -25 -41
-114 -66 -198 -225 -766 -220 -1361 16 -1891 50 -112 86 -176 168 -300 55 -84
58 -87 142 -184 106 -122 226 -219 399 -323 116 -70 112 -70 134 15 58 223
175 557 257 730 29 62 28 79 -8 83 -55 6 -124 26 -168 48 -27 14 -59 26 -70
26 -27 0 -104 70 -78 70 18 0 82 51 84 67 0 4 2 18 3 30 1 12 -1 20 -6 17 -4
-3 -8 1 -9 8 -1 7 -4 2 -9 -12 l-7 -25 -8 28 c-4 15 -13 26 -21 25 -28 -6
-144 104 -144 136 0 12 -9 27 -20 34 -11 7 -20 19 -20 27 0 8 -4 15 -9 15 -6
0 -8 9 -6 20 2 11 0 20 -4 20 -5 0 -11 23 -14 52 -4 28 -10 54 -15 57 -5 3
-12 17 -15 31 -15 55 -39 72 -111 77 -52 5 -70 3 -77 -8 -6 -10 -9 -6 -9 14 0
40 -32 36 -56 -8 -10 -19 -27 -38 -36 -41 -28 -9 -26 -178 3 -242 39 -88 63
-132 70 -132 4 0 10 -8 13 -17 14 -37 -34 20 -65 76 -57 105 -70 161 -68 287
1 62 6 111 10 108 8 -4 6 49 -2 66 -1 3 -3 25 -5 50 -4 57 -25 140 -36 140 -4
0 -3 9 4 21 11 17 10 22 -4 30 -10 5 -20 28 -24 57 -4 26 -12 51 -18 55 -8 6
-7 10 2 14 14 6 17 84 3 98 -19 20 -16 292 3 324 4 6 1 11 -6 11 -8 0 -9 3 -3
8 6 4 12 23 14 42 1 19 4 37 6 39 2 1 -1 15 -6 29 -8 20 -7 23 3 14 10 -8 13
1 15 41 1 27 7 53 14 57 6 4 8 13 5 19 -9 14 3 53 13 46 9 -5 22 130 15 150
-3 7 -13 16 -22 19 -9 3 -21 8 -27 11 -5 3 -17 0 -25 -5z m187 -1452 c-3 -8
-6 -5 -6 6 -1 11 2 17 5 13 3 -3 4 -12 1 -19z m-7 -106 c0 -7 -4 -10 -10 -7
-5 3 -10 16 -10 28 0 18 2 19 10 7 5 -8 10 -21 10 -28z m217 -241 c0 -11 -5
-18 -9 -15 -4 3 -5 11 -1 19 7 21 12 19 10 -4z m46 -64 c14 -32 21 -55 16 -51
-13 8 -48 83 -49 103 0 20 3 14 33 -52z m57 -82 c7 -9 8 -15 2 -15 -5 0 -12 7
-16 15 -3 8 -4 15 -2 15 2 0 9 -7 16 -15z"/>
<path d="M6348 6493 c7 -3 16 -2 19 1 4 3 -2 6 -13 5 -11 0 -14 -3 -6 -6z"/>
<path d="M6380 6491 c0 -5 -10 -12 -22 -14 l-23 -4 23 -8 c24 -8 29 -20 10
-29 -7 -3 -3 -3 10 0 12 3 22 1 22 -5 0 -6 5 -11 10 -11 6 0 10 7 10 16 0 8 5
12 10 9 6 -3 10 4 10 16 0 18 -3 20 -12 11 -18 -18 -28 -15 -28 8 0 11 -4 20
-10 20 -5 0 -10 -4 -10 -9z"/>
<path d="M6120 6231 c0 -17 32 -21 46 -6 14 13 12 15 -15 15 -17 0 -31 -4 -31
-9z"/>
<path d="M8530 6235 c0 -3 20 -92 44 -198 25 -106 52 -228 60 -272 9 -44 18
-90 21 -102 4 -15 59 -58 173 -134 285 -191 291 -198 265 -336 -13 -68 -13
-139 -1 -194 2 -8 15 -30 30 -49 23 -29 33 -34 81 -38 79 -6 124 24 173 115 7
12 10 24 6 27 -3 3 0 6 7 6 7 0 10 4 7 9 -3 5 2 15 12 22 16 13 16 13 2 -5
-14 -18 -13 -19 3 -13 13 5 20 0 27 -19 16 -40 12 -90 -12 -157 -28 -81 -21
-129 22 -147 37 -16 102 -8 138 16 15 10 29 19 32 19 22 2 27 22 24 109 -1 52
-7 103 -12 113 -6 10 -13 35 -16 57 -12 74 -43 106 -105 106 -23 0 -93 -36
-99 -52 -2 -5 -9 -5 -14 -2 -7 4 -8 2 -4 -4 4 -7 2 -12 -4 -12 -6 0 -18 -7
-26 -15 -18 -18 -63 -11 -81 13 -7 8 -17 38 -24 67 -9 41 -9 57 1 76 7 13 15
41 18 63 2 22 12 58 21 80 20 48 14 129 -10 148 -9 7 -26 29 -39 48 -25 36
-90 104 -90 92 0 -9 -40 36 -40 45 0 13 -64 82 -79 85 -16 3 -81 65 -81 77 0
10 -40 46 -49 45 -10 -2 -51 33 -45 38 2 3 -7 13 -21 22 -14 9 -25 22 -25 29
0 7 -9 19 -19 27 -11 7 -18 17 -15 21 6 10 -77 80 -87 74 -4 -3 -10 -1 -14 5
-3 5 -16 10 -28 11 -21 0 -21 1 -2 9 20 8 20 9 -1 9 -11 1 -33 15 -49 32 -19
22 -30 28 -35 19 -5 -8 -9 -7 -13 4 -6 15 -27 23 -27 11z"/>
<path d="M4063 5313 c9 -2 23 -2 30 0 6 3 -1 5 -18 5 -16 0 -22 -2 -12 -5z"/>
<path d="M9835 5128 c-7 -46 -46 -179 -69 -230 -13 -29 9 -21 49 17 20 19 34
39 30 45 -3 5 -2 10 3 10 12 0 15 197 3 204 -5 3 -12 -17 -16 -46z"/>
<path d="M4673 5141 c-23 -9 -47 -21 -52 -26 -26 -26 -61 -173 -39 -159 5 3 7
8 4 11 -3 3 -1 10 4 17 6 6 21 26 36 44 20 24 34 32 59 32 28 0 38 -7 69 -50
20 -28 36 -54 36 -59 0 -5 16 -21 36 -36 45 -34 87 -30 143 15 37 30 54 74 24
63 -7 -3 -13 -1 -13 5 0 6 -8 9 -17 8 -21 -4 -63 14 -63 26 0 4 -4 8 -10 8 -5
0 -20 10 -34 23 -45 41 -56 48 -68 41 -6 -4 -8 -3 -5 3 8 13 -23 42 -49 47
-11 2 -38 -4 -61 -13z"/>
<path d="M5872 4540 c0 -14 2 -19 5 -12 2 6 2 18 0 25 -3 6 -5 1 -5 -13z"/>
<path d="M8526 3533 c-6 -14 -5 -15 5 -6 7 7 10 15 7 18 -3 3 -9 -2 -12 -12z"/>
<path d="M8496 3463 c-6 -14 -5 -15 5 -6 7 7 10 15 7 18 -3 3 -9 -2 -12 -12z"/>
<path d="M4729 3449 c-9 -17 -9 -24 0 -27 6 -2 11 -17 11 -33 0 -16 5 -29 10
-29 7 0 8 19 4 53 -8 63 -9 65 -25 36z"/>
<path d="M4720 3343 c0 -13 5 -23 10 -23 13 0 13 11 0 30 -8 12 -10 11 -10 -7z"/>
<path d="M5985 2530 c-3 -5 -1 -10 4 -10 6 0 11 5 11 10 0 6 -2 10 -4 10 -3 0
-8 -4 -11 -10z"/>
<path d="M6011 2514 c0 -11 3 -14 6 -6 3 7 2 16 -1 19 -3 4 -6 -2 -5 -13z"/>
<path d="M4578 1593 c6 -2 18 -2 25 0 6 3 1 5 -13 5 -14 0 -19 -2 -12 -5z"/>
<path d="M4651 1432 c-1 -7 -5 -10 -11 -7 -6 4 -7 -1 -3 -11 4 -12 3 -15 -5
-10 -7 4 -12 3 -12 -3 0 -6 -7 -8 -15 -5 -10 4 -15 0 -15 -15 0 -12 4 -21 8
-21 10 0 11 -5 18 -83 4 -36 1 -70 -6 -88 -17 -39 -115 -128 -179 -161 l-51
-26 83 -6 c45 -4 115 -9 154 -12 l73 -6 -16 38 c-19 45 -15 180 7 229 25 57
20 192 -6 181 -8 -3 -16 0 -19 7 -3 9 -5 8 -5 -1z"/>
<path d="M9233 1410 c4 -14 7 -46 7 -72 l0 -48 73 1 c39 1 83 4 96 8 20 5 16
10 -40 36 -35 17 -81 46 -103 65 -38 33 -39 34 -33 10z"/>
<path d="M5080 1280 c0 -3 -3 -40 -6 -83 -3 -43 -9 -88 -13 -100 -20 -50 -71
-105 -122 -131 l-53 -26 161 0 c89 0 170 -3 180 -6 13 -4 10 1 -8 18 -59 52
-87 147 -69 235 10 45 9 57 -2 64 -8 5 -17 4 -23 -5 -11 -14 -26 -4 -38 24 -3
8 -6 13 -7 10z"/>
<path d="M5150 1276 c0 -2 7 -7 16 -10 8 -3 12 -2 9 4 -6 10 -25 14 -25 6z"/>
<path d="M5530 1011 c0 -7 -5 -9 -12 -5 -7 4 -8 3 -4 -4 4 -7 2 -12 -4 -12 -6
0 -8 -4 -5 -10 3 -5 10 -10 14 -10 10 0 23 42 16 49 -3 2 -5 -1 -5 -8z"/>
<path d="M5452 979 c-24 -17 -41 -33 -40 -35 2 -2 22 2 43 7 33 8 40 14 40 35
0 13 0 24 -1 24 0 0 -19 -14 -42 -31z"/>
</g>
</svg>
