<?xml version="1.0" standalone="no"?>
<!DOCTYPE svg PUBLIC "-//W3C//DTD SVG 20010904//EN"
 "http://www.w3.org/TR/2001/REC-SVG-20010904/DTD/svg10.dtd">
<svg version="1.0" xmlns="http://www.w3.org/2000/svg"
 width="1328.000000pt" height="1328.000000pt" viewBox="0 0 1328.000000 1328.000000"
 preserveAspectRatio="xMidYMid meet">
<metadata>
Created by potrace 1.16, written by Peter Selinger 2001-2019
</metadata>
<g transform="translate(0.000000,1328.000000) scale(0.100000,-0.100000)"
fill="#000000" stroke="none">
<path d="M7085 12260 c-11 -13 -21 -16 -25 -10 -4 6 -42 -20 -89 -60 -46 -38
-86 -70 -90 -70 -10 0 -92 -81 -139 -137 -141 -168 -233 -341 -277 -518 -24
-96 -26 -124 -23 -225 4 -93 10 -129 32 -190 34 -91 43 -164 24 -187 -11 -14
-11 -16 2 -11 8 2 19 14 25 26 5 12 18 22 27 22 10 0 18 5 18 10 0 14 17 12
31 -3 9 -10 30 -11 84 -5 157 17 354 78 452 140 110 70 155 102 171 123 9 11
25 24 35 28 9 3 17 11 17 16 0 14 -23 26 -27 14 -2 -6 -11 -19 -19 -29 -9 -10
-12 -13 -8 -5 4 7 3 12 -2 9 -52 -25 -87 -38 -91 -34 -6 6 27 56 38 56 5 0 9
8 9 18 0 9 9 23 20 30 11 7 20 19 20 27 0 8 5 15 11 15 5 0 8 4 4 9 -3 6 3 14
12 20 17 10 17 10 1 11 -10 0 -37 -6 -60 -14 -63 -20 -155 -36 -223 -39 -48
-2 -60 1 -63 14 -2 13 8 18 45 23 130 16 229 43 302 80 24 13 31 22 26 36 -5
16 -3 19 12 13 10 -3 15 -3 11 1 -3 4 -2 21 2 36 5 16 5 28 0 27 -8 -2 -10 3
-10 29 0 8 5 12 10 9 6 -3 10 3 10 14 0 10 -6 22 -12 24 -7 3 -4 6 6 6 19 1
19 1 0 20 -10 10 -23 16 -27 14 -5 -3 -4 4 2 16 8 14 8 21 1 21 -5 0 -10 16
-10 35 0 24 -5 35 -15 35 -8 0 -16 -1 -17 -2 -2 -1 -14 5 -28 13 -26 15 -30
16 -70 19 -23 1 -23 2 -5 10 19 8 19 9 -2 9 -63 2 19 61 85 61 15 0 42 9 59
20 18 11 46 21 63 22 18 1 30 8 30 16 0 10 -6 12 -17 7 -10 -4 -27 -8 -38 -10
-11 -1 -20 -3 -20 -4 0 -2 -7 -4 -15 -6 -8 -1 -43 -10 -78 -19 -35 -9 -81 -16
-102 -16 -39 0 -47 -7 -108 -88 -9 -12 -22 -28 -28 -35 -45 -52 -105 -129
-117 -153 -8 -16 -26 -41 -39 -55 -13 -14 -31 -39 -39 -55 -34 -66 -55 -94
-66 -90 -7 3 -10 -1 -6 -10 3 -7 0 -14 -7 -14 -6 0 -8 -5 -5 -10 7 -12 -32
-100 -45 -100 -11 0 -31 -60 -24 -71 3 -5 2 -9 -3 -9 -4 0 -13 -17 -20 -37 -6
-21 -17 -51 -24 -68 -15 -37 -16 -40 -18 -65 0 -11 -6 -20 -12 -20 -8 0 -9 20
-4 67 8 72 30 130 58 151 19 14 23 32 7 32 -5 0 -10 -8 -11 -17 0 -10 -3 -13
-5 -6 -3 7 0 22 7 35 12 22 12 22 20 3 7 -19 8 -19 8 3 1 12 5 22 10 22 5 0 9
6 8 13 -1 36 4 57 13 52 5 -3 7 0 4 8 -3 8 2 17 10 20 9 4 16 15 16 26 0 11 5
23 10 26 6 3 10 15 10 25 0 10 4 20 8 22 9 4 61 80 81 121 8 15 18 27 23 27 4
0 8 6 8 14 0 8 10 22 23 31 12 8 22 19 21 23 0 4 3 12 8 17 4 6 19 24 33 41
14 18 25 36 25 40 0 8 32 46 113 134 13 14 27 32 32 40 8 13 7 13 -10 0 -33
-26 -125 -123 -125 -132 0 -4 -7 -8 -15 -8 -30 0 -15 129 27 245 13 34 78 145
86 145 5 0 -2 -38 -12 -75 -4 -11 0 -6 8 10 8 17 15 40 16 53 0 13 4 21 9 18
10 -7 19 22 13 47 -5 23 -44 22 -67 -3z m-195 -244 c0 -2 -7 -7 -16 -10 -8 -3
-12 -2 -9 4 6 10 25 14 25 6z m259 -239 c-2 -1 -12 -9 -22 -16 -15 -12 -17
-12 -11 3 3 9 13 16 22 16 8 0 13 -1 11 -3z m-559 -187 c9 -67 20 -100 51
-156 35 -64 39 -84 18 -84 -6 0 -48 61 -58 85 -2 6 -9 17 -16 25 -25 28 -37
136 -23 188 5 19 11 32 13 30 2 -1 9 -41 15 -88z"/>
<path d="M7415 12210 c-3 -5 -1 -10 4 -10 6 0 11 5 11 10 0 6 -2 10 -4 10 -3
0 -8 -4 -11 -10z"/>
<path d="M4630 12119 c-36 -5 -91 -11 -122 -13 -32 -3 -71 -12 -87 -21 -33
-17 -55 -20 -47 -6 3 4 -15 1 -39 -7 -25 -8 -43 -18 -40 -22 3 -4 -8 -10 -23
-13 -15 -3 -45 -22 -67 -41 -22 -20 -45 -36 -52 -36 -6 0 -18 -9 -26 -20 -8
-11 -16 -17 -19 -14 -8 7 -28 -54 -28 -86 0 -89 87 -307 177 -442 44 -66 131
-173 188 -233 34 -36 157 -133 218 -172 145 -93 281 -153 452 -201 344 -97
695 -77 957 54 l67 33 74 -86 c149 -171 225 -346 241 -553 3 -45 2 -67 -3 -55
-5 11 -7 23 -5 27 3 4 0 9 -5 12 -5 3 -14 -8 -20 -26 -9 -25 -8 -35 4 -48 14
-16 14 -18 -1 -24 -9 -3 -23 -1 -30 5 -8 7 -14 7 -14 2 0 -10 -108 -44 -180
-58 -19 -4 -42 -13 -50 -20 -8 -7 -28 -15 -45 -17 -16 -1 -32 -5 -35 -8 -3 -3
-32 -18 -65 -35 -95 -48 -243 -135 -270 -161 -15 -13 -28 -24 -30 -24 -8 0
-85 -82 -85 -91 0 -5 28 10 63 34 34 24 87 57 117 73 30 16 58 33 61 38 4 5
13 5 20 1 8 -5 11 -4 6 0 -10 12 110 78 126 69 6 -4 9 -4 5 1 -9 10 37 35 64
35 11 0 26 6 33 14 18 17 209 80 310 101 81 17 205 31 205 24 7 -346 33 -996
39 -1007 8 -14 11 -12 17 13 9 33 12 752 4 905 l-5 95 35 -3 c122 -9 358 -65
495 -117 221 -83 391 -180 539 -308 45 -38 89 -75 99 -81 9 -6 17 -15 17 -20
0 -4 15 -22 33 -40 19 -17 46 -49 60 -71 15 -22 27 -35 27 -28 0 31 -232 293
-260 293 -4 0 -23 14 -41 30 -50 45 -182 123 -303 180 -59 28 -110 50 -115 50
-5 0 -31 11 -58 24 -26 13 -91 34 -143 46 -52 12 -117 28 -145 35 -27 7 -85
17 -128 23 -49 6 -85 16 -98 28 -15 14 -26 15 -52 8 -49 -15 -77 2 -77 47 0
110 -113 426 -197 551 -25 37 -71 88 -102 114 -31 25 -78 67 -106 93 -99 93
-235 211 -242 211 -5 0 -24 14 -43 31 -19 17 -95 70 -168 118 -214 140 -227
147 -367 211 -168 77 -219 105 -201 108 9 2 22 -1 29 -6 7 -5 30 -15 52 -22
54 -17 409 -189 413 -201 2 -5 8 -9 14 -9 15 0 238 -151 238 -161 0 -5 6 -9
13 -9 13 0 30 -13 171 -132 125 -105 155 -96 134 39 -10 69 -49 197 -60 201
-4 2 -8 8 -8 13 0 24 -103 211 -139 252 -46 54 -161 167 -168 167 -5 0 -26 17
-48 37 -22 19 -62 49 -90 65 -27 16 -57 33 -65 38 -15 10 -130 63 -220 102
-83 36 -312 89 -425 98 -130 11 -265 11 -355 -1z"/>
<path d="M7275 12005 c-48 -48 -84 -89 -81 -92 3 -4 14 1 23 9 10 9 24 13 30
11 7 -3 16 2 19 11 3 9 12 16 20 16 8 0 14 5 14 10 0 6 12 23 26 37 14 14 27
31 28 37 1 6 5 17 10 24 23 38 -11 13 -89 -63z"/>
<path d="M5761 9603 c-6 -10 -11 -13 -11 -6 0 13 -30 6 -30 -7 0 -16 32 -40
42 -34 7 4 8 2 4 -4 -4 -7 -2 -12 3 -12 6 0 11 -4 11 -10 0 -5 -13 -10 -30
-10 -23 0 -30 4 -30 20 0 11 -5 20 -11 20 -6 0 -8 -7 -5 -16 3 -8 2 -12 -4 -9
-9 6 -60 -43 -60 -59 0 -18 -32 -45 -46 -39 -8 3 -14 -1 -14 -10 0 -8 -5 -17
-10 -19 -6 -2 -12 -13 -13 -25 0 -12 -5 -20 -9 -17 -11 7 -52 -38 -55 -61 -2
-11 -10 -25 -18 -31 -8 -6 -15 -16 -15 -23 0 -6 -4 -11 -10 -11 -5 0 -10 -7
-10 -16 0 -8 -4 -13 -9 -9 -5 3 -12 -4 -16 -15 -4 -11 -10 -18 -14 -16 -12 8
-56 -39 -71 -73 -7 -17 -19 -31 -26 -31 -8 0 -14 -7 -14 -17 0 -9 -3 -14 -6
-10 -8 7 -34 -17 -34 -32 0 -6 -7 -11 -15 -11 -9 0 -15 -9 -15 -25 0 -20 -5
-25 -25 -25 -14 0 -25 -5 -25 -10 0 -6 -10 -21 -22 -34 -13 -12 -32 -34 -43
-49 -11 -15 -25 -27 -32 -27 -7 0 -13 -8 -13 -18 0 -9 -14 -30 -30 -45 -17
-16 -28 -33 -25 -37 3 -5 -2 -15 -10 -23 -8 -9 -15 -19 -15 -24 0 -4 -12 -21
-26 -38 -31 -35 -64 -98 -64 -120 0 -8 -3 -15 -7 -15 -8 0 -36 -64 -48 -110
-4 -14 -16 -44 -26 -66 -11 -23 -22 -52 -24 -65 -3 -13 -13 -53 -24 -89 -33
-115 -43 -154 -44 -185 -1 -16 -6 -37 -12 -45 -5 -8 -10 -19 -11 -25 -1 -5 -5
-26 -9 -45 -3 -19 -11 -37 -16 -41 -6 -3 -10 -9 -9 -13 2 -9 -11 -69 -18 -81
-4 -5 -7 -14 -8 -20 0 -5 -2 -17 -3 -25 -1 -13 -2 -13 -11 0 -7 12 -10 8 -10
-15 0 -16 -7 -39 -15 -49 -8 -11 -15 -28 -15 -38 0 -10 -4 -18 -10 -18 -5 0
-10 -9 -10 -20 0 -11 -4 -20 -9 -20 -10 0 -25 -48 -22 -68 1 -7 -5 -15 -14
-18 -8 -3 -15 -12 -15 -20 0 -8 -5 -14 -10 -14 -6 0 -10 -3 -9 -7 2 -15 -13
-53 -21 -53 -5 0 -7 -8 -5 -17 1 -10 0 -22 -4 -28 -6 -11 -11 -31 -13 -60 -1
-11 -5 -25 -10 -31 -13 -18 -18 -223 -7 -284 6 -30 11 -61 11 -67 1 -7 5 -13
10 -13 4 0 8 -18 8 -41 0 -24 4 -38 10 -34 6 3 10 0 10 -9 0 -8 7 -27 15 -43
8 -15 20 -43 27 -60 7 -18 17 -33 21 -33 5 0 5 -4 2 -10 -3 -5 -3 -10 2 -10 4
0 14 -12 20 -28 14 -31 136 -180 164 -200 10 -7 19 -19 19 -25 0 -7 19 -28 42
-47 22 -19 66 -60 97 -91 31 -31 66 -61 78 -68 12 -6 42 -28 67 -49 58 -48
149 -105 258 -159 48 -24 89 -47 92 -51 10 -18 -33 -196 -66 -272 -46 -103
-70 -150 -79 -155 -5 -4 -9 -15 -9 -26 0 -10 -6 -19 -13 -19 -11 0 -11 15 -1
83 18 119 18 226 -1 233 -23 9 -219 -97 -295 -159 -9 -6 -36 -25 -60 -42 -25
-16 -49 -34 -55 -38 -5 -4 -62 -47 -126 -95 -158 -118 -260 -203 -345 -286
-12 -12 -41 -40 -65 -63 -75 -70 -152 -154 -263 -283 -12 -14 -32 -42 -46 -62
-14 -21 -28 -38 -32 -38 -4 0 -15 -14 -24 -32 -9 -18 -40 -64 -69 -103 -29
-38 -67 -97 -85 -130 -18 -33 -43 -73 -55 -90 -12 -16 -26 -41 -30 -55 -4 -14
-18 -46 -31 -72 -20 -39 -25 -65 -25 -133 -1 -47 -6 -88 -10 -91 -5 -3 -9 -14
-9 -25 0 -10 -29 -76 -64 -147 -89 -178 -97 -198 -103 -274 -8 -108 29 -182
112 -219 105 -48 199 -1 290 143 35 56 57 61 76 17 44 -107 141 -146 239 -96
43 22 66 50 152 190 20 32 50 58 111 96 45 28 128 87 182 130 l100 78 6 -211
c4 -116 12 -232 18 -259 15 -64 5 -191 -23 -276 -8 -25 -23 -73 -32 -106 -9
-33 -23 -72 -30 -87 -8 -14 -26 -71 -40 -125 -15 -54 -33 -120 -41 -148 -8
-27 -21 -86 -28 -130 -8 -44 -21 -118 -30 -165 -20 -98 -24 -476 -6 -523 6
-15 15 -66 21 -114 16 -125 18 -132 59 -153 39 -21 93 -69 116 -104 10 -16 12
-31 6 -52 l-8 -29 66 1 c67 1 110 -11 112 -30 3 -32 -4 -72 -14 -81 -7 -5 -21
-27 -31 -47 -11 -21 -22 -38 -26 -38 -4 0 -12 -11 -18 -25 -11 -25 -69 -66
-110 -79 -14 -5 -37 -1 -62 10 -40 18 -60 51 -60 101 0 20 -4 23 -31 21 -22
-2 -43 -16 -74 -49 -59 -63 -64 -66 -55 -23 14 62 32 97 90 174 31 41 59 80
63 87 9 15 -2 43 -17 43 -36 0 -231 -114 -277 -163 -34 -35 -59 -98 -59 -149
0 -78 44 -116 157 -133 22 -4 49 -16 60 -27 40 -45 75 -51 343 -61 322 -12
448 -10 580 9 231 33 464 91 529 132 76 47 110 110 135 252 34 186 67 346 91
435 66 241 82 288 94 281 3 -3 41 -11 83 -20 73 -15 138 -13 138 5 0 5 -14 6
-32 2 -22 -4 -29 -3 -24 5 10 16 51 15 68 -1 7 -6 41 -13 76 -14 55 -3 62 -1
62 17 0 10 6 23 13 27 18 11 28 51 13 57 -6 2 0 5 12 5 15 1 22 6 19 14 -2 6
-11 11 -18 9 -9 -1 -8 3 4 11 11 10 17 28 17 59 0 75 -26 132 -89 195 -74 74
-79 78 -159 118 -121 59 -202 78 -345 81 -71 1 -126 0 -123 -3 8 -9 -77 -62
-89 -56 -5 4 -7 3 -3 -2 4 -4 -4 -21 -18 -38 -22 -26 -25 -37 -19 -74 4 -28 2
-43 -4 -43 -20 0 -26 5 -23 20 2 11 -1 10 -8 -3 -6 -9 -16 -14 -22 -11 -8 5
-9 1 -5 -10 6 -14 3 -15 -14 -6 -15 9 -18 15 -9 25 8 10 8 14 -2 17 -18 6 -48
-2 -48 -13 0 -12 -35 24 -43 44 -3 9 -13 18 -22 18 -27 2 -29 4 -62 27 -18 13
-33 30 -33 38 0 8 -7 15 -15 15 -8 1 -19 2 -24 3 -5 0 -20 12 -34 26 -14 14
-42 41 -61 60 -20 19 -36 41 -36 47 0 7 -9 18 -21 25 -11 7 -32 36 -46 63 -14
28 -29 52 -32 55 -17 13 -71 95 -71 108 0 8 -7 26 -15 40 -29 52 -96 269 -116
377 -12 68 -22 177 -26 285 -7 229 10 383 83 745 8 37 78 293 97 355 75 237
314 783 364 830 14 13 15 13 10 -2 -7 -20 8 -25 17 -5 3 6 3 0 1 -15 -2 -16 0
-28 5 -28 5 0 8 -14 8 -31 -1 -19 6 -37 16 -44 13 -10 14 -14 4 -19 -7 -3 1
-4 17 -1 22 4 26 3 15 -5 -8 -5 -11 -10 -6 -10 5 0 2 -7 -5 -16 -7 -9 -14 -22
-15 -30 -1 -7 -27 -50 -57 -96 -100 -151 -132 -244 -125 -365 6 -93 24 -134
78 -169 35 -24 47 -26 113 -23 189 10 377 184 431 400 9 36 16 83 16 104 0 49
-28 155 -48 177 -8 9 -12 23 -9 30 4 10 6 10 6 0 1 -10 5 -10 24 0 12 7 40 14
62 15 22 0 60 6 85 11 25 5 80 17 122 26 42 9 80 16 85 14 4 -1 33 2 63 6 30
4 71 10 90 12 19 3 46 7 60 9 71 13 286 43 350 50 30 3 75 10 100 15 25 6 77
15 115 20 56 9 199 38 315 66 23 5 170 44 210 55 19 6 53 15 75 20 21 6 44 14
50 18 5 4 21 11 34 14 29 7 51 -16 111 -116 24 -42 46 -74 49 -72 2 3 9 -2 15
-11 10 -13 12 -13 12 5 0 11 -4 18 -7 15 -4 -2 -10 0 -13 5 -4 5 -1 13 5 16 5
4 8 13 5 20 -6 16 35 45 64 45 11 0 38 11 60 25 34 22 39 29 37 60 -1 19 -5
35 -9 35 -3 0 -19 11 -35 24 -15 13 -53 36 -83 51 -30 16 -57 30 -59 32 -5 3
41 42 51 43 10 0 111 65 129 82 8 7 39 30 70 50 30 21 65 51 77 68 13 16 28
30 35 30 17 1 58 39 87 83 14 20 28 37 32 37 22 0 93 87 173 214 10 17 23 32
27 34 4 2 5 9 2 16 -3 8 1 20 9 28 8 8 17 37 20 64 2 27 8 59 12 71 6 19 2 24
-20 33 -14 5 -50 10 -80 10 -37 0 -55 4 -58 14 -4 9 1 16 11 19 9 2 2 4 -15 4
-25 0 -33 -4 -33 -19 0 -22 -32 -24 -54 -3 -18 18 -53 20 -58 3 -3 -7 -21 -12
-41 -11 -20 1 -40 -3 -43 -8 -3 -5 -32 -9 -65 -9 -41 0 -65 -5 -76 -16 -9 -8
-22 -13 -30 -10 -8 3 -12 2 -9 -3 3 -5 -22 -9 -56 -10 -33 -1 -97 -10 -142
-21 -234 -55 -569 -116 -696 -125 -149 -11 -288 -14 -319 -7 -26 6 -1 10 106
20 270 23 664 93 1050 187 204 50 253 67 253 89 0 13 -12 16 -59 16 -33 0 -63
-5 -66 -10 -4 -6 -21 -10 -38 -10 -50 0 -67 -3 -61 -12 3 -4 -21 -9 -53 -9
-93 -3 -96 -3 -100 -17 -3 -8 1 -10 14 -6 15 6 16 5 5 -7 -10 -10 -17 -11 -31
-2 -11 7 -50 10 -102 7 -46 -2 -94 -4 -106 -4 -13 0 -23 -4 -23 -9 0 -5 -24
-8 -54 -7 -30 1 -52 -2 -50 -6 8 -13 -21 -9 -35 5 -11 10 -13 10 -7 0 4 -7 2
-13 -3 -13 -6 0 -11 3 -11 8 0 6 -39 10 -125 12 -16 0 -31 -4 -33 -10 -4 -12
-82 -14 -82 -2 0 5 -19 9 -42 9 -24 1 -72 4 -107 9 -48 5 -62 4 -57 -4 12 -20
-19 -13 -37 8 -9 11 -24 20 -33 20 -8 0 -22 7 -30 15 -13 13 -50 21 -77 16 -4
-1 -18 4 -30 11 -12 6 -37 11 -54 9 -18 -1 -33 3 -33 9 0 5 -11 10 -24 10 -14
0 -31 6 -38 13 -7 8 -18 12 -24 10 -18 -6 -60 14 -97 47 -22 19 -37 26 -39 19
-3 -8 -17 -3 -43 14 -22 15 -44 27 -50 27 -14 0 -45 37 -38 44 4 3 -3 6 -14 6
-12 0 -23 7 -27 15 -3 8 -10 15 -16 15 -5 0 -10 -7 -10 -15 0 -8 -4 -15 -10
-15 -5 0 -10 9 -10 20 0 14 -7 20 -24 20 -13 0 -27 7 -30 16 -3 8 -10 13 -15
9 -5 -3 -12 -1 -16 4 -3 6 -12 8 -20 4 -9 -3 -15 1 -15 9 0 14 -28 46 -40 47
-21 0 -40 17 -40 36 0 33 -10 55 -25 55 -18 0 -28 34 -20 62 6 17 4 20 -10 14
-13 -5 -16 -2 -11 11 4 9 1 20 -6 24 -18 11 -19 69 -2 69 8 0 14 9 14 20 0 13
-7 20 -20 20 -17 0 -20 -7 -20 -47 0 -55 -10 -52 -15 5 -3 37 -1 42 26 54 26
12 29 17 29 60 0 41 -3 48 -20 48 -23 0 -26 17 -6 39 17 20 29 81 16 81 -6 0
-10 7 -10 15 0 8 -5 15 -11 15 -6 0 -4 7 5 15 18 19 16 128 -4 165 -9 18 -10
25 -1 28 17 6 13 26 -9 40 -20 12 -29 62 -11 62 5 0 8 8 7 17 0 10 9 19 24 23
l25 6 -29 8 c-22 5 -26 10 -17 16 8 4 11 15 8 23 -3 9 1 21 9 28 12 10 12 13
-3 25 -16 12 -16 15 -3 24 10 6 11 10 3 10 -7 0 -13 9 -13 19 0 10 -7 21 -15
25 -22 8 -18 25 8 36 17 7 18 9 5 9 -22 1 -23 17 -2 25 13 5 14 9 4 21 -7 8
-17 12 -22 9 -5 -3 -12 3 -15 15 -3 12 -9 21 -13 21 -5 0 -6 10 -2 22 4 17 2
20 -11 15 -12 -5 -17 -1 -17 12 0 11 -3 26 -6 35 -4 11 -1 16 10 16 20 0 21
14 1 30 -8 7 -15 25 -15 40 0 15 -9 37 -20 50 -24 28 -24 29 -3 52 13 14 14
21 5 30 -7 7 -12 18 -12 26 0 12 3 12 15 2 8 -7 12 -16 9 -21 -9 -15 26 -10
42 5 16 16 19 40 4 31 -5 -3 -10 -1 -10 4 0 6 -13 11 -30 11 -32 0 -35 7 -30
90 1 32 20 71 20 42 0 -7 3 -11 8 -11 22 4 32 -3 32 -23 0 -19 2 -20 10 -8 6
10 10 11 10 3 0 -7 5 -13 10 -13 6 0 10 14 10 30 0 28 -2 30 -40 30 -47 0 -66
24 -50 64 12 33 19 33 12 1 -2 -15 0 -25 7 -25 6 0 11 -8 11 -17 0 -15 2 -16
15 -2 13 13 13 22 3 67 -13 53 -24 66 -30 35 -3 -12 -6 -9 -10 10 -5 24 -2 27
15 25 11 -2 22 3 24 10 3 6 0 12 -6 12 -6 0 -11 9 -11 20 0 18 -10 25 -32 21
-5 0 -8 13 -8 29 0 17 5 30 10 30 6 0 10 -4 10 -10 0 -5 9 -10 20 -10 11 0 20
-4 20 -10 0 -5 5 -10 11 -10 8 0 7 6 -2 17 -11 13 -11 17 -1 20 6 3 12 13 12
24 0 16 -7 19 -41 19 -38 0 -41 2 -37 24 4 17 1 23 -9 19 -15 -6 -18 24 -3 47
8 12 10 11 10 -7 0 -32 28 -29 41 3 11 30 3 46 -11 24 -7 -11 -10 -8 -10 13 0
15 -4 27 -10 27 -5 0 -10 -7 -10 -16 0 -14 -2 -14 -16 -3 -14 12 -13 14 14 24
24 8 28 14 21 30 -8 19 -8 19 -15 -2 -8 -28 -24 -30 -24 -4 0 11 -11 23 -28
30 -15 6 -33 20 -40 31 -16 26 -1 26 18 0 8 -11 22 -20 32 -20 25 0 23 31 -2
37 -25 7 -26 23 -2 23 14 1 12 5 -10 25 -18 15 -23 25 -15 28 7 3 4 6 -7 6
-10 1 -26 -8 -35 -18 -12 -14 -22 -17 -32 -10 -11 7 -11 9 4 9 9 0 17 5 17 10
0 17 -28 11 -39 -7z m-1 -103 c0 -5 -4 -10 -10 -10 -5 0 -10 5 -10 10 0 6 5
10 10 10 6 0 10 -4 10 -10z m208 -238 c8 -6 2 -9 -18 -9 -16 0 -30 4 -30 9 0
10 31 10 48 0z m-51 -214 c-3 -8 -6 -5 -6 6 -1 11 2 17 5 13 3 -3 4 -12 1 -19z
m-20 -160 c-3 -8 -6 -5 -6 6 -1 11 2 17 5 13 3 -3 4 -12 1 -19z m-189 -81 c17
-20 32 -40 32 -45 0 -6 3 -12 8 -14 31 -14 128 -234 139 -316 3 -26 12 -55 21
-64 10 -13 12 -27 7 -55 -6 -32 -9 -35 -15 -18 -21 50 -70 217 -70 235 0 11
-4 20 -9 20 -5 0 -14 20 -20 45 -6 25 -15 44 -19 41 -4 -2 -20 22 -37 55 -16
32 -35 59 -41 59 -7 0 -15 7 -18 16 -4 10 -2 13 7 8 6 -5 0 8 -14 27 -14 18
-29 40 -33 47 -14 24 26 -3 62 -41z m202 34 c0 -15 -16 -22 -35 -15 -13 5 -14
8 -3 15 18 12 38 11 38 0z m-14 -78 c-11 -11 -19 6 -11 24 8 17 8 17 12 0 3
-10 2 -21 -1 -24z m-381 -47 c51 -24 157 -113 120 -101 -83 27 -100 28 -160
10 -51 -14 -70 -27 -130 -89 -155 -157 -245 -430 -245 -741 0 -168 25 -290 80
-403 71 -144 151 -205 286 -221 60 -7 86 -6 107 4 33 16 36 6 5 -15 -71 -46
-132 -67 -225 -79 -139 -17 -343 20 -389 70 -17 19 -17 19 2 16 10 -2 28 -8
39 -14 40 -22 179 -43 279 -43 101 1 197 17 232 40 18 11 18 11 -1 5 -202 -65
-410 -37 -533 71 -52 45 -108 159 -128 260 -19 95 -21 314 -4 434 47 343 185
640 348 752 104 72 223 88 317 44z m139 -252 c35 -22 65 -89 72 -160 9 -83
-16 -167 -64 -216 -32 -34 -42 -38 -85 -38 -42 0 -54 5 -82 33 -97 97 -59 346
60 398 26 11 68 4 99 -17z m386 -744 c0 -31 -4 -40 -17 -40 -13 0 -14 3 -6 11
7 7 9 25 6 40 -3 18 -1 29 6 29 6 0 11 -17 11 -40z m-33 -242 c-3 -7 -5 -2 -5
12 0 14 2 19 5 13 2 -7 2 -19 0 -25z m33 -78 c0 -5 -4 -10 -10 -10 -5 0 -10 5
-10 10 0 6 5 10 10 10 6 0 10 -4 10 -10z m40 -55 c0 -17 -2 -18 -25 -9 -13 5
-14 8 -3 15 19 13 28 11 28 -6z m-728 -6035 c23 -11 44 -16 47 -11 3 5 12 3
19 -5 7 -8 8 -14 3 -14 -6 0 -8 -7 -5 -15 4 -10 13 -13 25 -10 14 5 18 1 17
-17 -1 -13 -5 -28 -10 -34 -4 -6 -9 -23 -10 -38 -1 -14 -6 -26 -11 -26 -5 0
-7 -7 -4 -15 8 -18 -10 -30 -48 -30 -21 -1 -29 -5 -27 -15 3 -12 1 -12 -9 -3
-9 9 -18 7 -41 -10 -25 -18 -42 -22 -104 -20 -41 1 -74 -3 -74 -8 0 -12 -37
-12 -45 0 -3 5 -19 12 -35 16 -47 10 -86 69 -89 133 -1 32 2 51 7 48 6 -3 13
5 16 19 4 14 13 25 21 25 8 0 15 6 15 13 0 7 14 14 32 15 17 2 38 7 45 13 7 6
19 9 26 6 8 -3 20 -1 27 3 24 15 168 1 212 -20z"/>
<path d="M4961 1204 c0 -11 3 -14 6 -6 3 7 2 16 -1 19 -3 4 -6 -2 -5 -13z"/>
<path d="M7723 8872 c-79 -52 -145 -159 -189 -308 -13 -46 -24 -103 -24 -127
1 -39 2 -41 15 -23 8 11 15 27 15 37 0 31 59 208 85 255 56 100 93 142 160
177 29 16 30 16 5 16 -14 0 -44 -12 -67 -27z"/>
<path d="M7925 8756 c-67 -28 -128 -87 -183 -179 -75 -125 -120 -327 -129
-588 -13 -351 56 -619 189 -746 65 -60 125 -79 208 -63 67 13 99 31 150 84
109 114 158 264 166 511 9 231 -30 432 -117 613 -55 114 -151 213 -228 236
-63 18 -120 13 -170 -17 -32 -19 -33 -19 -23 -1 18 32 85 91 132 116 70 36
176 33 254 -7 156 -80 289 -308 356 -615 83 -373 57 -690 -71 -859 -45 -59
-17 -47 32 15 40 50 75 129 97 219 26 109 24 384 -6 542 -60 324 -172 565
-315 678 -77 61 -122 79 -207 82 -62 3 -85 -1 -135 -21z m-4 -292 c99 -69 117
-290 30 -383 -24 -26 -36 -31 -75 -31 -92 0 -146 85 -146 232 0 93 26 160 74
189 42 26 73 24 117 -7z"/>
<path d="M6040 8460 c0 -11 7 -20 15 -20 17 0 18 2 9 24 -9 23 -24 20 -24 -4z"/>
<path d="M6080 8250 c0 -5 5 -10 10 -10 6 0 10 5 10 10 0 6 -4 10 -10 10 -5 0
-10 -4 -10 -10z"/>
<path d="M6080 7929 c0 -5 5 -7 10 -4 6 3 10 8 10 11 0 2 -4 4 -10 4 -5 0 -10
-5 -10 -11z"/>
<path d="M6081 7664 c0 -11 3 -14 6 -6 3 7 2 16 -1 19 -3 4 -6 -2 -5 -13z"/>
<path d="M6372 7264 c-21 -14 -21 -17 -6 -45 17 -34 84 -70 115 -62 30 8 25
59 -10 94 -33 32 -65 37 -99 13z"/>
<path d="M6983 7248 c-65 -73 -13 -119 70 -63 37 26 43 39 31 69 -10 25 -76
21 -101 -6z"/>
<path d="M6180 7230 c0 -5 5 -10 10 -10 6 0 10 5 10 10 0 6 -4 10 -10 10 -5 0
-10 -4 -10 -10z"/>
<path d="M8633 6796 c19 -19 50 -21 45 -3 -3 6 -17 13 -33 15 -26 3 -27 2 -12
-12z"/>
<path d="M7565 5428 c-162 -95 -126 -400 69 -593 86 -86 165 -127 252 -133 79
-5 115 13 144 72 70 145 -3 409 -155 561 -104 105 -226 141 -310 93z"/>
<path d="M5537 5403 c-12 -12 -7 -22 8 -17 8 4 15 10 15 15 0 11 -14 12 -23 2z"/>
<path d="M8306 5118 c3 -13 19 -52 35 -87 16 -35 29 -68 29 -72 0 -5 8 -28 19
-52 47 -106 161 -494 177 -602 3 -16 9 -51 15 -77 6 -27 12 -60 14 -75 4 -39
24 -157 37 -224 11 -52 15 -58 81 -110 38 -30 75 -59 81 -64 6 -6 24 -18 39
-28 16 -10 36 -25 45 -32 9 -8 36 -28 60 -45 23 -17 50 -44 60 -60 9 -17 32
-56 50 -88 60 -105 163 -151 247 -111 17 8 50 42 75 76 25 34 48 62 52 63 4 0
25 -26 47 -59 58 -84 123 -139 177 -147 72 -10 125 12 144 61 12 31 -12 113
-38 131 -12 8 -29 32 -37 52 -9 20 -22 43 -31 51 -8 9 -44 56 -80 105 -74 98
-99 126 -115 126 -6 0 -25 6 -42 14 -18 8 -43 16 -57 18 -14 2 -25 10 -25 18
0 8 -9 19 -20 25 -13 6 -19 18 -17 30 2 12 0 16 -5 9 -6 -9 -11 -8 -20 1 -10
11 -9 15 5 18 12 3 10 5 -6 6 -13 0 -20 6 -17 11 3 6 3 10 -2 10 -4 0 -21 20
-36 45 -16 25 -34 45 -41 45 -15 0 -48 55 -38 65 4 5 1 5 -5 1 -8 -4 -13 -1
-13 9 0 8 -6 18 -13 21 -7 2 -24 29 -37 59 -13 30 -32 57 -41 60 -10 3 -22 19
-28 35 -9 26 -24 35 -52 32 -4 -1 -12 12 -19 28 -6 16 -18 31 -26 34 -8 3 -14
12 -14 20 0 7 -7 16 -15 20 -8 3 -15 13 -15 21 0 9 -4 14 -8 11 -5 -3 -14 10
-20 28 -13 35 -38 62 -74 80 -13 6 -24 19 -26 29 -2 9 -30 45 -63 79 -32 33
-59 65 -59 69 0 5 -11 14 -25 21 -13 7 -53 48 -87 90 -127 155 -193 227 -211
227 -15 1 -17 -4 -11 -21z"/>
<path d="M6613 5075 c-85 -19 -157 -59 -223 -125 -94 -95 -140 -208 -140 -345
0 -125 37 -219 124 -312 141 -153 361 -192 551 -98 163 79 256 228 257 410 0
163 -79 317 -207 404 -97 67 -243 94 -362 66z"/>
<path d="M5622 4054 c-67 -18 -85 -27 -148 -78 -159 -129 -225 -374 -158 -588
40 -125 99 -208 189 -266 28 -17 55 -35 60 -39 29 -23 136 -46 211 -45 87 1
148 20 226 68 63 39 86 62 130 128 135 208 101 510 -79 690 -68 68 -116 97
-207 125 -78 24 -148 26 -224 5z"/>
<path d="M3451 4005 c-39 -33 -97 -113 -126 -174 -47 -96 -45 -170 6 -221 46
-46 64 -40 78 25 7 31 28 94 46 140 34 88 61 214 51 240 -8 21 -20 19 -55 -10z"/>
<path d="M7545 3861 c-306 -94 -540 -398 -571 -743 -26 -299 195 -529 484
-504 244 22 461 176 582 413 165 321 92 694 -158 815 -61 29 -77 32 -172 35
-79 2 -120 -2 -165 -16z"/>
<path d="M9853 3737 c4 -10 10 -37 13 -60 9 -69 14 -87 24 -87 22 0 51 45 46
71 -5 25 -56 92 -56 74 0 -4 -8 -1 -17 6 -15 12 -16 12 -10 -4z"/>
<path d="M8090 2591 c-108 -110 -188 -178 -270 -228 -66 -41 -194 -103 -212
-103 -9 0 -19 -4 -22 -9 -6 -9 -118 -48 -160 -57 -11 -2 -22 -8 -26 -14 -6 -9
-55 -21 -92 -21 -10 0 -18 -4 -18 -8 0 -9 -68 -31 -97 -31 -11 0 -26 -7 -33
-15 -6 -8 -15 -14 -18 -13 -27 3 -62 -4 -58 -11 4 -5 -3 -7 -14 -4 -19 5 -20
3 -9 -20 10 -23 16 -25 63 -22 29 2 57 0 62 -3 22 -15 111 -426 144 -667 30
-214 78 -275 263 -336 230 -75 698 -136 832 -108 35 7 116 11 195 10 151 -3
300 12 312 31 4 8 1 15 -8 18 -9 3 -15 9 -15 13 1 11 -37 46 -43 39 -3 -3 -6
0 -6 6 0 7 -6 12 -14 12 -8 0 -16 7 -20 15 -3 8 -12 15 -19 15 -16 0 -50 34
-41 42 3 3 -6 14 -19 24 -12 11 -26 27 -30 37 -3 9 -10 16 -15 15 -5 -2 -29
18 -53 43 -24 26 -54 52 -66 58 -13 6 -22 15 -20 20 1 5 -10 23 -26 40 -19 22
-36 31 -57 31 -43 0 -46 -19 -12 -86 58 -115 76 -219 50 -280 -7 -16 -19 -29
-25 -28 -7 1 -19 2 -26 3 -17 1 -168 147 -189 181 -8 14 -18 45 -22 70 -15 95
-16 106 -17 125 0 11 -4 22 -9 25 -15 9 12 60 31 60 21 0 29 9 22 26 -4 10
-23 14 -67 14 l-61 1 40 14 c41 15 157 43 210 51 72 10 128 25 141 38 8 8 14
29 14 46 0 27 -3 31 -21 25 -14 -5 -25 -2 -30 6 -7 11 -12 12 -29 2 -11 -7
-28 -13 -37 -12 -12 0 -13 2 -5 6 10 4 9 8 -5 19 -15 11 -15 15 -4 23 10 6 10
10 1 16 -6 4 -9 13 -6 20 2 7 -4 21 -15 31 -19 17 -20 17 -13 0 5 -14 3 -17
-7 -14 -8 3 -14 10 -14 15 0 6 -3 15 -7 19 -5 4 -8 -2 -8 -13 0 -25 -8 -33
-26 -26 -11 4 -13 14 -9 34 4 19 3 29 -5 29 -6 0 -9 4 -6 9 11 18 -6 41 -30
41 -25 0 -33 15 -11 23 10 4 10 6 0 6 -9 1 -13 17 -13 46 0 29 -4 45 -12 45
-10 0 -10 2 0 8 9 6 6 14 -13 32 -14 13 -23 30 -20 38 5 14 -17 42 -34 42 -5
0 -13 21 -17 48 -3 26 -8 56 -11 67 -7 35 -11 170 -5 179 3 6 7 32 8 59 2 27
7 54 13 60 6 6 11 18 11 28 0 9 10 31 23 50 20 32 27 101 9 98 -4 -1 -59 -54
-122 -118z"/>
<path d="M8680 2589 c-125 -75 -195 -259 -168 -440 8 -54 18 -81 42 -112 48
-63 93 -90 139 -84 75 10 112 53 149 171 18 59 20 85 16 195 -6 152 -26 229
-69 266 -37 30 -63 32 -109 4z"/>
<path d="M7015 2062 c-14 -10 -17 -39 -6 -46 5 -3 20 -2 33 3 21 9 21 10 3 11
-14 0 -16 3 -7 9 11 6 11 10 0 19 -8 6 -18 8 -23 4z"/>
<path d="M9020 1220 c-7 -21 -3 -200 4 -200 16 0 97 42 92 47 -3 3 0 15 6 27
6 11 7 18 3 14 -10 -10 -84 69 -98 103 -3 8 -6 12 -7 9z"/>
</g>
</svg>
