<?xml version="1.0" standalone="no"?>
<!DOCTYPE svg PUBLIC "-//W3C//DTD SVG 20010904//EN"
 "http://www.w3.org/TR/2001/REC-SVG-20010904/DTD/svg10.dtd">
<svg version="1.0" xmlns="http://www.w3.org/2000/svg"
 width="1328.000000pt" height="1328.000000pt" viewBox="0 0 1328.000000 1328.000000"
 preserveAspectRatio="xMidYMid meet">
<metadata>
Created by potrace 1.16, written by Peter Selinger 2001-2019
</metadata>
<g transform="translate(0.000000,1328.000000) scale(0.100000,-0.100000)"
fill="#000000" stroke="none">
<path d="M2944 11450 c-77 -31 -70 -153 26 -452 158 -493 496 -1058 931 -1553
131 -150 292 -314 284 -290 -28 81 -56 225 -64 327 -20 244 23 697 113 1179
52 279 50 254 24 272 -66 48 -120 78 -293 166 -345 175 -677 301 -909 346 -88
17 -84 17 -112 5z"/>
<path d="M12015 11406 c-91 -24 -241 -75 -305 -103 -81 -36 -121 -54 -223
-102 -60 -28 -112 -51 -117 -51 -4 0 -10 -4 -12 -8 -1 -4 -37 -25 -78 -45 -41
-20 -97 -51 -125 -67 -27 -17 -65 -38 -82 -47 -18 -9 -33 -21 -33 -25 0 -5 -6
-6 -12 -2 -7 5 2 -9 20 -29 64 -74 130 -229 167 -397 81 -356 47 -820 -83
-1140 -58 -145 -57 -140 -19 -100 18 19 57 62 86 95 30 33 68 76 85 95 229
258 490 635 647 936 163 314 293 687 305 874 5 68 3 78 -18 103 -33 40 -88 44
-203 13z"/>
<path d="M6575 7240 c-102 -15 -216 -95 -280 -195 -69 -107 -100 -276 -75
-400 31 -155 141 -293 265 -334 243 -79 500 66 553 314 20 95 22 121 12 198
-34 273 -240 453 -475 417z m281 -129 c58 -35 88 -86 92 -156 4 -58 2 -64 -28
-98 -96 -110 -270 -36 -270 115 1 115 117 193 206 139z"/>
<path d="M9090 7229 c-99 -30 -201 -140 -236 -254 -40 -132 -34 -309 16 -429
112 -269 419 -330 563 -113 151 227 62 668 -157 779 -46 24 -136 32 -186 17z
m32 -126 c41 -38 58 -81 58 -145 0 -66 -24 -108 -75 -132 -95 -46 -195 30
-195 146 1 137 125 213 212 131z"/>
<path d="M4982 6413 c-18 -2 -30 -8 -28 -12 3 -4 -15 -13 -40 -20 -24 -7 -44
-17 -44 -22 0 -5 -6 -8 -12 -6 -7 1 -12 -4 -10 -11 1 -8 -2 -11 -7 -8 -11 7
-96 -124 -133 -204 -75 -159 -111 -335 -112 -540 -1 -155 8 -250 23 -250 9 0
97 217 181 445 75 203 167 418 217 506 24 42 43 84 43 93 0 9 6 16 13 16 8 0
7 4 -3 10 -15 10 -28 10 -88 3z"/>
<path d="M5823 6345 c-81 -22 -127 -50 -192 -113 -64 -63 -98 -121 -130 -227
-78 -252 5 -556 204 -750 172 -168 365 -217 530 -136 73 36 113 78 156 163 78
155 82 423 8 649 -27 84 -91 203 -136 254 -119 133 -301 199 -440 160z"/>
<path d="M7950 6314 c-52 -8 -99 -27 -105 -42 -13 -34 95 -111 158 -112 61 0
157 62 157 102 0 12 -12 24 -32 32 -36 15 -138 26 -178 20z"/>
<path d="M4446 6168 c-9 -12 -16 -17 -16 -10 0 22 -32 12 -76 -23 -23 -19 -46
-35 -51 -35 -4 -1 -23 -21 -40 -45 -125 -169 -224 -501 -209 -700 7 -89 22
-155 36 -155 20 0 64 110 139 344 83 258 136 401 187 506 17 36 35 76 39 90 4
14 12 31 17 38 7 8 7 12 0 12 -6 0 -18 -10 -26 -22z"/>
<path d="M3695 5843 c-44 -25 -81 -50 -83 -54 -5 -13 -50 -11 -58 2 -6 11 -53
-33 -73 -69 -10 -18 -36 -6 -49 24 -7 13 -17 24 -24 24 -7 -1 -39 -25 -71 -55
l-58 -55 -65 -272 c-36 -150 -64 -283 -62 -297 l3 -26 200 -12 c110 -6 219
-12 242 -12 l41 -1 28 83 c36 109 107 294 132 343 38 74 35 78 -38 84 -57 4
-65 8 -68 26 -2 12 20 79 47 151 49 125 59 164 44 162 -5 0 -44 -21 -88 -46z"/>
<path d="M7870 5783 c-125 -63 -198 -83 -300 -83 -91 1 -155 21 -243 79 -63
41 -87 45 -87 17 0 -40 151 -131 253 -152 125 -27 237 -6 393 74 l92 46 98
-46 c111 -51 145 -63 223 -78 69 -13 163 2 236 36 71 34 164 119 148 135 -9 9
-25 2 -63 -26 -79 -58 -153 -85 -235 -85 -94 0 -159 19 -290 85 -60 30 -112
54 -115 53 -3 0 -52 -25 -110 -55z"/>
<path d="M9367 5738 c-3 -24 -2 -47 2 -51 5 -5 9 14 9 42 2 62 -3 66 -11 9z"/>
<path d="M9356 5633 c9 -38 14 -42 14 -10 0 14 -5 29 -10 32 -7 4 -8 -3 -4
-22z"/>
<path d="M9361 5555 c-1 -15 -3 -17 -10 -7 -15 24 -20 -12 -20 -143 0 -118 1
-125 20 -125 11 0 22 7 26 16 3 9 13 14 24 11 11 -3 19 -2 19 3 0 4 -9 10 -20
13 -12 3 -20 14 -20 26 0 28 28 27 39 -1 5 -15 10 -18 15 -9 5 7 -1 20 -15 32
-15 13 -19 23 -13 27 6 4 13 19 16 35 4 21 3 25 -8 16 -10 -8 -14 -2 -20 28
-4 21 -10 43 -14 48 -4 6 -10 19 -13 30 l-5 20 -1 -20z"/>
<path d="M9351 5224 c0 -11 3 -14 6 -6 3 7 2 16 -1 19 -3 4 -6 -2 -5 -13z"/>
<path d="M4714 3538 c0 -10 4 -18 8 -18 4 0 8 -4 8 -10 0 -5 -10 -10 -22 -10
-39 0 -68 -12 -68 -26 0 -8 -4 -14 -10 -14 -5 0 -10 4 -10 9 0 5 -9 7 -20 4
-16 -4 -20 0 -20 23 0 41 -7 25 -13 -28 -8 -69 -11 -71 -77 -64 -56 7 -58 6
-62 -19 -3 -14 -1 -25 3 -25 16 0 -14 -50 -30 -51 -9 -1 -25 -2 -36 -3 -11 0
-23 3 -26 7 -4 5 -10 -8 -14 -30 -9 -49 -21 -63 -56 -63 -15 0 -31 -4 -34 -10
-3 -5 0 -10 8 -10 13 0 17 -11 18 -53 0 -10 -14 -31 -30 -46 -17 -16 -31 -36
-31 -45 0 -16 -14 -20 -59 -16 -22 2 -23 -1 -18 -29 4 -17 3 -31 -1 -31 -18 0
-74 -62 -68 -75 3 -9 -6 -27 -22 -43 -21 -20 -28 -37 -28 -67 -1 -55 -17 -81
-54 -89 -30 -6 -31 -7 -26 -48 3 -24 11 -84 17 -135 13 -100 7 -186 -15 -221
-4 -8 -27 -50 -50 -95 -23 -45 -48 -92 -56 -104 -11 -17 -12 -25 -3 -34 23
-23 271 -38 718 -44 530 -7 617 -9 632 -18 7 -4 14 -4 16 0 3 5 40 6 83 3 43
-3 127 -3 188 -1 61 2 168 4 238 5 117 1 125 2 117 19 -5 9 -12 17 -14 17 -2
0 -2 -8 2 -17 3 -10 3 -15 -1 -11 -4 3 -9 18 -10 32 -4 34 -49 92 -78 100 -25
7 -467 1 -688 -9 -172 -8 -489 -9 -497 -2 -7 7 12 90 42 182 13 39 32 102 44
141 12 39 27 78 34 86 8 11 50 19 142 27 137 13 177 20 315 52 77 19 294 85
312 96 4 2 1 18 -6 36 -8 18 -44 100 -81 182 -37 83 -76 175 -87 205 -11 30
-27 62 -34 71 -8 8 -14 20 -14 25 0 11 -50 59 -61 59 -4 0 -21 15 -40 33 -18
17 -38 32 -45 32 -6 0 -27 17 -46 38 -19 21 -40 36 -46 34 -7 -2 -12 1 -12 6
0 6 -9 14 -20 17 -11 3 -20 13 -20 21 0 8 -4 14 -10 14 -5 0 -10 -4 -10 -9 0
-13 -37 -2 -51 15 -6 8 -19 14 -29 14 -10 0 -20 6 -23 14 -3 7 -18 15 -34 18
-23 3 -29 0 -29 -14z m-708 -1272 c-16 -77 -27 -104 -46 -109 -17 -4 -20 0
-20 29 0 36 26 121 43 142 15 19 30 -23 23 -62z"/>
<path d="M4665 3520 c-3 -5 -1 -10 4 -10 6 0 11 5 11 10 0 6 -2 10 -4 10 -3 0
-8 -4 -11 -10z"/>
<path d="M7607 2951 c-49 -26 -96 -54 -105 -62 -9 -8 -30 -20 -45 -26 -15 -7
-30 -20 -33 -28 -4 -9 26 -113 65 -233 39 -119 71 -222 71 -228 0 -33 146
-364 170 -384 18 -15 50 -81 44 -91 -5 -9 -50 -10 -161 -7 -84 3 -155 2 -158
-2 -8 -13 504 -69 630 -69 76 0 78 0 50 14 -41 19 -95 69 -95 89 0 9 -3 16 -7
17 -5 1 -24 2 -43 4 -44 4 -72 38 -95 116 -10 32 -26 66 -37 75 -10 10 -18 29
-18 44 0 15 -3 30 -6 33 -4 4 -8 23 -9 44 -2 21 -5 49 -8 63 -2 14 -5 34 -6
45 -1 17 -3 18 -11 5 -8 -12 -10 -11 -10 8 0 12 4 22 9 22 5 0 5 17 0 40 -5
23 -11 60 -14 83 -7 63 -28 157 -35 157 -9 0 -5 162 4 183 5 11 4 17 -4 17 -9
0 -11 15 -7 54 5 49 3 55 -16 60 -29 8 -20 11 -120 -43z"/>
<path d="M8347 1861 c-4 -19 -5 -36 -2 -39 10 -11 16 7 13 40 l-3 33 -8 -34z"/>
<path d="M6484 1855 c15 -40 24 -109 19 -143 -5 -31 -4 -34 18 -30 21 3 24 8
21 38 -4 47 -33 128 -51 143 -12 10 -13 9 -7 -8z"/>
<path d="M6035 1808 c-4 -10 -5 -24 -2 -32 5 -12 -1 -13 -28 -9 -19 3 -46 2
-61 -1 l-27 -7 24 -13 c60 -31 314 -72 334 -54 6 6 3 22 -10 46 -22 40 -9 36
-170 54 -16 2 -35 10 -42 18 -10 13 -12 13 -18 -2z"/>
</g>
</svg>
