<?xml version="1.0" standalone="no"?>
<!DOCTYPE svg PUBLIC "-//W3C//DTD SVG 20010904//EN"
 "http://www.w3.org/TR/2001/REC-SVG-20010904/DTD/svg10.dtd">
<svg version="1.0" xmlns="http://www.w3.org/2000/svg"
 width="1210.000000pt" height="1159.000000pt" viewBox="0 0 1210.000000 1159.000000"
 preserveAspectRatio="xMidYMid meet">
<metadata>
Created by potrace 1.16, written by Peter Selinger 2001-2019
</metadata>
<g transform="translate(0.000000,1159.000000) scale(0.100000,-0.100000)"
fill="#000000" stroke="none">
<path d="M4 5795 c0 -3190 2 -5757 5 -5705 4 65 10 95 19 96 6 1 21 2 32 3 11
0 25 11 30 24 5 12 9 16 9 10 1 -21 18 -15 24 8 4 15 -1 22 -19 29 -14 6 -28
9 -32 9 -18 -3 -32 2 -46 17 -14 14 -16 358 -16 3500 0 3428 0 3484 19 3484
28 0 51 10 51 23 0 6 10 21 22 34 12 13 16 23 10 23 -7 0 -12 -6 -12 -12 0 -7
-8 -1 -17 12 -24 36 -40 50 -46 44 -6 -6 -15 34 -21 94 -5 44 15 51 68 24 46
-23 166 -36 166 -17 0 6 -14 26 -31 45 -17 19 -28 29 -24 23 3 -7 3 -13 0 -13
-10 0 -35 28 -35 39 0 6 -4 11 -9 11 -12 0 -112 100 -128 128 -15 25 -18 182
-3 182 5 0 19 -4 32 -10 13 -5 77 -29 143 -54 66 -24 143 -56 172 -70 54 -26
120 -45 161 -46 28 0 29 26 2 60 l-20 25 0 -25 c-1 -40 -20 -2 -20 40 0 19 -7
48 -15 64 -8 15 -15 34 -15 41 0 17 -28 27 -33 12 -2 -7 -8 -9 -12 -5 -5 5 -1
16 8 26 23 25 21 34 -10 57 -15 11 -44 35 -64 52 -37 34 -107 68 -117 59 -3
-3 -12 0 -20 7 -13 10 -14 9 -8 -1 7 -11 4 -12 -11 -4 -11 6 -31 9 -44 6 -21
-4 -22 -3 -4 5 11 5 14 10 8 10 -7 1 -12 6 -10 12 1 6 -4 14 -12 17 -8 2 -11
0 -8 -5 3 -5 -3 -14 -14 -21 -11 -7 -19 -8 -19 -2 0 5 6 10 13 10 9 0 8 3 -2
9 -7 5 -22 6 -32 4 -14 -4 -17 -1 -14 15 2 12 -6 33 -18 49 -20 25 -22 41 -24
160 -2 125 5 162 22 111 6 -20 8 -21 12 -5 3 10 -1 25 -8 33 -10 12 -8 17 6
28 18 13 18 14 -3 20 -35 12 -26 43 10 37 21 -3 5 29 -17 35 l-25 6 -3 1462
c-1 803 -2 -1149 -3 -4339z m101 2307 c-5 -6 -35 11 -35 20 0 5 5 6 10 3 6 -3
10 0 11 7 0 7 4 4 8 -7 5 -11 7 -21 6 -23z m333 -256 c-2 -9 -9 -7 -23 7 -11
11 -14 17 -7 13 7 -5 12 -1 12 11 1 17 1 17 11 0 6 -10 9 -24 7 -31z"/>
<path d="M3490 10532 c-6 -31 -13 -69 -16 -83 -4 -22 1 -31 26 -49 17 -12 34
-19 37 -16 3 3 12 1 20 -5 7 -6 13 -8 13 -5 0 4 9 2 20 -4 16 -8 24 -8 35 4
13 13 12 24 -13 91 -15 41 -31 72 -35 69 -4 -4 -16 1 -27 12 -48 48 -48 48
-60 -14z"/>
<path d="M7369 10412 c5 -10 25 -32 44 -50 30 -29 40 -33 78 -30 l44 3 -65 41
c-77 48 -115 61 -101 36z"/>
<path d="M8345 10390 c-4 -6 -10 -8 -14 -6 -4 3 -24 -12 -44 -32 -36 -37 -36
-38 -13 -40 28 -2 86 47 86 72 0 18 -6 21 -15 6z"/>
<path d="M8060 10011 c0 -6 4 -13 10 -16 6 -3 7 1 4 9 -7 18 -14 21 -14 7z"/>
<path d="M7734 9884 c-18 -14 -18 -15 4 -4 12 6 22 13 22 15 0 8 -5 6 -26 -11z"/>
<path d="M3805 9700 c27 -12 43 -12 25 0 -8 5 -22 9 -30 9 -10 0 -8 -3 5 -9z"/>
<path d="M3297 9654 c-16 -14 -26 -28 -24 -30 8 -8 77 37 77 49 0 8 -4 7 -9
-2 -6 -9 -10 -10 -12 -2 -2 6 -16 0 -32 -15z"/>
<path d="M5920 9476 c0 -2 8 -10 18 -17 15 -13 16 -12 3 4 -13 16 -21 21 -21
13z"/>
<path d="M5753 9359 c-19 -7 -23 -16 -23 -51 l0 -43 26 43 c29 49 28 63 -3 51z"/>
<path d="M118 8643 c7 -3 16 -2 19 1 4 3 -2 6 -13 5 -11 0 -14 -3 -6 -6z"/>
<path d="M109 8504 c-12 -15 -10 -19 11 -33 14 -9 40 -30 57 -48 18 -18 36
-33 40 -33 4 0 23 -18 42 -39 20 -22 42 -41 49 -43 7 -2 30 -19 50 -38 70 -66
135 -116 188 -143 28 -15 31 -15 33 1 6 44 3 76 -8 80 -6 2 -8 8 -5 13 3 6 -9
9 -28 8 -47 -3 -80 9 -76 29 2 10 11 16 20 16 10 -1 14 5 11 17 -6 22 -31 44
-40 35 -3 -3 -13 0 -22 8 -9 8 -20 14 -25 13 -5 -1 -10 8 -11 20 -2 27 -15 44
-15 20 0 -22 -20 -33 -30 -16 -12 18 0 35 12 18 7 -11 8 -9 6 6 -2 13 -10 19
-24 17 -11 -1 -30 7 -43 19 -19 18 -25 19 -32 8 -7 -11 -9 -11 -9 -1 0 7 -4
11 -9 7 -6 -3 -14 2 -19 11 -6 11 -11 13 -16 5 -5 -7 -19 1 -40 24 -37 39 -48
42 -67 19z m188 -106 c-3 -8 -6 -5 -6 6 -1 11 2 17 5 13 3 -3 4 -12 1 -19z
m42 -58 c0 -11 -3 -10 -14 4 -8 11 -15 27 -15 35 0 11 4 10 15 -5 8 -10 14
-26 14 -34z"/>
<path d="M463 8462 c-33 -21 74 -122 150 -143 23 -6 68 -29 101 -52 65 -43 59
-29 -17 44 -65 62 -110 94 -127 91 -9 -1 -26 11 -38 28 -13 17 -28 28 -34 24
-5 -4 -13 -2 -17 4 -4 6 -12 8 -18 4z"/>
<path d="M782 8203 c17 -20 39 -68 69 -153 22 -61 51 -244 42 -266 -6 -16 -20
-19 -25 -4 -3 11 -6 -77 -7 -220 0 -105 -10 -87 88 -167 19 -15 42 -41 53 -58
19 -32 25 -80 8 -70 -5 3 -10 1 -10 -4 0 -6 5 -11 11 -11 6 0 9 -6 6 -12 -2
-7 -15 -12 -30 -10 -25 3 -26 2 -16 -27 11 -31 56 -50 81 -35 6 4 -1 -9 -16
-28 -15 -20 -33 -39 -40 -41 -8 -3 -24 -24 -37 -46 -12 -23 -29 -42 -36 -42
-7 -1 -19 -2 -25 -3 -7 0 -13 -5 -14 -11 -2 -33 -18 -65 -32 -65 -8 0 -13 -2
-11 -4 2 -3 119 -12 259 -20 140 -9 270 -18 287 -20 33 -5 52 7 33 19 -5 3
-10 27 -10 52 0 33 -11 66 -40 124 -22 44 -40 86 -40 94 0 13 -54 55 -71 55
-13 0 -19 -32 -9 -49 7 -15 4 -20 -16 -30 -30 -13 -64 1 -64 27 0 10 -3 13 -8
6 -7 -11 -93 -14 -86 -3 1 3 62 25 133 49 72 24 142 54 158 67 20 18 34 22 55
18 17 -4 59 3 110 19 72 21 93 24 153 17 39 -5 90 -18 114 -30 23 -12 45 -20
48 -17 5 5 -46 86 -86 136 -12 14 -21 30 -21 36 0 16 -59 43 -98 46 -21 1 -34
9 -38 20 -3 10 -16 21 -30 24 -13 3 -24 10 -24 15 0 5 -5 9 -11 9 -5 0 -8 -4
-4 -10 7 -11 -53 -29 -73 -22 -19 7 5 21 38 23 14 0 19 3 12 6 -6 2 -10 9 -6
14 3 5 -2 9 -10 9 -9 0 -18 11 -22 25 -3 14 -12 25 -19 25 -7 0 -15 5 -17 12
-4 10 -23 17 -55 20 -13 1 -16 10 -10 26 1 4 13 7 27 8 120 4 119 4 113 20 -5
12 -13 14 -42 8 -47 -10 -132 -6 -146 6 -14 12 -75 2 -75 -12 0 -5 -16 -8 -35
-6 -40 2 -44 15 -15 48 37 42 25 54 -25 26 -25 -13 -42 -19 -39 -13 11 19 -36
-22 -84 -73 -24 -25 -55 -65 -69 -90 -42 -73 -53 -87 -53 -69 0 9 9 26 20 39
29 34 35 67 16 89 -22 24 -68 159 -61 180 7 24 -13 123 -26 132 -7 4 -9 12 -5
17 12 20 -76 192 -98 192 -5 0 -2 -8 6 -17z"/>
<path d="M637 8094 c-3 -18 0 -24 14 -24 22 0 26 35 5 43 -9 4 -16 -3 -19 -19z"/>
<path d="M1298 7843 c-10 -2 -18 -11 -18 -19 0 -11 4 -10 20 3 17 15 26 26 18
22 -2 -1 -11 -3 -20 -6z"/>
<path d="M712 7770 c0 -14 2 -19 5 -12 2 6 2 18 0 25 -3 6 -5 1 -5 -13z"/>
<path d="M2748 7748 c7 -7 12 -22 12 -34 0 -15 8 -25 23 -30 33 -11 77 -12 77
-2 0 5 3 7 8 4 4 -2 16 2 27 10 19 14 11 19 -22 15 -7 -1 -13 2 -13 6 0 5 -11
10 -25 11 -14 1 -39 9 -55 17 -35 18 -48 19 -32 3z"/>
<path d="M2575 7719 c-63 -33 -140 -102 -131 -118 5 -8 -39 -23 -111 -36 -41
-8 -64 -40 -94 -130 -13 -38 -38 -91 -56 -118 -18 -27 -33 -53 -33 -59 0 -5
-9 -7 -19 -3 -10 3 -39 10 -62 14 l-44 9 38 1 c33 1 37 4 37 26 0 14 -5 25
-10 25 -6 0 -8 11 -4 27 6 22 4 25 -10 20 -9 -4 -16 -2 -16 3 0 11 -64 30
-102 30 -23 0 -32 -9 -59 -65 -19 -37 -37 -62 -43 -58 -6 3 -5 0 2 -8 10 -11
21 -10 70 5 31 10 63 20 70 22 30 8 8 -33 -29 -55 l-42 -23 59 -55 c32 -30 66
-72 75 -94 16 -34 30 -44 60 -41 3 1 4 -10 2 -22 -9 -44 13 -66 65 -66 26 0
116 -7 201 -16 84 -9 170 -13 190 -9 20 4 30 10 23 12 -6 3 -10 9 -6 14 8 13
44 -8 44 -26 0 -8 2 -15 5 -15 15 0 343 -32 407 -40 90 -11 692 -2 726 11 20
8 23 14 17 40 -5 22 -4 29 4 25 6 -4 11 -15 11 -26 0 -16 10 -19 83 -21 120
-5 646 -1 687 4 19 3 39 6 43 6 10 1 -17 45 -55 90 -31 36 -44 41 -27 9 11
-20 10 -20 -22 3 -19 13 -38 24 -44 24 -5 0 -9 8 -9 17 1 11 -4 14 -14 11 -8
-4 -20 1 -26 9 -6 8 -18 17 -26 21 -13 5 30 12 52 8 62 -9 99 -6 110 7 10 13
10 14 1 8 -7 -4 -13 -3 -13 1 0 5 -27 22 -60 37 -33 16 -60 32 -60 37 0 15 18
19 23 5 3 -7 18 -12 33 -11 20 1 36 -7 52 -27 37 -44 69 -36 37 9 -12 17 -12
23 -1 32 11 9 14 3 19 -31 6 -43 16 -53 77 -75 46 -16 73 -8 64 19 -4 13 -2
18 4 14 5 -3 12 0 15 8 21 53 -80 148 -145 137 -5 0 -8 3 -8 8 0 5 -9 11 -20
14 -11 3 -18 1 -14 -4 8 -13 -10 -11 -24 3 -9 9 -12 6 -12 -15 0 -15 4 -27 8
-27 5 0 14 -11 20 -25 6 -14 8 -25 3 -25 -5 0 -11 3 -13 8 -6 14 -87 72 -102
72 -8 0 -13 7 -11 18 1 9 8 16 14 14 6 -1 11 2 11 8 0 5 -7 10 -15 10 -8 0
-15 -5 -15 -11 0 -13 -21 -7 -22 6 -1 16 -51 55 -70 55 -10 0 -18 7 -18 15 0
23 -71 19 -132 -9 -62 -28 -138 -81 -138 -97 0 -6 16 -26 35 -44 20 -18 40
-49 46 -69 6 -23 19 -41 32 -46 21 -8 21 -9 -3 -9 -14 0 -43 6 -65 14 -33 11
-36 13 -15 15 15 1 19 4 10 7 -8 3 -30 21 -47 41 -24 27 -33 47 -33 72 0 19
-4 40 -8 46 -11 17 -68 44 -92 44 -11 0 -20 7 -20 16 0 8 -4 13 -9 9 -5 -3
-13 0 -17 6 -4 8 -3 9 4 5 7 -4 12 -1 12 8 0 8 8 16 17 18 14 3 11 10 -17 39
-29 30 -118 86 -127 80 -14 -8 -32 4 -37 24 -13 51 -171 66 -223 21 l-28 -24
62 -13 c35 -7 58 -16 52 -20 -6 -3 4 -11 23 -18 30 -10 31 -9 14 4 -11 8 -15
15 -10 15 19 0 104 -108 104 -133 0 -15 -38 8 -55 33 -12 18 -34 33 -61 40
-24 7 -41 17 -38 24 2 6 -10 16 -28 22 -73 25 -104 37 -122 46 -12 7 -16 6
-11 -1 11 -19 -30 -12 -52 8 -12 11 -24 17 -29 13 -4 -4 -4 1 -1 11 7 18 -8
24 -18 7 -4 -6 -11 -8 -16 -4 -20 12 -71 16 -64 5 3 -6 1 -11 -4 -11 -6 0 -11
4 -11 10 0 5 -7 7 -15 4 -8 -4 -15 -2 -15 4 0 15 67 24 89 12 27 -14 31 -13
31 10 0 11 -3 19 -7 18 -5 -1 -17 3 -28 8 -26 14 -64 12 -94 -5 -19 -11 -32
-11 -64 -1 -37 11 -44 9 -96 -17 -36 -19 -56 -35 -55 -46 1 -9 -2 -14 -7 -11
-5 3 -9 2 -9 -3 0 -13 -59 -35 -72 -27 -8 5 -7 1 2 -11 14 -16 13 -17 -8 -11
-13 5 -22 3 -22 -3 0 -6 -15 -11 -32 -11 -29 1 -31 2 -16 14 14 10 15 15 5 25
-9 10 -8 11 7 5 13 -5 17 -4 13 3 -5 7 8 16 30 23 64 21 59 29 -15 24 l-70 -4
-42 40 c-23 22 -47 40 -53 40 -7 0 -6 5 3 11 11 8 7 9 -17 4 -21 -4 -33 -3
-33 4 0 7 14 14 30 18 32 6 42 33 13 33 -10 0 -45 -14 -78 -31z m518 -126 c-7
-2 -19 -2 -25 0 -7 3 -2 5 12 5 14 0 19 -2 13 -5z m201 -43 c14 -5 26 -17 26
-25 0 -17 -15 -12 -55 19 -23 18 -8 21 29 6z m43 -42 c-3 -8 -6 -5 -6 6 -1 11
2 17 5 13 3 -3 4 -12 1 -19z m-625 -2 c7 4 8 2 4 -4 -11 -18 -26 -14 -25 6 0
10 3 12 6 4 2 -6 10 -9 15 -6z m748 -29 c0 -4 -9 -3 -19 3 -11 5 -26 8 -33 7
-7 -2 -10 -2 -5 0 4 3 5 8 2 13 -3 5 8 3 25 -3 16 -6 30 -15 30 -20z m125 -55
c-3 -3 -11 0 -18 7 -9 10 -8 11 6 5 10 -3 15 -9 12 -12z m225 -2 c13 -9 13
-10 0 -10 -8 0 -22 5 -30 10 -13 9 -13 10 0 10 8 0 22 -5 30 -10z m-137 -42
c9 -10 15 -18 12 -18 -11 0 -55 24 -55 30 0 13 25 6 43 -12z m72 -36 c-3 -3
-11 0 -18 7 -9 10 -8 11 6 5 10 -3 15 -9 12 -12z m70 -35 c11 -9 18 -18 15
-20 -3 -3 -21 9 -40 25 -34 29 -16 25 25 -5z m-130 -38 c11 -17 -1 -21 -15 -4
-8 9 -8 15 -2 15 6 0 14 -5 17 -11z m181 -46 c-3 -13 -1 -23 4 -23 4 0 15 -12
25 -26 9 -15 12 -23 6 -19 -8 5 -10 -1 -5 -21 5 -20 4 -25 -5 -19 -9 5 -9 2 0
-13 7 -12 9 -25 5 -29 -5 -4 -11 -3 -13 4 -2 6 -13 21 -24 34 -10 12 -19 28
-19 36 0 7 -6 16 -13 19 -19 7 -20 54 -2 54 8 0 15 -6 16 -12 0 -7 4 -4 8 7 5
11 5 28 0 37 -14 26 -10 35 6 14 8 -11 13 -30 11 -43z m-141 18 c-6 -5 -25 10
-25 20 0 5 6 4 14 -3 8 -7 12 -15 11 -17z m680 -31 c-3 -5 -13 -10 -21 -10 -8
0 -14 5 -14 10 0 6 9 10 21 10 11 0 17 -4 14 -10z m-452 -35 c35 -9 45 -25 15
-25 -28 1 -52 18 -61 45 -6 18 -6 18 6 3 7 -9 25 -20 40 -23z m-404 -49 c-1
-17 -2 -18 -6 -3 -3 13 -10 16 -26 11 -19 -6 -20 -5 -9 9 18 21 42 11 41 -17z
m1171 -17 c0 -6 -4 -7 -10 -4 -5 3 -10 11 -10 16 0 6 5 7 10 4 6 -3 10 -11 10
-16z m-497 4 c-7 -2 -19 -2 -25 0 -7 3 -2 5 12 5 14 0 19 -2 13 -5z m-1715
-60 c2 -7 8 -13 14 -13 13 0 72 -60 65 -66 -5 -6 -71 28 -75 39 -2 4 -12 7
-23 7 -11 0 -35 7 -54 15 -22 8 -74 15 -135 16 -61 1 -97 5 -94 11 10 15 296
6 302 -9z"/>
<path d="M1556 7696 c-9 -21 -16 -43 -16 -48 0 -5 -4 -7 -9 -4 -13 8 0 -37 13
-46 6 -4 30 -8 54 -8 31 0 42 4 42 15 0 8 7 15 15 15 8 0 15 7 15 15 0 19 -47
65 -66 65 -7 0 -17 8 -23 17 -8 14 -12 11 -25 -21z"/>
<path d="M379 7680 c-4 -91 -13 -121 -58 -196 l-19 -32 58 -68 c33 -38 69 -80
82 -94 12 -14 21 -26 20 -27 -1 -2 -2 -10 -2 -19 0 -10 6 -14 15 -10 8 3 15 1
15 -4 0 -6 7 -10 15 -10 8 0 15 -5 15 -10 0 -6 14 -9 30 -8 34 3 47 27 31 55
-6 10 -11 12 -11 6 0 -15 -31 13 -49 43 -10 18 -10 18 -11 0 0 -18 -1 -18 -18
-3 -21 19 -37 22 -26 5 4 -7 3 -8 -4 -4 -7 4 -12 21 -12 37 0 18 -4 28 -10 24
-6 -4 -8 -10 -5 -15 3 -5 1 -11 -5 -15 -5 -3 -10 2 -10 12 0 10 -9 24 -19 30
-11 7 -25 29 -30 50 -14 49 -14 116 -1 108 6 -4 10 -3 9 2 -1 4 0 15 4 23 3 8
10 37 16 63 10 40 9 52 -4 70 -15 21 -15 21 -16 -13z m121 -400 c13 -8 13 -10
-2 -10 -9 0 -20 5 -23 10 -8 13 5 13 25 0z"/>
<path d="M1961 7664 c0 -12 7 -28 17 -35 15 -12 16 -12 6 1 -7 8 -14 24 -17
35 -4 19 -5 19 -6 -1z"/>
<path d="M2765 7630 c3 -5 8 -10 11 -10 2 0 4 5 4 10 0 6 -5 10 -11 10 -5 0
-7 -4 -4 -10z"/>
<path d="M150 7400 c0 -10 -8 -24 -17 -29 -10 -6 -13 -11 -6 -11 12 0 43 38
43 52 0 5 -4 8 -10 8 -5 0 -10 -9 -10 -20z"/>
<path d="M4360 7390 c8 -5 20 -10 25 -10 6 0 3 5 -5 10 -8 5 -19 10 -25 10 -5
0 -3 -5 5 -10z"/>
<path d="M2175 7380 c3 -5 8 -10 11 -10 2 0 4 5 4 10 0 6 -5 10 -11 10 -5 0
-7 -4 -4 -10z"/>
<path d="M338 7334 c-3 -3 1 -22 10 -43 16 -36 17 -37 27 -17 16 30 -16 81
-37 60z"/>
<path d="M5911 7283 c-46 -11 -65 -20 -68 -34 -6 -23 -22 -24 -49 -4 -32 25
-88 18 -138 -16 -42 -28 -216 -230 -216 -250 0 -5 -6 -9 -13 -9 -7 0 -18 -5
-25 -12 -9 -9 -5 -15 19 -25 41 -17 70 -16 96 2 14 10 23 11 25 4 2 -7 29 -11
68 -10 81 1 81 1 160 -5 36 -2 87 1 114 7 27 6 112 12 190 13 119 1 145 5 169
20 15 10 27 24 27 30 0 12 -28 57 -42 67 -14 9 -58 72 -58 83 0 33 99 -107
113 -159 4 -18 5 -18 6 -2 0 10 6 15 11 12 6 -3 10 -2 10 3 0 5 9 21 20 35 21
27 44 27 54 1 3 -9 1 -12 -4 -9 -6 3 -10 -1 -10 -9 0 -31 79 -62 95 -37 3 6
17 6 35 1 20 -6 30 -5 34 3 3 9 5 8 5 0 1 -18 21 -16 21 2 0 8 7 15 15 15 8 0
14 -5 13 -12 -4 -15 31 -23 44 -10 7 7 4 10 -8 9 -11 -1 -18 4 -16 11 1 7 -8
12 -21 12 -12 0 -36 15 -53 33 -61 63 -115 108 -136 112 -17 4 -19 1 -13 -23
l6 -27 -16 23 c-9 12 -21 22 -27 22 -7 0 -26 15 -43 33 -36 36 -120 90 -135
85 -5 -2 -1 -21 9 -44 36 -80 37 -91 2 -52 -17 20 -31 40 -31 44 0 11 -45 64
-54 64 -4 0 -4 -4 -1 -10 4 -7 -3 -7 -19 0 -14 5 -26 6 -26 2 0 -4 -4 -1 -8 5
-13 20 -62 22 -131 6z m309 -74 c0 -14 -17 -10 -23 5 -4 10 -1 13 9 9 7 -3 14
-9 14 -14z"/>
<path d="M1380 7276 c0 -8 8 -17 17 -20 15 -6 15 -8 3 -16 -13 -8 -12 -10 3
-10 9 0 17 7 17 15 0 8 -4 15 -10 15 -5 0 -10 7 -10 15 0 8 -4 15 -10 15 -5 0
-10 -6 -10 -14z"/>
<path d="M1500 7253 c0 -8 -5 -11 -11 -7 -6 3 -15 0 -20 -7 -12 -19 -11 -29 2
-29 6 0 17 -7 25 -15 21 -20 48 -20 40 1 -5 12 -2 15 10 10 13 -5 15 -2 10 16
-3 13 -6 26 -6 29 0 4 -11 9 -25 11 -17 4 -25 1 -25 -9z"/>
<path d="M1701 7263 c3 -19 -2 -33 -12 -33 -5 0 -8 4 -4 9 3 5 1 12 -5 16 -5
3 -10 2 -10 -3 0 -5 -8 -12 -17 -16 -10 -3 -24 -9 -30 -12 -8 -3 -13 1 -13 10
0 9 -4 16 -8 16 -18 0 -19 -12 -6 -38 11 -22 11 -52 2 -160 -6 -73 -12 -131
-14 -129 -2 1 -5 17 -8 34 -8 42 -24 82 -26 63 -4 -28 1 -65 12 -106 l12 -42
65 -5 c36 -2 132 -10 213 -18 81 -7 150 -10 154 -6 7 6 4 13 -21 57 -9 15 -15
19 -15 10 0 -8 -9 0 -20 18 -23 37 -35 41 -43 11 -5 -18 -8 -19 -22 -8 -30 25
-70 71 -70 80 0 22 -17 11 -39 -25 -23 -39 -24 -39 -32 -15 -4 13 -7 31 -6 39
2 11 -1 11 -12 -3 -10 -14 -15 -15 -19 -5 -4 8 -6 7 -6 -4 -1 -10 4 -18 9 -18
6 0 10 -7 10 -15 0 -8 -7 -15 -15 -15 -10 0 -15 11 -15 35 0 19 -4 35 -9 35
-5 0 -7 9 -4 20 3 10 -2 26 -11 35 -9 9 -16 13 -16 8 -1 -17 -30 60 -30 80 0
20 0 20 19 -1 10 -12 21 -19 24 -15 4 3 5 -4 2 -16 -2 -13 1 -21 10 -21 7 0
17 -9 20 -20 6 -18 8 -18 21 -5 9 8 20 15 26 15 6 0 8 9 5 21 -5 20 -5 20 15
2 21 -18 21 -18 15 7 -4 14 -10 42 -13 62 -4 20 -15 46 -26 57 -19 21 -39 28
-37 14z"/>
<path d="M1437 7247 c-3 -8 -1 -20 4 -28 6 -10 9 -7 9 14 0 29 -5 35 -13 14z"/>
<path d="M376 7241 c-7 -10 16 -21 47 -21 13 0 17 4 12 9 -16 15 -53 22 -59
12z"/>
<path d="M702 7230 c0 -14 2 -19 5 -12 2 6 2 18 0 25 -3 6 -5 1 -5 -13z"/>
<path d="M641 7224 c0 -11 3 -14 6 -6 3 7 2 16 -1 19 -3 4 -6 -2 -5 -13z"/>
<path d="M596 7215 c-4 -13 -2 -14 14 -5 23 13 26 20 6 20 -8 0 -16 -7 -20
-15z"/>
<path d="M1800 7127 c0 -9 4 -18 9 -21 5 -4 8 1 7 9 -3 21 -16 31 -16 12z"/>
<path d="M1830 7100 c0 -5 5 -10 10 -10 6 0 10 5 10 10 0 6 -4 10 -10 10 -5 0
-10 -4 -10 -10z"/>
<path d="M4551 7060 c0 -15 126 -119 160 -132 14 -5 19 -3 19 10 -1 33 -28 56
-72 61 -4 1 -10 10 -13 21 -3 11 -15 20 -25 20 -10 0 -22 5 -25 10 -4 6 -11 7
-17 4 -6 -4 -14 0 -19 7 -7 12 -9 11 -8 -1z"/>
<path d="M4740 7011 c0 -5 7 -15 17 -22 15 -13 15 -12 4 9 -12 23 -21 28 -21
13z"/>
<path d="M810 4060 c-12 -8 -10 -10 8 -10 13 0 20 4 17 10 -7 12 -6 12 -25 0z"/>
<path d="M9050 3650 c0 -5 6 -10 14 -10 8 0 18 5 21 10 3 6 -3 10 -14 10 -12
0 -21 -4 -21 -10z"/>
<path d="M288 3093 c6 -2 10 -9 7 -13 -8 -13 44 -37 99 -45 36 -6 50 -4 57 6
10 17 -8 40 -27 32 -8 -3 -32 2 -54 11 -22 9 -53 16 -68 15 -15 0 -21 -3 -14
-6z"/>
<path d="M486 3025 c-3 -8 -1 -15 4 -15 6 0 10 7 10 15 0 8 -2 15 -4 15 -2 0
-6 -7 -10 -15z"/>
<path d="M1393 2800 c-18 -9 -30 -20 -26 -24 3 -3 1 -6 -5 -6 -17 0 -10 -23
11 -39 15 -11 21 -11 30 -1 9 10 9 14 -1 17 -6 3 -10 9 -6 14 8 14 24 11 24
-6 0 -23 14 -18 32 13 13 22 14 32 6 40 -15 15 -25 14 -65 -8z"/>
<path d="M1248 2803 c7 -3 16 -2 19 1 4 3 -2 6 -13 5 -11 0 -14 -3 -6 -6z"/>
<path d="M1124 2691 c4 -5 0 -12 -6 -14 -8 -3 -6 -6 5 -6 9 -1 17 6 17 14 0 8
-5 15 -11 15 -5 0 -8 -4 -5 -9z"/>
<path d="M60 2432 c0 -19 29 -27 43 -12 10 10 8 12 -7 6 -12 -4 -23 -1 -28 6
-6 11 -8 11 -8 0z"/>
<path d="M355 2279 c-9 -14 -2 -20 14 -10 8 6 9 11 3 15 -6 3 -14 1 -17 -5z"/>
<path d="M1200 2150 c0 -5 5 -10 11 -10 5 0 7 5 4 10 -3 6 -8 10 -11 10 -2 0
-4 -4 -4 -10z"/>
<path d="M1267 1717 l-39 -12 24 -21 c34 -32 59 -36 132 -23 100 17 94 36 -11
42 -24 1 -45 8 -48 15 -5 14 -8 14 -58 -1z"/>
<path d="M495 1040 c41 -21 51 -20 42 5 -4 10 -19 15 -44 15 l-37 0 39 -20z"/>
<path d="M480 965 c-10 -13 -9 -15 9 -15 12 0 21 6 21 15 0 8 -4 15 -9 15 -5
0 -14 -7 -21 -15z"/>
<path d="M1332 758 c-7 -9 -5 -29 6 -65 16 -50 19 -53 52 -53 49 0 125 39 125
65 0 39 -157 84 -183 53z"/>
<path d="M3484 455 c15 -32 45 -50 59 -36 13 13 -4 31 -44 48 -25 11 -26 10
-15 -12z"/>
<path d="M490 319 c0 -18 42 -77 63 -88 23 -12 77 -1 77 17 0 14 -23 32 -41
32 -9 0 -19 10 -22 23 -5 17 -14 22 -42 23 -19 0 -35 -3 -35 -7z"/>
<path d="M666 299 c-12 -63 -6 -92 31 -146 28 -40 42 -53 62 -53 43 0 108 39
131 77 l21 36 -23 23 c-23 22 -177 94 -202 94 -8 0 -16 -14 -20 -31z"/>
<path d="M2404 89 c-3 -6 -3 -21 0 -35 7 -27 32 -31 60 -11 16 12 16 13 -1 28
-25 22 -51 30 -59 18z"/>
</g>
</svg>
