<?xml version="1.0" standalone="no"?>
<!DOCTYPE svg PUBLIC "-//W3C//DTD SVG 20010904//EN"
 "http://www.w3.org/TR/2001/REC-SVG-20010904/DTD/svg10.dtd">
<svg version="1.0" xmlns="http://www.w3.org/2000/svg"
 width="1328.000000pt" height="1328.000000pt" viewBox="0 0 1328.000000 1328.000000"
 preserveAspectRatio="xMidYMid meet">
<metadata>
Created by potrace 1.16, written by Peter Selinger 2001-2019
</metadata>
<g transform="translate(0.000000,1328.000000) scale(0.100000,-0.100000)"
fill="#000000" stroke="none">
<path d="M5140 11404 c-363 -34 -652 -136 -915 -325 -44 -31 -107 -70 -140
-87 -94 -47 -185 -154 -251 -296 -40 -87 -67 -183 -93 -331 -11 -60 -31 -164
-45 -230 -14 -66 -29 -156 -32 -200 -4 -48 -13 -90 -24 -105 -21 -32 -63 -129
-88 -205 -60 -179 -68 -417 -20 -566 84 -257 311 -523 595 -697 48 -28 88 -54
90 -56 2 -2 -21 -39 -51 -81 -176 -245 -274 -556 -264 -830 l5 -123 -104 -83
c-416 -331 -684 -808 -719 -1277 l-7 -94 -47 -51 c-101 -111 -165 -237 -177
-347 -14 -142 36 -170 203 -111 l82 28 6 -74 c12 -130 74 -292 144 -373 47
-56 65 -64 100 -46 27 14 82 85 82 106 0 23 17 7 38 -35 31 -64 89 -125 119
-125 31 0 76 46 109 113 32 61 64 186 64 244 0 43 1 45 48 65 150 64 248 112
322 158 45 28 84 49 85 48 1 -2 12 -30 25 -63 59 -153 203 -410 334 -600 l35
-50 -28 -30 c-88 -95 -212 -276 -271 -394 -203 -407 -181 -710 85 -1152 37
-61 65 -112 64 -113 -2 -2 -62 -22 -134 -45 -203 -66 -318 -135 -400 -238 -64
-81 -115 -187 -122 -254 -8 -84 5 -89 177 -74 l79 7 -9 -33 c-15 -53 -12 -87
11 -110 21 -21 27 -22 178 -16 147 6 227 15 466 52 56 8 166 15 252 15 412 0
1022 83 1189 161 87 42 154 149 154 249 0 54 -31 161 -85 290 -26 63 -54 134
-61 157 l-13 43 82 123 c45 67 95 144 112 171 26 41 33 47 55 42 92 -21 385
-66 487 -75 220 -20 552 -13 699 15 30 5 32 4 39 -33 11 -61 72 -210 130 -318
65 -121 151 -252 274 -414 50 -66 91 -122 91 -124 0 -3 -19 -17 -42 -32 -87
-56 -173 -167 -207 -267 -17 -49 -19 -85 -19 -270 0 -117 3 -231 8 -253 13
-58 43 -79 102 -71 70 10 236 70 352 128 99 50 102 50 168 44 37 -3 100 -9
138 -12 70 -7 71 -8 100 -49 43 -62 156 -171 225 -216 64 -42 99 -48 144 -25
45 24 138 143 189 241 l20 41 117 22 117 23 152 -70 c155 -72 288 -121 326
-121 74 0 91 62 87 321 -3 154 -7 204 -21 244 -29 83 -101 188 -177 260 l-71
67 31 156 c46 234 61 366 68 585 l6 197 26 6 c283 64 576 196 777 349 99 76
238 214 302 300 69 93 131 219 139 282 5 43 2 54 -16 72 -31 31 -70 27 -233
-24 -184 -57 -346 -85 -498 -85 -64 0 -137 3 -162 6 l-45 6 5 69 c4 55 0 81
-17 129 -20 55 -21 61 -6 83 26 41 47 173 40 256 -13 142 -70 332 -141 474
l-26 51 13 141 c21 212 18 694 -4 870 -69 534 -231 1038 -477 1485 -302 551
-680 935 -1265 1287 -354 213 -860 392 -1210 428 -38 4 -73 13 -77 19 -4 6 -8
27 -8 47 0 95 -65 368 -124 523 -109 287 -326 576 -566 755 -152 113 -417 229
-626 275 -177 39 -481 63 -624 50z m428 -50 c27 -6 35 -15 60 -78 16 -39 41
-107 56 -151 14 -44 30 -86 34 -93 5 -7 65 -21 138 -33 71 -11 183 -34 248
-50 65 -16 128 -29 140 -29 12 0 46 25 81 60 l60 59 40 -33 40 -34 -21 -24
c-12 -12 -24 -30 -28 -38 -4 -8 6 0 23 19 l30 34 36 -32 c114 -99 284 -331
350 -474 73 -161 85 -188 85 -201 0 -9 -26 -15 -92 -20 -106 -7 -110 -10 -135
-96 -8 -30 -42 -123 -74 -207 -33 -84 -59 -161 -59 -172 0 -18 57 -188 79
-236 6 -11 30 -74 54 -139 31 -82 51 -122 64 -127 10 -4 64 -15 119 -24 54 -9
101 -19 103 -21 2 -2 0 -25 -5 -52 -7 -38 -13 -47 -29 -45 -46 4 -113 15 -150
23 -22 5 -53 9 -70 9 -20 -1 -7 -6 35 -16 36 -8 67 -17 70 -20 9 -8 -155 -148
-173 -148 -7 0 -11 11 -9 24 3 28 0 26 -18 -8 -8 -15 -8 -21 -1 -17 6 4 11 2
11 -3 0 -6 -5 -11 -12 -11 -6 0 -22 -10 -35 -22 -13 -12 -25 -19 -28 -17 -7 8
22 108 55 188 16 40 30 81 30 90 0 44 -175 511 -191 511 -12 0 -13 5 27 -90
19 -47 41 -98 47 -115 6 -16 16 -40 23 -53 7 -13 29 -75 50 -137 l37 -114 -36
-93 c-19 -51 -39 -103 -42 -115 -3 -13 -11 -23 -16 -23 -5 0 -9 -7 -9 -15 0
-25 -42 -84 -60 -85 -3 0 -4 51 -2 114 4 121 -7 164 -48 186 -34 18 -64 1
-138 -80 -59 -64 -83 -83 -130 -100 -74 -28 -178 -28 -367 0 -399 59 -532 70
-720 59 -216 -13 -450 -69 -700 -169 -74 -30 -132 -47 -142 -43 -26 9 -149 81
-165 96 -26 25 -174 118 -235 149 -56 27 -75 31 -179 36 -113 5 -116 5 -126
31 -18 45 -14 266 6 361 25 117 53 188 77 195 10 4 17 10 14 15 -3 5 -1 11 4
15 5 3 11 -11 13 -32 3 -37 3 -37 65 -50 34 -6 78 -19 98 -28 21 -8 41 -15 45
-15 16 0 53 107 75 215 34 171 39 228 39 400 -1 179 -18 309 -45 342 -17 19
-63 16 -84 -7 -10 -11 -21 -18 -25 -15 -4 2 -13 -14 -19 -36 -15 -49 -23 -48
-11 1 48 193 185 407 295 460 62 30 94 24 119 -22 11 -21 21 -36 23 -35 7 7
-20 73 -35 85 -10 7 -12 16 -6 21 30 30 223 149 299 186 83 41 226 97 232 92
1 -1 -37 -25 -85 -52 -104 -58 -235 -151 -277 -194 -33 -36 -33 -33 24 -189
49 -132 22 -118 243 -125 106 -3 257 -11 335 -18 162 -14 129 -24 306 98 57
40 153 102 213 138 60 36 108 66 107 67 -1 2 -14 37 -29 78 -14 41 -46 119
-70 173 l-43 97 43 0 c24 0 57 -3 74 -6z m-1642 -869 c5 -27 1 -41 -20 -68
-72 -94 -156 -467 -156 -692 l0 -55 -35 0 -35 0 0 73 c0 270 90 635 187 765
29 39 49 31 59 -23z m24 -218 c-1 -95 -23 -187 -47 -195 -32 -10 -44 119 -19
202 17 57 43 99 56 91 6 -4 10 -48 10 -98z m3196 -815 c72 -64 140 -166 218
-324 73 -149 111 -252 230 -630 67 -212 144 -372 212 -442 26 -26 140 -109
253 -184 359 -236 491 -344 633 -519 176 -217 249 -373 439 -940 161 -480 244
-678 380 -909 43 -72 194 -283 218 -304 3 -3 24 -25 45 -50 22 -25 114 -121
205 -215 223 -228 251 -271 251 -384 0 -75 -32 -140 -105 -220 -91 -98 -248
-210 -279 -198 -12 5 -83 185 -75 190 3 1 35 31 71 66 l67 65 43 -30 c114 -81
62 -23 -122 134 -348 299 -540 479 -646 604 -126 150 -304 441 -304 495 0 10
11 63 25 118 34 140 49 338 34 473 -36 348 -139 586 -348 805 -157 164 -297
257 -647 431 -422 209 -538 312 -649 575 -40 93 -103 294 -135 426 -35 146
-89 321 -126 408 -19 45 -34 91 -34 104 0 12 11 66 24 120 26 101 56 287 56
342 0 41 15 39 66 -7z m-690 -337 c14 -22 16 -42 11 -123 -14 -239 -163 -497
-363 -632 -147 -98 -287 -152 -507 -196 -176 -35 -492 -44 -699 -20 -308 35
-597 136 -818 285 -134 90 -299 253 -393 388 -44 63 -117 208 -117 233 0 12
17 15 95 17 126 3 167 -13 354 -137 165 -110 220 -140 254 -140 13 0 66 17
118 38 134 55 297 108 419 136 260 61 455 60 890 -4 447 -66 513 -53 656 120
27 33 57 60 66 60 10 0 25 -11 34 -25z m616 -667 c68 -45 73 -54 127 -218 46
-138 109 -276 164 -363 21 -32 37 -60 37 -63 0 -4 -20 -24 -45 -46 -58 -51
-195 -222 -277 -346 -108 -162 -241 -414 -277 -525 -11 -34 -18 -38 -79 -56
-512 -151 -923 -217 -1372 -222 l-165 -2 -140 47 c-262 88 -464 201 -615 345
-80 76 -80 76 -80 128 0 124 95 570 145 680 13 28 41 78 63 110 51 75 169 193
193 193 12 0 26 -16 40 -42 87 -172 224 -276 439 -332 248 -66 486 -62 780 10
224 55 436 146 607 260 171 114 320 291 359 427 11 38 23 63 29 60 5 -4 36
-24 67 -45z m-2699 -207 c53 -21 100 -41 103 -44 3 -3 -8 -26 -26 -52 -88
-129 -176 -397 -196 -602 -4 -45 -11 -73 -18 -73 -15 0 -226 -120 -263 -150
l-28 -22 -8 34 c-13 46 -2 226 18 323 22 109 76 268 120 357 53 106 164 268
184 268 9 0 60 -17 114 -39z m3071 -523 c22 -60 35 -124 46 -234 l10 -96 -41
-46 c-143 -162 -269 -505 -285 -775 -3 -50 -7 -107 -10 -126 l-5 -33 -66 96
c-35 53 -114 152 -174 220 l-108 125 25 58 c50 114 157 318 217 416 125 200
320 437 359 437 10 0 22 -16 32 -42z m-3038 -134 c-40 -161 -61 -270 -77 -404
-10 -91 -13 -97 -54 -145 -48 -57 -145 -202 -145 -218 0 -6 -2 -8 -5 -6 -6 7
21 164 46 264 28 112 86 299 116 370 27 66 145 286 150 281 2 -2 -12 -66 -31
-142z m3506 -132 c64 -23 326 -151 334 -163 2 -4 -21 -13 -53 -20 -31 -7 -51
-15 -46 -16 6 -2 37 3 68 11 54 14 58 13 93 -7 60 -34 172 -126 257 -212 89
-89 201 -250 211 -302 7 -35 -18 -234 -42 -341 -8 -35 -14 -72 -14 -83 0 -16
66 -109 103 -144 14 -14 -30 51 -66 97 l-29 36 16 79 c9 43 23 114 32 158 9
44 17 98 16 120 0 25 3 34 8 25 18 -33 61 -181 80 -272 20 -102 38 -338 26
-338 -4 0 -17 10 -28 23 l-19 22 17 -32 c10 -18 22 -33 26 -33 10 0 8 -83 -2
-125 -6 -27 -8 -28 -15 -10 -11 27 -86 129 -168 231 -73 90 -83 95 -162 74
-20 -6 -11 -7 30 -4 56 5 61 3 80 -21 11 -14 36 -45 55 -68 19 -23 58 -76 85
-117 28 -41 55 -80 62 -87 6 -7 14 -26 18 -41 6 -30 -24 -182 -51 -254 -36
-96 -108 -258 -115 -258 -4 0 -13 -16 -19 -35 -6 -19 -16 -33 -21 -30 -5 4 -6
0 -4 -7 3 -8 -2 -23 -12 -34 -10 -11 -22 -27 -28 -36 -43 -68 -107 -155 -123
-167 -14 -10 -19 -27 -21 -70 -4 -100 -53 -296 -80 -321 -4 -3 -8 -14 -10 -25
-5 -30 -67 -111 -117 -152 -44 -36 -45 -36 -63 -17 -10 10 -37 64 -60 119 -23
55 -51 119 -61 143 -11 23 -20 58 -20 77 0 18 -4 36 -8 39 -5 3 -32 -18 -60
-47 -122 -125 -168 -167 -182 -167 -6 0 -10 -4 -10 -9 0 -12 -117 -71 -140
-71 -33 0 -50 35 -61 126 -11 87 -7 339 6 379 6 19 1 20 -162 21 -174 0 -219
7 -306 47 -54 25 -70 56 -43 86 9 10 16 23 16 29 0 22 137 148 190 174 76 38
180 54 264 42 37 -6 69 -7 72 -2 8 13 -47 29 -121 35 l-70 6 -24 61 c-13 33
-36 88 -51 121 -51 112 -68 150 -101 238 -28 76 -31 92 -22 118 6 16 7 29 2
29 -5 0 -9 -8 -9 -17 0 -38 -20 5 -26 57 -4 30 -11 66 -17 80 -5 14 -12 102
-14 195 -6 196 15 350 67 509 35 105 32 97 98 238 l51 107 61 -30 c34 -16 91
-48 127 -71 l65 -41 90 29 c49 15 85 30 79 32 -6 2 -45 -8 -86 -23 l-75 -26
-97 55 c-54 30 -103 60 -110 66 -7 5 -17 10 -22 10 -10 0 5 47 19 60 3 3 18
22 34 43 15 21 31 36 34 33 3 -3 12 3 19 14 48 69 232 95 355 52z m-3693 -51
c-5 -15 -9 -32 -8 -37 5 -18 -13 -74 -22 -68 -8 5 -13 -9 -10 -28 2 -16 -17
-7 -24 10 -6 16 -8 16 -22 -3 -15 -20 -15 -20 -10 3 3 12 1 22 -5 22 -5 0 -6
5 -3 10 4 7 14 6 28 -1 19 -9 20 -8 6 3 -9 7 -14 18 -12 25 3 7 -3 9 -16 6
-13 -3 -21 -1 -21 6 0 7 5 9 10 6 6 -3 10 -1 10 5 0 7 7 10 15 6 8 -3 14 0 12
6 -1 6 12 15 28 21 17 5 34 16 38 23 13 23 17 16 6 -15z m-64 -161 c3 -5 1
-10 -4 -10 -6 0 -11 5 -11 10 0 6 2 10 4 10 3 0 8 -4 11 -10z m-8 -127 c-37
-114 -74 -355 -86 -563 l-8 -135 -61 -80 c-33 -44 -76 -97 -96 -118 l-36 -39
-46 26 c-26 15 -49 24 -51 22 -2 -2 18 -16 46 -32 28 -15 51 -31 51 -36 0 -9
-37 -48 -46 -48 -4 0 -40 17 -81 37 l-74 38 -54 -55 c-72 -71 -245 -266 -273
-307 -12 -17 -22 -38 -22 -47 0 -22 -21 -20 -117 11 l-82 27 6 60 c3 34 7 63
9 65 2 2 34 -8 72 -22 37 -15 72 -27 79 -27 6 0 26 19 46 43 19 23 50 59 68
79 19 21 68 75 109 122 41 47 80 85 86 85 9 1 15 59 40 447 l6 90 -32 27 c-17
15 -37 27 -43 27 -7 0 -22 8 -34 18 l-22 17 31 34 31 35 53 -28 53 -28 78 57
c43 32 94 70 113 84 94 71 286 177 299 165 2 -2 -3 -25 -12 -51z m258 -124
c163 -165 383 -286 683 -378 56 -18 102 -34 102 -37 0 -2 -11 -64 -24 -137
-39 -215 -49 -339 -43 -549 7 -241 37 -424 102 -623 31 -94 72 -202 86 -228 6
-11 8 -21 6 -24 -6 -6 -198 45 -327 87 -303 98 -685 353 -765 511 -30 59 -90
302 -110 449 -23 167 -30 395 -16 540 10 109 16 134 47 197 19 40 63 109 97
154 34 45 66 88 72 96 5 7 12 13 15 13 3 0 37 -32 75 -71z m2410 -187 c57 -49
209 -237 299 -370 44 -65 56 -91 56 -121 0 -129 65 -349 179 -607 39 -88 72
-171 73 -184 3 -20 -4 -26 -38 -36 -94 -28 -202 -109 -264 -199 -17 -25 -41
-45 -62 -52 -18 -6 -69 -25 -113 -42 -83 -32 -302 -98 -415 -125 -321 -75
-670 -108 -948 -87 -244 18 -226 11 -260 95 -116 282 -172 567 -172 874 0 191
8 283 42 490 19 118 23 133 42 137 12 2 125 6 251 9 236 6 347 17 590 62 157
28 451 99 595 143 114 35 120 35 145 13z m-3080 -673 c73 -47 73 -41 13 -112
-29 -35 -101 -122 -160 -193 -58 -71 -125 -149 -147 -173 -23 -24 -41 -46 -41
-47 0 -1 -25 -36 -55 -76 -30 -40 -72 -104 -92 -143 -20 -38 -40 -71 -45 -73
-4 -2 -8 -13 -8 -24 0 -18 -2 -19 -16 -7 -12 10 -15 24 -10 61 6 43 5 48 -13
48 -11 0 -23 -4 -26 -10 -6 -10 -104 -41 -183 -59 -78 -17 -89 30 -42 181 29
92 132 247 187 281 8 5 46 -1 88 -12 105 -29 131 -28 143 7 5 15 18 36 28 47
38 40 144 178 144 186 0 5 5 9 11 9 7 0 20 10 31 23 10 12 40 44 66 70 51 53
67 55 127 16z m563 -647 c127 -130 348 -270 570 -363 99 -41 311 -107 414
-128 52 -11 57 -15 64 -44 11 -53 79 -247 116 -332 33 -75 136 -257 191 -335
l24 -34 -52 -71 c-29 -38 -70 -101 -90 -138 -22 -40 -43 -66 -50 -64 -24 10
-243 172 -330 246 -363 307 -695 762 -855 1172 -52 133 -52 142 -2 91z m2840
-363 c84 -42 191 -63 326 -63 l118 -1 -4 -105 c-6 -130 7 -309 26 -354 8 -19
26 -42 41 -52 23 -15 31 -15 68 -4 23 7 60 23 82 36 46 27 175 138 206 178 19
24 49 36 49 19 0 -3 -36 -70 -79 -147 -163 -292 -250 -485 -297 -662 -14 -54
-27 -100 -28 -101 -1 -1 -63 13 -137 32 -189 47 -614 141 -799 176 -148 28
-246 45 -745 125 -263 42 -265 42 -265 53 0 5 -35 67 -78 137 -107 178 -165
299 -216 450 -24 71 -42 131 -40 133 2 2 54 -3 116 -10 155 -19 487 -16 653 5
300 39 686 138 895 229 l35 15 10 -31 c7 -24 23 -38 63 -58z m2160 -313 c97
-32 122 -50 117 -78 -3 -13 -7 -45 -10 -73 -4 -43 -3 -45 4 -15 5 19 12 52 15
73 l7 38 40 -22 39 -23 0 -65 c0 -68 7 -80 12 -18 1 20 6 37 11 37 4 0 6 4 3
9 -4 5 0 12 6 14 10 4 10 8 -1 15 -8 6 -9 12 -3 16 11 6 26 -26 31 -65 0 -5 5
-7 11 -4 5 3 12 -7 16 -22 4 -15 16 -41 27 -56 10 -16 17 -31 13 -34 -3 -3 0
-11 7 -17 18 -14 89 -187 91 -219 0 -14 4 -23 8 -21 23 14 158 -514 158 -619
0 -27 -2 -28 -37 -22 -59 10 -74 16 -68 26 4 5 2 9 -2 9 -5 0 -26 30 -47 68
-22 37 -43 70 -48 73 -5 3 -9 9 -8 13 2 12 -48 88 -53 79 -4 -7 100 -184 148
-250 9 -13 26 -23 39 -23 13 0 37 -3 54 -6 29 -6 31 -9 38 -71 3 -35 4 -67 0
-70 -3 -4 -28 -1 -55 6 -59 15 -87 3 -97 -44 -3 -16 -13 -42 -20 -57 -8 -15
-14 -30 -14 -33 0 -13 -124 -241 -137 -252 -8 -6 -16 -18 -17 -27 -1 -8 -14
-33 -28 -55 l-26 -39 25 -51 c13 -28 26 -68 29 -88 4 -31 2 -34 -11 -23 -9 7
-12 16 -7 19 4 3 5 17 1 31 l-7 25 -1 -24 c-1 -23 -2 -23 -20 -7 -11 10 -24
15 -29 12 -6 -3 -17 13 -26 35 l-17 42 -67 -7 c-37 -3 -175 -15 -307 -26 -304
-26 -307 -27 -321 -68 -5 -18 -13 -29 -17 -26 -4 4 -7 -8 -8 -27 0 -27 -2 -30
-8 -14 -5 11 -6 25 -3 30 3 7 1 7 -6 0 -6 -5 -12 -30 -14 -55 -3 -29 -9 -44
-17 -42 -9 2 -9 -3 -1 -19 7 -11 9 -23 6 -27 -3 -3 -6 0 -6 6 0 7 -4 12 -10
12 -5 0 -7 -6 -4 -14 7 -18 -24 -79 -36 -71 -4 3 -11 -1 -13 -7 -4 -10 -6 -10
-6 -1 -1 7 8 17 18 23 29 15 33 42 15 85 -11 27 -12 40 -4 45 6 4 8 15 3 26
-7 18 -6 18 20 1 l27 -17 0 34 c0 19 -4 37 -8 40 -5 3 -8 -3 -8 -12 1 -9 -3
-17 -9 -17 -11 0 -10 5 0 71 l7 41 -103 104 c-57 56 -103 106 -101 111 1 4 -2
7 -7 6 -5 -2 -43 33 -84 76 l-76 79 -90 -33 c-49 -17 -95 -29 -102 -24 -8 5
-10 3 -4 -6 6 -10 4 -12 -8 -7 -10 3 -17 2 -17 -2 0 -14 -83 -26 -88 -12 -2 6
-8 9 -13 6 -5 -4 -17 -1 -26 5 -16 10 -15 10 4 5 12 -3 25 -1 29 6 4 8 3 9 -4
5 -7 -4 -12 -3 -12 3 0 6 -8 8 -17 4 -16 -5 -16 -4 -3 10 8 8 76 40 150 72 74
31 144 60 155 66 21 10 76 143 110 264 9 33 41 127 72 210 62 171 63 153 -24
265 -24 30 -43 59 -43 64 0 7 39 75 66 114 7 11 44 -23 79 -72 22 -31 43 -56
48 -56 4 0 7 -6 7 -14 0 -7 7 -19 16 -26 12 -11 36 -10 132 9 155 29 374 58
494 67 l98 7 10 36 c21 79 70 312 69 328 0 10 -14 -38 -30 -107 -16 -69 -36
-152 -45 -186 l-15 -60 -143 -13 c-162 -13 -366 -43 -475 -68 l-74 -17 -19 25
c-11 13 -29 35 -41 49 -35 40 -87 113 -87 122 0 16 112 189 166 255 102 126
217 205 349 239 75 20 223 11 313 -20z m1866 -272 c9 -24 7 -46 -4 -39 -5 3
-10 1 -10 -5 0 -6 -5 -8 -12 -4 -6 4 -8 3 -5 -3 7 -11 -94 -112 -153 -153
-289 -205 -642 -283 -983 -217 -39 7 -40 24 -1 53 69 52 201 184 220 220 l19
35 137 -7 c198 -10 432 24 604 86 57 21 147 47 170 49 7 1 15 -6 18 -15z
m-6341 -55 l20 -35 -23 -32 c-13 -17 -27 -29 -31 -26 -5 3 -6 -2 -3 -10 6 -15
-18 -22 -49 -17 -5 1 -6 -3 -2 -9 5 -9 -15 -15 -38 -11 -5 1 -6 -3 -3 -8 3 -5
14 -7 24 -5 13 4 17 -1 17 -20 0 -15 -3 -26 -6 -26 -10 0 3 -105 14 -112 7 -4
8 -8 4 -8 -4 0 -3 -9 3 -20 8 -14 8 -26 0 -40 -9 -16 -8 -18 5 -14 9 4 15 3
14 -2 -3 -10 7 -54 22 -100 10 -35 3 -68 -14 -57 -6 3 -7 1 -3 -6 6 -9 11 -9
22 0 11 9 14 8 14 -4 0 -8 3 -24 7 -34 6 -16 5 -16 -10 -4 -10 8 -20 11 -24 7
-3 -3 -1 -6 5 -6 7 0 12 -7 12 -15 0 -8 4 -15 8 -15 16 0 32 -50 25 -82 -4
-22 -3 -29 6 -24 6 4 11 4 10 -1 -4 -25 4 -29 52 -27 l52 2 -27 -23 c-14 -12
-26 -30 -26 -38 0 -24 -47 -33 -69 -13 -25 23 -31 20 -31 -14 0 -16 5 -30 10
-30 15 0 12 -24 -6 -46 -8 -10 -13 -12 -9 -4 4 8 -1 6 -9 -4 -18 -23 -21 -40
-5 -31 6 4 1 -11 -10 -34 -23 -44 -32 -53 -24 -23 3 12 -1 19 -11 19 -8 0 -13
-4 -10 -8 3 -5 -3 -20 -12 -34 -10 -15 -14 -37 -12 -55 3 -17 1 -33 -4 -36 -4
-3 -8 -13 -8 -23 0 -9 -5 -22 -12 -29 -19 -19 -29 -89 -15 -116 6 -12 6 -16
-1 -12 -6 3 -17 -1 -25 -9 -22 -21 -29 -19 -15 4 7 11 16 17 20 15 4 -3 8 0 8
5 0 17 -15 13 -34 -8 -17 -18 -60 -26 -50 -9 3 4 0 8 -5 8 -6 0 -11 -4 -11 -9
0 -16 -59 -24 -76 -10 -19 16 1 31 31 23 13 -4 10 1 -10 16 -21 15 -24 20 -11
18 10 -2 21 3 23 10 3 8 -1 10 -13 5 -12 -4 -15 -3 -10 6 4 7 13 10 19 8 7 -2
21 3 31 12 11 9 16 10 12 4 -4 -8 -2 -13 4 -13 7 0 9 7 6 16 -9 23 3 56 16 48
8 -5 9 -1 5 10 -4 10 -1 24 8 33 8 8 13 19 9 24 -3 5 14 51 39 102 24 51 49
104 55 120 6 15 16 27 22 27 17 0 32 50 20 65 -5 6 -11 24 -12 39 -1 14 -6 26
-11 26 -4 0 -5 5 -2 10 3 6 2 10 -3 10 -6 0 -10 10 -10 23 0 12 -7 42 -17 67
-19 51 -28 85 -29 117 -1 11 -4 20 -7 18 -3 -2 -13 40 -23 93 -29 152 -18 141
-141 144 l-106 3 28 51 c52 94 39 87 121 68 40 -9 83 -13 96 -10 14 3 42 27
63 54 21 26 50 60 65 76 16 17 28 34 28 39 0 20 34 -1 53 -34z m1346 -349
c456 -75 768 -135 1081 -206 210 -48 321 -71 360 -76 l25 -3 0 -157 0 -156
-80 -14 c-115 -19 -522 -16 -695 6 -476 59 -796 152 -1172 338 -106 52 -158
84 -158 94 0 20 59 119 113 192 33 43 45 52 70 52 17 0 222 -32 456 -70z
m2296 -160 c-22 -74 -41 -94 -41 -45 0 22 3 30 8 22 6 -7 8 1 7 23 0 19 -1 51
0 70 l1 34 22 -21 21 -22 -18 -61z m-88 -212 c-3 -8 -6 -5 -6 6 -1 11 2 17 5
13 3 -3 4 -12 1 -19z m-3100 -42 c0 -8 -8 -11 -19 -8 -10 2 -15 8 -12 13 8 14
31 11 31 -5z m116 7 c-13 -2 -35 -2 -50 0 -16 2 -5 4 22 4 28 0 40 -2 28 -4z
m-247 -22 c-10 -11 -15 -25 -11 -30 4 -7 -5 -11 -24 -11 -17 0 -31 5 -31 10 0
6 9 10 20 10 31 0 23 17 -11 24 -55 11 -88 7 -106 -14 -18 -19 -19 -19 -21 5
l-2 25 102 0 c99 0 101 0 84 -19z m-132 -82 c67 -2 -18 -17 -103 -18 -98 -1
-105 8 -10 12 61 3 64 4 62 28 l-2 24 11 -22 c8 -16 20 -23 42 -24z m-557
-389 c4 -13 3 -13 -6 0 -8 11 -11 12 -11 2 0 -7 -4 -10 -10 -7 -5 3 -10 11
-10 16 0 16 33 6 37 -11z m26 -268 c-8 -5 -5 -23 13 -65 22 -55 22 -60 8 -83
-9 -13 -25 -24 -36 -24 -10 0 -17 -4 -14 -9 3 -5 -11 -16 -32 -24 -31 -13 -38
-13 -45 -1 -12 21 -37 17 -37 -5 0 -11 -4 -23 -10 -26 -5 -3 -10 1 -10 10 0
51 -69 125 -117 125 -17 1 -17 1 0 11 9 5 22 7 28 4 5 -4 29 6 51 22 23 15 73
38 112 49 75 23 110 29 89 16z m5040 -130 c-5 -12 -7 -12 -15 2 -11 20 1 44
12 25 5 -6 6 -19 3 -27z m-5273 -29 c19 -17 35 -44 40 -67 8 -38 7 -41 -44
-97 -28 -32 -69 -87 -90 -122 l-37 -65 -75 -11 c-41 -6 -98 -11 -126 -11 l-51
0 5 44 c11 95 106 251 195 320 40 31 54 36 99 36 44 0 59 -5 84 -27z m5306 0
c-2 -3 4 -25 14 -49 14 -32 16 -45 7 -50 -7 -4 -9 -3 -4 1 4 5 -1 17 -10 28
-10 10 -18 29 -19 41 -1 11 -5 30 -9 41 -8 18 -7 19 8 6 10 -8 15 -16 13 -18z
m-5009 -94 c23 -11 64 -45 91 -74 53 -58 139 -212 144 -260 l3 -29 -120 -18
c-211 -30 -408 -49 -475 -46 l-65 3 -3 33 c-11 114 128 320 259 386 64 31 108
33 166 5z m4097 -40 c-3 -5 -10 -7 -15 -3 -5 3 -7 10 -3 15 3 5 10 7 15 3 5
-3 7 -10 3 -15z m1210 -111 c9 -12 16 -18 16 -13 0 7 84 -77 125 -125 42 -50
88 -170 98 -260 l6 -45 -24 49 c-13 28 -21 54 -18 59 3 6 1 7 -5 3 -7 -4 -24
5 -39 19 -53 49 -58 53 -98 74 -78 42 -147 22 -232 -66 -57 -60 -111 -159
-135 -247 -7 -26 -19 -51 -28 -56 -19 -10 -151 -32 -157 -27 -2 3 -7 27 -12
54 -7 44 -30 95 -86 188 -20 34 -91 92 -144 117 -126 61 -301 -40 -385 -222
-17 -37 -26 -74 -27 -110 0 -30 -2 -50 -5 -45 -2 6 -23 9 -47 7 -23 -1 -68 3
-100 10 l-59 13 -41 105 c-42 106 -91 192 -127 225 -19 17 -19 18 3 35 41 32
233 119 354 159 281 94 675 116 838 47 69 -29 115 -35 96 -12 -7 8 -31 18 -53
21 -55 10 -36 19 77 39 183 32 190 32 209 4z m38 -263 c37 -15 103 -78 143
-136 72 -107 89 -365 26 -399 -34 -18 -214 45 -401 140 -97 50 -96 48 -75 111
28 85 72 167 118 216 75 82 119 98 189 68z m-1620 -28 c24 -18 60 -57 80 -87
40 -59 98 -196 98 -230 0 -17 -23 -32 -127 -82 -218 -102 -362 -141 -392 -104
-17 21 -25 172 -12 240 15 82 51 153 104 208 92 94 173 112 249 55z m836 -7
c58 -26 144 -116 178 -187 56 -113 33 -203 -92 -370 -66 -88 -102 -110 -153
-94 -74 22 -253 189 -287 268 -30 69 -11 158 52 246 44 61 81 93 147 130 59
32 96 34 155 7z"/>
<path d="M5669 10906 c-80 -32 -248 -139 -416 -262 l-71 -53 10 -43 c5 -24 15
-83 23 -133 8 -58 13 -76 14 -50 1 22 -6 77 -16 123 l-16 84 24 21 c50 45 321
219 406 260 79 38 97 42 174 45 60 3 119 -3 192 -17 127 -25 139 -25 67 -1
-161 56 -298 65 -391 26z"/>
<path d="M4240 10884 c0 -14 39 -133 57 -173 16 -35 20 -90 8 -113 -3 -7 1 -4
9 6 22 27 21 28 -24 162 -37 110 -50 140 -50 118z"/>
<path d="M6355 10864 c-22 -13 -35 -24 -30 -24 12 0 75 38 75 45 0 6 2 7 -45
-21z"/>
<path d="M6041 10835 c94 -49 180 -177 216 -323 20 -79 33 -93 33 -34 -1 78
-66 225 -138 308 -29 34 -99 74 -129 74 -26 -1 -24 -3 18 -25z"/>
<path d="M6133 10849 c10 -6 53 -12 95 -14 l77 -4 -69 9 c-38 5 -81 11 -95 14
-22 5 -23 5 -8 -5z"/>
<path d="M4377 10591 c-34 -42 -38 -53 -9 -27 l32 30 302 -13 c396 -16 394
-16 402 -53 9 -46 48 -169 52 -165 7 6 -47 192 -59 203 -12 12 -349 34 -585
38 -100 2 -125 -1 -135 -13z"/>
<path d="M4268 10543 c-29 -43 -54 -92 -68 -128 -15 -41 -3 -29 19 18 11 23
33 66 50 95 36 60 35 70 -1 15z"/>
<path d="M5796 10569 c-44 -10 -176 -79 -176 -91 0 -4 -7 -8 -17 -8 -9 0 -14
-3 -11 -6 3 -3 -17 -26 -44 -52 -90 -84 -169 -227 -207 -377 -43 -171 -47
-403 -7 -443 10 -11 54 -17 153 -23 76 -5 201 -15 278 -24 282 -31 278 -32
312 1 61 58 92 179 99 389 5 138 3 174 -15 261 -24 118 -63 220 -110 288 -56
80 -146 110 -255 85z m150 -40 c62 -23 131 -139 172 -288 24 -87 26 -113 26
-276 0 -191 -13 -274 -55 -361 -29 -61 -56 -69 -170 -49 -51 8 -95 18 -97 20
-3 3 7 31 21 62 58 130 84 331 67 515 -16 162 -50 260 -117 329 -39 41 -36 47
35 58 47 8 77 5 118 -10z m-281 -153 c92 -92 -21 -372 -138 -342 -50 12 -70
39 -75 99 -4 47 0 66 25 119 35 75 104 148 140 148 13 0 35 -11 48 -24z"/>
<path d="M4315 10504 c-9 -15 -12 -23 -6 -20 11 7 35 46 28 46 -3 0 -12 -12
-22 -26z"/>
<path d="M6838 10343 c12 -2 30 -2 40 0 9 3 -1 5 -23 4 -22 0 -30 -2 -17 -4z"/>
<path d="M6721 10329 c-25 -5 -49 -13 -55 -19 -8 -8 -6 -9 8 -4 11 4 47 13 80
19 34 7 50 13 36 13 -14 0 -45 -4 -69 -9z"/>
<path d="M6626 10230 c-22 -56 -19 -65 5 -11 11 24 18 46 15 48 -2 2 -11 -14
-20 -37z"/>
<path d="M6592 10145 c-7 -14 -12 -31 -12 -38 1 -7 7 3 16 22 17 39 13 54 -4
16z"/>
<path d="M6556 10055 c-9 -26 -7 -32 5 -12 6 10 9 21 6 23 -2 3 -7 -2 -11 -11z"/>
<path d="M6516 9955 c-9 -26 -7 -32 5 -12 6 10 9 21 6 23 -2 3 -7 -2 -11 -11z"/>
<path d="M6486 9886 c-23 -49 -19 -59 5 -13 11 22 18 41 16 43 -2 3 -12 -11
-21 -30z"/>
<path d="M6383 9843 c9 -2 23 -2 30 0 6 3 -1 5 -18 5 -16 0 -22 -2 -12 -5z"/>
<path d="M6330 9766 c3 -2 25 -9 49 -15 24 -5 39 -6 35 -1 -10 8 -92 25 -84
16z"/>
<path d="M6460 9720 c0 -5 5 -10 11 -10 5 0 7 5 4 10 -3 6 -8 10 -11 10 -2 0
-4 -4 -4 -10z"/>
<path d="M3990 9415 c0 -3 14 -33 30 -66 29 -56 53 -80 67 -65 9 9 -19 88 -41
114 -17 19 -56 31 -56 17z"/>
<path d="M4535 9363 c-52 -26 -106 -114 -65 -105 8 2 23 4 32 5 9 1 15 3 13 6
-3 2 17 17 44 32 47 27 67 52 55 70 -8 13 -45 10 -79 -8z"/>
<path d="M6686 9063 c-6 -14 -5 -15 5 -6 7 7 10 15 7 18 -3 3 -9 -2 -12 -12z"/>
<path d="M8015 7225 c-108 -31 -142 -43 -128 -44 11 -1 168 41 223 59 57 19
-18 7 -95 -15z"/>
<path d="M8225 7183 c-118 -28 -471 -135 -506 -153 -9 -5 -19 -24 -22 -42 -77
-501 -78 -512 -57 -532 8 -8 65 -40 125 -71 61 -32 157 -82 214 -112 l104 -56
231 62 c127 34 244 65 260 69 33 8 34 11 65 162 26 124 45 283 37 314 -9 37
-187 212 -298 294 -93 69 -108 76 -153 65z"/>
<path d="M7450 7115 c36 -20 82 -42 103 -51 43 -19 43 -17 21 -164 -31 -209
-60 -450 -54 -450 3 0 14 66 24 148 9 81 26 199 37 263 31 191 35 179 -75 238
-51 28 -100 51 -107 51 -8 0 15 -16 51 -35z"/>
<path d="M7444 6378 l-19 -23 23 19 c21 18 27 26 19 26 -2 0 -12 -10 -23 -22z"/>
<path d="M7499 6297 c-46 -41 -95 -87 -109 -103 -14 -16 18 10 70 56 136 122
120 114 179 90 56 -22 71 -19 18 4 -72 30 -69 31 -158 -47z"/>
<path d="M7700 6315 c0 -2 27 -18 60 -35 33 -17 60 -28 60 -25 0 2 -27 18 -60
35 -33 17 -60 28 -60 25z"/>
<path d="M7846 6235 c10 -8 24 -14 29 -14 6 0 1 6 -9 14 -11 8 -24 15 -30 15
-5 0 -1 -7 10 -15z"/>
<path d="M7905 6205 c11 -9 41 -27 67 -41 26 -13 49 -27 52 -32 4 -7 -7 -97
-30 -232 -3 -19 -3 -32 1 -29 3 4 14 62 25 130 22 144 24 139 -73 189 -34 17
-53 24 -42 15z"/>
<path d="M8488 6213 c6 -2 18 -2 25 0 6 3 1 5 -13 5 -14 0 -19 -2 -12 -5z"/>
<path d="M8290 6174 c-80 -19 -149 -35 -154 -37 -5 -2 -26 -69 -46 -150 -20
-81 -33 -144 -29 -140 8 9 33 95 54 188 22 98 13 91 163 125 168 38 204 48
177 48 -11 1 -85 -15 -165 -34z"/>
<path d="M8830 6156 c0 -2 8 -10 18 -17 15 -13 16 -12 3 4 -13 16 -21 21 -21
13z"/>
<path d="M7302 6114 c-7 -8 -8 -14 -3 -14 10 0 25 19 20 25 -2 1 -10 -3 -17
-11z"/>
<path d="M4094 7065 c-10 -8 -14 -15 -8 -15 6 0 17 7 24 15 16 19 9 19 -16 0z"/>
<path d="M3968 6977 c-117 -88 -209 -165 -231 -193 -12 -16 -19 -62 -27 -185
-15 -241 -13 -346 5 -353 12 -4 13 -2 3 13 -9 14 -8 78 1 262 l12 244 42 41
c38 36 185 154 225 179 21 13 78 65 72 65 -3 0 -48 -33 -102 -73z"/>
<path d="M9482 4431 c-13 -79 -21 -146 -18 -148 3 -3 7 10 10 28 30 184 37
231 34 246 -2 10 -13 -47 -26 -126z"/>
<path d="M9450 4258 c0 -7 -3 -29 -6 -49 -5 -28 -2 -41 12 -56 11 -10 53 -70
94 -132 41 -62 76 -109 78 -103 4 13 -37 82 -50 82 -5 0 -6 5 -3 10 3 6 2 10
-4 10 -5 0 -20 18 -32 40 -13 22 -26 40 -31 40 -4 0 -8 5 -8 11 0 6 -11 24
-25 41 -21 25 -24 36 -18 73 3 25 3 45 -1 45 -3 0 -6 -6 -6 -12z"/>
<path d="M9140 4048 c-326 -50 -495 -79 -501 -86 -4 -4 -37 -92 -74 -197 -37
-104 -81 -224 -97 -265 -51 -128 -51 -124 -9 -172 21 -24 40 -51 44 -60 3 -10
11 -18 16 -18 14 0 60 -47 53 -54 -3 -3 0 -6 7 -6 7 0 54 -44 106 -97 l94 -96
188 12 c238 15 455 41 469 55 6 6 35 56 63 110 29 55 60 105 69 112 9 7 14 16
10 19 -4 4 2 25 12 46 11 21 20 44 20 51 0 7 14 42 30 76 17 35 30 72 30 83 0
22 -87 166 -222 368 l-93 141 -45 -1 c-25 -1 -101 -10 -170 -21z"/>
<path d="M4647 4085 c-4 -8 -1 -17 5 -21 7 -4 8 -3 4 4 -4 7 -2 12 3 12 6 0
11 5 11 10 0 15 -17 12 -23 -5z"/>
<path d="M4681 3974 c0 -11 3 -14 6 -6 3 7 2 16 -1 19 -3 4 -6 -2 -5 -13z"/>
<path d="M4713 3813 c0 -20 3 -30 7 -23 6 9 9 9 13 -1 4 -10 6 -9 6 3 1 9 -4
20 -9 23 -6 4 -8 10 -5 15 3 5 2 11 -3 14 -4 2 -8 -11 -9 -31z"/>
<path d="M4811 3723 c10 -11 10 -14 2 -9 -9 5 -13 0 -13 -13 0 -22 33 -30 45
-11 4 6 -1 7 -12 3 -15 -5 -16 -3 -6 7 13 14 1 40 -19 40 -6 0 -4 -8 3 -17z"/>
<path d="M4681 3537 c-9 -12 -8 -16 3 -20 19 -7 32 11 19 24 -6 6 -14 5 -22
-4z"/>
<path d="M4740 3500 c0 -5 5 -10 10 -10 6 0 10 5 10 10 0 6 -4 10 -10 10 -5 0
-10 -4 -10 -10z"/>
<path d="M4653 3488 c-4 -7 -9 -24 -11 -38 -2 -14 -10 -32 -18 -41 -12 -14
-13 -18 -2 -21 11 -4 10 -8 -1 -21 -7 -10 -9 -17 -3 -17 13 0 23 26 16 45 -5
11 -2 13 10 9 9 -3 16 -1 16 5 0 6 9 11 20 11 17 0 20 6 17 34 -1 26 -5 32
-15 24 -7 -6 -16 -8 -19 -4 -4 4 -1 11 7 16 9 6 10 10 3 10 -6 0 -15 -6 -20
-12z"/>
<path d="M4640 3259 c0 -5 5 -7 10 -4 6 3 10 8 10 11 0 2 -4 4 -10 4 -5 0 -10
-5 -10 -11z"/>
<path d="M4510 3204 c0 -13 28 -29 53 -31 22 -2 26 1 18 11 -6 7 -9 15 -7 17
2 2 -11 5 -30 6 -19 1 -34 0 -34 -3z"/>
</g>
</svg>
