<?xml version="1.0" standalone="no"?>
<!DOCTYPE svg PUBLIC "-//W3C//DTD SVG 20010904//EN"
 "http://www.w3.org/TR/2001/REC-SVG-20010904/DTD/svg10.dtd">
<svg version="1.0" xmlns="http://www.w3.org/2000/svg"
 width="1328.000000pt" height="1328.000000pt" viewBox="0 0 1328.000000 1328.000000"
 preserveAspectRatio="xMidYMid meet">
<metadata>
Created by potrace 1.16, written by Peter Selinger 2001-2019
</metadata>
<g transform="translate(0.000000,1328.000000) scale(0.100000,-0.100000)"
fill="#000000" stroke="none">
<path d="M9530 13270 c0 -5 -7 -6 -17 -3 -11 4 -14 3 -9 -6 5 -7 8 -29 8 -49
0 -20 7 -45 15 -54 18 -21 11 -106 -10 -121 -9 -7 -9 -10 1 -14 10 -4 9 -11
-4 -31 -9 -15 -23 -31 -31 -35 -7 -4 -13 -21 -13 -37 0 -25 -4 -29 -32 -32
-29 -3 -30 -4 -16 -19 16 -16 14 -69 -3 -69 -5 0 -9 -8 -9 -17 -1 -17 -1 -17
-11 0 -10 18 -12 18 -30 1 -24 -21 -24 -26 1 -54 24 -27 25 -34 6 -49 -10 -8
-16 -9 -21 -1 -8 13 -38 13 -70 -2 -18 -8 -25 -19 -25 -39 0 -15 6 -30 13 -32
10 -4 10 -6 0 -6 -18 -1 -16 -28 3 -35 27 -10 34 -7 34 19 0 26 7 31 45 37 14
2 19 -2 16 -12 -2 -8 -5 -24 -6 -35 -2 -34 -34 -72 -65 -79 -23 -4 -28 -9 -23
-22 4 -10 0 -22 -9 -28 -16 -11 -18 -17 -18 -40 0 -7 -9 -16 -20 -19 -13 -3
-20 -14 -20 -30 0 -13 -11 -36 -24 -50 -26 -28 -39 -74 -22 -80 15 -6 2 -18
-21 -20 -22 -1 -17 -15 25 -74 25 -36 29 -55 7 -47 -15 6 -21 -20 -17 -70 2
-14 -2 -16 -15 -10 -29 13 -111 17 -93 5 10 -7 11 -11 3 -11 -19 0 -15 -42 6
-70 19 -24 19 -25 1 -61 l-19 -36 25 -12 c35 -15 64 -14 64 4 0 31 47 9 69
-32 6 -13 20 -23 31 -23 10 0 23 -7 28 -16 10 -19 32 -11 32 12 0 8 4 14 9 14
5 0 15 16 21 35 6 19 18 35 25 35 8 0 26 21 41 48 16 26 37 56 48 68 27 27 90
48 122 40 33 -9 21 -26 -17 -26 -41 0 -125 -62 -113 -82 6 -10 -33 -68 -58
-86 -22 -16 -24 -52 -2 -52 11 0 14 -6 8 -22 -8 -27 -36 -67 -46 -68 -5 0 -8
-25 -8 -55 0 -43 4 -58 22 -75 l23 -21 -24 -18 c-25 -19 -24 -54 1 -49 32 7
-24 -112 -71 -150 -9 -7 -21 -27 -27 -45 -10 -29 -15 -32 -53 -34 -33 -1 -47
4 -70 27 -16 16 -26 33 -22 37 3 4 -1 2 -10 -5 -9 -7 -23 -10 -31 -7 -8 3 -27
-1 -42 -9 -27 -14 -61 -12 -52 3 3 4 -6 8 -20 9 -22 2 -24 -2 -24 -43 0 -33
-4 -45 -15 -45 -10 0 -15 10 -15 30 0 17 -5 30 -11 30 -6 0 -9 6 -6 14 5 11 0
13 -25 5 -17 -4 -35 -6 -39 -3 -10 6 -69 -23 -69 -34 0 -5 5 -13 12 -20 7 -7
9 -12 5 -12 -4 0 0 -14 8 -31 19 -36 38 -33 46 7 4 16 7 25 8 19 1 -5 5 -4 10
4 12 18 35 -63 26 -88 -3 -9 -6 -18 -6 -21 0 -9 -42 -50 -52 -50 -5 0 -16 -8
-23 -17 -12 -16 -13 -16 -14 -2 0 14 -6 15 -32 9 -52 -12 -65 -20 -76 -43 -6
-12 -11 -17 -11 -10 -1 6 -9 9 -20 6 -13 -3 -17 -11 -14 -24 3 -11 -1 -21 -11
-25 -9 -3 -16 -12 -16 -20 0 -8 -9 -23 -20 -34 -19 -19 -19 -27 -5 -82 6 -22
4 -28 -9 -28 -9 0 -16 6 -16 14 0 8 -5 18 -11 22 -7 4 -9 0 -5 -14 4 -11 9
-30 11 -43 6 -30 36 -63 46 -48 3 6 4 20 1 32 -3 14 -1 18 6 13 8 -4 12 0 13
11 0 10 7 -3 15 -29 8 -27 19 -48 23 -48 5 0 8 -8 6 -17 -1 -10 1 -22 5 -28 5
-5 10 -21 12 -35 1 -14 8 -25 13 -25 6 0 15 -3 21 -7 6 -4 16 3 22 17 7 14 16
25 22 25 19 0 43 30 46 56 3 27 21 54 35 54 5 0 9 -12 9 -27 -1 -27 -1 -28
-17 -8 -15 19 -15 19 -8 -5 24 -89 23 -106 -7 -101 -14 1 -46 -81 -39 -101 9
-24 -17 -88 -35 -88 -7 0 -14 -7 -18 -15 -7 -19 3 -47 15 -39 13 8 11 -1 -8
-41 -20 -41 -26 -43 -47 -13 -21 29 -21 68 0 68 9 0 14 7 12 18 -2 9 -12 17
-23 17 -17 0 -20 7 -19 39 1 21 7 42 14 46 15 9 5 63 -15 84 -11 10 -25 11
-67 4 -29 -5 -56 -15 -61 -21 -5 -9 -12 -7 -22 7 -17 22 -38 16 -60 -18 -16
-25 -16 -28 15 -82 28 -50 30 -58 16 -66 -13 -7 -13 -12 -3 -22 6 -8 15 -12
20 -9 4 2 7 -21 7 -51 0 -44 4 -58 19 -68 10 -6 17 -17 15 -23 -3 -7 11 -28
31 -48 29 -29 35 -42 35 -76 0 -35 4 -43 30 -56 29 -15 114 -20 144 -9 9 3 16
14 16 25 0 10 9 23 19 29 26 13 87 13 110 -2 16 -10 25 -4 67 40 30 31 61 54
80 58 27 5 30 3 32 -25 1 -17 -2 -31 -7 -31 -14 0 -21 -44 -8 -52 6 -4 10 -23
9 -42 -2 -20 -1 -44 3 -55 8 -27 75 -65 88 -52 18 18 31 13 52 -19 11 -16 25
-30 31 -30 6 0 24 -12 39 -26 15 -14 34 -23 41 -20 16 6 19 56 4 56 -15 0 -7
24 10 32 26 12 50 9 44 -6 -3 -7 2 -16 10 -19 9 -4 16 -14 16 -24 0 -15 -2
-16 -10 -3 -6 10 -9 -2 -8 -42 2 -78 20 -66 49 32 13 45 27 76 32 73 6 -4 7
-1 3 6 -12 19 3 78 21 85 9 4 20 1 25 -6 4 -7 8 -8 8 -3 0 6 5 2 11 -8 8 -13
18 -17 35 -13 13 4 24 3 24 -1 -1 -18 -17 -31 -46 -37 -33 -7 -69 -48 -79 -89
-5 -20 -2 -28 15 -37 17 -9 24 -9 30 -1 7 12 67 -66 62 -81 -3 -11 56 -10 60
0 2 5 16 15 32 23 24 12 36 24 53 57 1 2 10 1 20 -2 14 -5 18 -15 17 -53 -3
-79 -2 -76 -26 -59 -30 22 -55 20 -61 -4 -7 -27 13 -48 48 -52 25 -2 29 -7 27
-25 -2 -15 2 -23 12 -23 9 0 18 -10 21 -23 6 -22 35 -34 35 -15 0 4 9 8 21 8
17 0 20 -5 18 -32 -2 -18 -7 -38 -11 -45 -5 -6 -5 -14 1 -17 5 -3 7 -15 4 -26
-4 -14 0 -20 12 -20 12 0 15 5 10 20 -5 14 -2 20 10 20 9 0 16 7 14 18 -1 9
-1 22 0 28 1 14 41 26 41 13 0 -5 6 -8 13 -6 6 1 12 -7 12 -17 0 -11 5 -21 12
-23 7 -3 10 -10 7 -17 -3 -8 2 -30 10 -50 13 -31 13 -36 1 -36 -8 0 -21 15
-29 34 -10 25 -20 34 -35 33 -12 -1 -21 -4 -21 -8 0 -4 -3 -16 -6 -26 -5 -15
-4 -15 5 -3 9 12 11 10 11 -13 0 -31 27 -48 40 -26 15 23 24 1 12 -26 -17 -36
-15 -40 13 -43 14 -1 28 5 34 16 6 9 11 12 11 5 0 -7 11 -13 25 -13 20 0 25
-5 25 -25 0 -18 5 -25 20 -25 15 0 19 -6 17 -27 -1 -16 -6 -33 -12 -40 -5 -7
-16 -19 -23 -28 -9 -10 -10 -20 -3 -34 13 -23 5 -31 -28 -32 -26 -1 -26 -1 4
-12 17 -7 40 -18 52 -25 l23 -12 -38 -40 c-20 -22 -50 -55 -65 -74 -28 -35
-28 -35 -8 -48 12 -7 21 -21 21 -31 0 -10 4 -16 9 -13 10 6 23 -33 15 -46 -10
-16 -100 -7 -179 17 -44 14 -87 25 -95 25 -8 0 -42 18 -75 40 -33 22 -70 40
-82 40 -12 0 -27 8 -32 18 -6 9 -11 12 -11 6 0 -6 -24 -11 -57 -12 -32 0 -83
-8 -113 -17 -30 -8 -73 -18 -95 -22 -22 -3 -44 -9 -50 -13 -5 -4 -40 -15 -77
-24 -80 -20 -168 -19 -168 1 0 24 27 43 59 43 38 0 39 11 6 45 -31 30 -26 30
-72 5 -21 -11 -48 -20 -61 -20 -77 0 -193 -115 -183 -182 0 -4 -6 -5 -14 -2
-15 6 -92 -66 -179 -169 -118 -138 -193 -204 -331 -292 -47 -30 -359 -295
-395 -335 -7 -8 -155 -120 -209 -158 -25 -18 -102 -61 -171 -95 -119 -59 -130
-67 -240 -177 -99 -100 -133 -126 -245 -192 -154 -91 -177 -101 -275 -122 -41
-8 -97 -22 -125 -31 -27 -8 -79 -22 -114 -30 -36 -9 -105 -37 -155 -64 -50
-27 -111 -56 -136 -64 -25 -9 -83 -33 -130 -55 -47 -21 -123 -51 -170 -67 -47
-15 -92 -30 -100 -33 -8 -3 -20 -4 -27 -3 -6 1 -14 -7 -18 -18 -3 -11 -24 -37
-46 -59 -35 -36 -38 -43 -29 -66 5 -15 16 -29 24 -32 29 -11 29 -64 1 -64 -16
0 -1 -66 21 -91 16 -18 19 -43 4 -34 -6 4 -10 -5 -10 -19 0 -14 4 -26 9 -26 5
0 12 -18 16 -40 4 -22 11 -38 16 -34 5 3 7 10 4 15 -4 5 3 9 13 9 11 0 22 -7
26 -15 3 -9 0 -15 -9 -15 -22 0 -18 -16 10 -45 24 -23 36 -29 51 -22 8 3 43
-76 38 -85 -7 -10 -34 2 -34 15 0 6 -7 1 -16 -11 -14 -21 -14 -25 1 -48 22
-33 13 -69 -27 -111 -20 -20 -32 -45 -35 -68 -4 -37 -25 -81 -51 -102 -10 -8
-11 -16 -3 -30 8 -16 4 -25 -25 -52 -18 -18 -34 -38 -34 -46 0 -23 43 -25 86
-3 43 21 53 21 129 -3 22 -7 66 -12 99 -12 55 1 61 3 102 44 24 24 44 52 44
62 0 17 5 19 33 14 23 -3 39 1 56 14 25 21 51 25 51 9 0 -19 39 -10 71 17 l32
27 36 -41 c20 -23 55 -51 78 -62 34 -17 43 -28 49 -55 3 -20 23 -54 45 -78 30
-34 35 -44 22 -47 -27 -5 -41 -25 -32 -46 14 -37 9 -52 -21 -65 -16 -7 -30
-16 -30 -21 0 -5 -11 -9 -26 -9 -19 0 -28 -8 -40 -35 -9 -22 -23 -37 -39 -41
-14 -3 -26 -11 -26 -18 -1 -6 -3 -23 -5 -38 -1 -16 1 -28 5 -28 5 0 12 -15 15
-34 4 -20 17 -41 32 -52 15 -11 31 -24 38 -30 6 -6 28 -17 49 -23 25 -8 38
-20 41 -34 3 -12 7 -35 11 -50 3 -16 17 -40 31 -54 13 -13 31 -35 40 -48 14
-21 13 -26 -5 -56 -12 -19 -21 -44 -21 -57 0 -13 -4 -20 -10 -17 -5 3 -10 1
-10 -4 0 -17 56 -13 71 5 24 29 52 33 72 11 17 -20 23 -47 10 -47 -16 0 -11
-49 6 -54 31 -10 275 -26 395 -26 67 0 139 -5 161 -11 22 -5 111 -13 198 -17
134 -7 161 -11 185 -29 28 -20 104 -38 317 -72 66 -11 152 -25 190 -31 39 -6
80 -13 92 -15 12 -2 27 3 34 11 12 15 30 4 41 -28 7 -17 56 -28 139 -31 24 -1
52 -9 61 -17 9 -8 43 -21 75 -29 32 -7 81 -28 109 -47 28 -19 58 -34 67 -34 8
0 22 -6 29 -13 7 -7 29 -19 48 -27 19 -8 46 -25 60 -37 14 -13 32 -26 42 -28
9 -3 19 -13 22 -21 6 -16 -17 -30 -34 -19 -5 3 -10 -1 -10 -9 0 -10 16 -19 43
-26 23 -6 48 -13 55 -15 15 -5 16 7 1 22 -9 9 -6 13 14 18 49 13 62 3 59 -43
-1 -24 2 -42 8 -42 5 0 10 -9 10 -21 0 -23 20 -47 36 -42 20 7 53 -32 47 -55
-5 -22 -43 -32 -43 -12 0 13 -37 13 -45 0 -3 -5 -1 -10 6 -10 7 0 -1 -11 -17
-25 -16 -14 -33 -25 -38 -25 -5 0 -37 -11 -70 -24 -65 -26 -83 -29 -157 -27
-34 1 -49 6 -53 18 -10 26 13 34 94 32 41 -1 83 -1 93 0 29 2 19 19 -15 26
-43 9 -88 28 -88 37 0 5 14 8 30 8 17 0 30 5 30 10 0 6 5 10 11 10 5 0 8 -4 5
-9 -7 -11 121 -24 137 -14 14 9 -42 20 -153 29 -75 7 -96 13 -72 21 6 3 12 8
12 13 0 13 -53 30 -78 26 -21 -5 -72 33 -72 53 0 5 -10 9 -22 8 -13 0 -27 1
-33 2 -22 7 -56 0 -50 -9 4 -6 11 -8 16 -5 5 4 9 1 9 -5 0 -6 4 -9 9 -5 5 3
12 1 16 -5 3 -5 1 -10 -4 -10 -6 0 -10 -6 -9 -12 2 -8 -9 -14 -24 -16 -16 -2
-28 -8 -28 -13 0 -5 -5 -9 -11 -9 -5 0 -7 5 -4 11 5 7 -7 9 -36 7 -43 -3 -69
-28 -30 -28 12 0 21 -4 21 -8 0 -5 18 -15 40 -22 27 -9 39 -18 36 -27 -3 -7
-1 -13 4 -13 6 0 10 7 10 15 0 18 62 30 86 17 15 -8 12 -12 -21 -21 -30 -8
-41 -8 -47 2 -5 8 -8 7 -8 -5 0 -19 -25 -25 -35 -8 -3 6 -18 10 -32 10 -14 0
-32 8 -39 18 -10 14 -15 15 -25 4 -19 -18 -73 -16 -66 3 8 19 -11 31 -26 16
-9 -9 -8 -14 3 -21 12 -7 8 -11 -17 -16 -35 -7 -46 -34 -14 -34 11 0 27 -7 35
-16 12 -12 16 -12 16 -2 0 11 2 11 9 0 5 -9 22 -11 52 -8 24 3 46 2 49 -3 3
-5 27 -3 55 4 43 11 47 11 30 -1 -10 -8 -28 -14 -39 -15 -21 0 -21 -1 -1 -8
11 -5 27 -6 35 -3 21 8 40 29 33 36 -4 3 4 6 16 6 12 0 24 -6 27 -14 3 -8 15
-17 27 -20 39 -11 -3 -26 -52 -19 -30 4 -42 3 -38 -4 13 -20 -26 -23 -90 -7
-51 13 -71 14 -90 5 -13 -6 -29 -8 -35 -5 -7 5 -8 2 -3 -6 6 -10 4 -12 -9 -7
-10 4 -19 1 -22 -8 -8 -19 -38 -19 -54 0 -9 10 -9 15 -1 15 6 0 11 4 11 10 0
5 -6 7 -14 4 -8 -3 -17 -1 -21 5 -3 6 -11 11 -16 11 -6 0 -8 -4 -5 -8 2 -4 -7
-9 -22 -10 -25 -1 -26 0 -9 12 16 12 16 16 3 29 -13 13 -12 16 9 27 14 7 22
17 19 22 -3 4 -10 6 -15 2 -6 -3 -13 4 -16 16 -4 14 -8 18 -13 10 -5 -8 -11
-7 -23 4 -17 18 -32 22 -22 6 5 -8 -52 -4 -63 5 -8 7 -9 46 -1 51 6 3 5 12 -3
22 -11 13 -11 14 1 7 19 -11 71 -12 64 -2 -3 5 11 7 30 6 19 -2 42 3 51 10 9
7 35 15 58 16 24 2 56 8 71 14 16 6 36 11 45 12 9 1 1 5 -18 10 -27 6 -38 4
-46 -7 -9 -11 -13 -12 -16 -3 -2 7 -21 13 -41 13 -24 1 -37 6 -37 14 0 10 10
12 41 7 40 -7 41 -7 29 15 -7 12 -21 25 -31 27 -10 3 -19 11 -19 19 0 10 5 10
27 -1 15 -8 30 -12 35 -9 4 3 11 -3 15 -13 6 -17 37 -53 46 -53 2 0 4 7 4 15
0 8 -4 15 -9 15 -4 0 -8 5 -8 11 0 5 5 7 10 4 6 -3 20 -3 31 0 20 7 20 7 2 25
-23 21 -74 34 -121 31 -20 -1 -31 2 -27 8 3 6 12 8 20 4 8 -3 15 -1 15 5 0 5
-10 12 -22 16 -27 7 -78 7 -61 -1 9 -3 10 -10 3 -22 -17 -33 -90 -5 -90 34 0
15 1 15 16 1 19 -20 30 -20 38 -1 3 8 0 15 -5 15 -6 0 -9 9 -6 19 3 12 -1 22
-12 26 -14 6 -12 9 9 27 l25 21 -31 -6 c-18 -3 -36 -1 -42 5 -8 8 -15 8 -26
-1 -20 -17 -41 -4 -25 15 9 11 7 14 -15 14 -14 0 -26 4 -26 9 0 12 -50 20 -74
12 -19 -7 -19 -8 0 -16 10 -4 32 -9 47 -10 16 -2 33 -7 38 -12 6 -6 -1 -9 -18
-8 -15 1 -20 0 -10 -2 36 -9 7 -18 -47 -15 -31 2 -54 8 -50 13 3 5 -5 9 -18
10 -23 1 -23 1 2 10 23 8 22 8 -7 6 -20 -2 -34 2 -37 10 -3 7 -1 13 4 13 6 0
10 4 10 9 0 6 -8 10 -17 9 -29 0 -105 13 -158 28 -37 10 -93 13 -216 9 -166
-4 -166 -4 -179 19 -9 18 -24 25 -64 30 -82 11 -100 17 -84 28 9 7 7 8 -9 5
-13 -3 -24 1 -27 10 -10 25 -7 31 17 36 12 3 0 4 -27 3 -30 0 -51 -6 -54 -13
-2 -7 3 -13 12 -13 8 0 17 -4 21 -9 3 -6 -17 -10 -47 -10 -29 0 -69 0 -88 -1
-32 -2 -33 -2 -10 -10 14 -4 44 -8 68 -9 31 -1 42 -5 42 -17 0 -10 5 -14 16
-10 8 3 12 2 9 -4 -8 -13 -71 -13 -96 0 -10 6 -56 12 -101 15 -52 2 -82 8 -80
14 1 6 -8 11 -21 11 -13 0 -28 5 -35 12 -6 6 -15 9 -19 5 -4 -4 -2 -12 4 -18
8 -8 8 -18 1 -34 -7 -16 -6 -29 3 -46 7 -13 13 -28 14 -34 0 -5 13 -11 29 -13
24 -3 28 -1 22 14 -6 15 -1 16 55 10 34 -3 83 -6 108 -7 33 0 40 -3 26 -8 -22
-9 -12 -11 145 -32 47 -6 89 -14 95 -18 9 -7 175 -34 200 -32 6 0 25 4 43 7
22 4 38 2 50 -9 9 -8 31 -17 47 -20 63 -12 90 -21 103 -34 7 -7 32 -16 55 -20
33 -5 37 -8 22 -14 -27 -10 -75 -11 -75 -1 0 4 -21 14 -47 20 -26 7 -62 20
-81 29 -29 14 -35 14 -43 2 -7 -11 -9 -11 -9 -1 0 8 -6 12 -12 9 -7 -2 -21 0
-30 5 -10 5 -59 10 -109 12 -51 3 -95 9 -98 15 -4 5 -18 11 -33 13 -15 2 -30
7 -34 10 -3 4 -27 4 -53 1 -36 -4 -60 0 -96 16 -27 12 -76 24 -110 28 -33 3
-65 10 -72 15 -16 13 -36 0 -29 -18 4 -9 -2 -15 -17 -16 -12 -1 -31 -3 -42 -4
-11 -1 -26 -2 -34 -3 -8 -1 -11 -7 -7 -17 3 -8 2 -12 -4 -9 -6 3 -10 2 -10 -4
0 -6 12 -17 28 -25 15 -8 21 -15 13 -16 -18 0 -7 -57 16 -82 10 -11 11 -18 5
-18 -19 0 -14 -18 7 -25 27 -8 54 4 41 20 -13 16 -3 25 31 25 30 0 48 -28 27
-42 -16 -10 -7 -11 87 -9 42 0 86 -5 110 -14 22 -9 48 -18 58 -22 9 -3 17 -9
17 -15 0 -5 -7 -5 -18 1 -11 6 -24 6 -34 0 -10 -5 -26 -5 -40 0 -13 4 -72 11
-131 15 l-108 7 12 -23 c7 -13 12 -30 11 -39 -3 -17 23 -33 39 -23 5 3 9 0 9
-7 0 -7 10 -9 25 -7 13 3 26 0 28 -6 2 -6 6 -1 9 10 4 17 2 20 -13 17 -13 -4
-19 0 -19 11 0 19 10 20 61 4 31 -9 39 -16 39 -35 0 -12 5 -23 11 -23 6 0 3
-7 -6 -16 -11 -11 -14 -26 -9 -50 6 -32 4 -34 -20 -34 -15 0 -25 -5 -24 -12 4
-20 21 -28 34 -17 13 10 64 -5 64 -19 0 -5 -8 -26 -19 -47 -18 -37 -20 -38
-72 -40 -30 -1 -61 -3 -69 -6 -17 -5 -44 -36 -53 -61 -8 -22 -21 -23 -36 -4
-10 12 -8 17 11 27 21 12 22 12 3 19 -26 9 -74 -10 -81 -32 -3 -10 -10 -18
-15 -18 -5 0 -9 -8 -7 -18 3 -14 -4 -17 -41 -14 -24 1 -58 -2 -77 -8 -18 -6
-45 -13 -60 -16 -48 -9 -94 -33 -94 -49 0 -8 -11 -25 -25 -37 -14 -12 -25 -28
-25 -35 0 -17 -36 -17 -42 0 -8 20 2 37 23 37 12 0 19 7 19 19 0 18 -8 19
-152 15 -84 -2 -168 -9 -186 -15 -26 -9 -37 -8 -57 5 -23 15 -29 15 -87 -9
-66 -27 -83 -30 -73 -16 9 15 -32 23 -55 11 -25 -13 -24 -17 10 -23 52 -10 85
-20 97 -29 20 -16 224 -29 240 -16 10 8 13 6 13 -6 0 -11 9 -16 33 -16 50 0
76 -10 70 -26 -6 -16 -33 -19 -33 -3 0 5 5 7 12 3 7 -4 8 -3 4 4 -4 7 -19 12
-34 12 -21 0 -24 -2 -12 -10 13 -8 12 -10 -2 -10 -10 0 -18 -7 -18 -15 0 -13
-4 -14 -20 -5 -16 9 -22 8 -26 -4 -5 -12 -10 -13 -27 -5 -17 10 -19 9 -14 -5
4 -9 2 -16 -3 -16 -6 0 -10 7 -10 15 0 8 -4 15 -10 15 -5 0 -10 -6 -10 -12 0
-9 -4 -8 -10 2 -6 10 -10 11 -10 3 0 -21 -27 -15 -33 7 -4 15 0 20 16 20 39 0
10 10 -60 20 -38 5 -79 12 -89 16 -16 5 -16 4 -4 -5 13 -9 12 -11 -5 -11 -34
1 -98 18 -105 29 -7 12 -170 11 -170 -1 0 -4 -28 -10 -62 -14 -50 -6 -58 -9
-38 -15 16 -4 19 -7 8 -8 -10 -1 -18 -5 -18 -11 0 -5 -8 -10 -17 -11 -11 0
-13 -3 -5 -6 21 -8 13 -32 -13 -39 -25 -6 -55 13 -55 35 0 6 -7 11 -16 11 -11
0 -14 -6 -10 -17 6 -17 5 -17 -7 -1 -10 13 -23 16 -50 11 -21 -3 -37 -9 -37
-14 0 -10 -86 -5 -118 8 l-24 9 27 12 c33 15 30 19 -14 27 -18 3 -40 12 -48
20 -16 16 -26 19 -37 8 -3 -4 4 -13 16 -20 13 -7 17 -12 10 -13 -7 0 -22 5
-33 10 -13 7 -25 7 -38 0 -13 -6 -22 -7 -26 0 -3 5 -28 9 -54 9 -45 -1 -108
18 -71 22 20 2 48 0 88 -7 49 -8 38 12 -18 31 -48 16 -99 17 -110 3 -9 -11
-112 -19 -105 -8 3 6 -1 10 -10 10 -9 0 -23 7 -31 15 -9 8 -24 15 -36 15 -11
0 -18 5 -15 13 5 15 35 10 67 -13 28 -20 64 -26 96 -15 15 5 20 13 16 30 -4
23 -3 23 68 20 39 -1 74 -5 77 -9 4 -3 25 -6 49 -6 23 0 44 -4 46 -9 2 -5 27
-12 56 -16 44 -6 52 -4 52 9 0 18 15 21 25 6 3 -5 13 -10 21 -10 8 0 12 5 9
10 -3 6 0 10 8 10 10 0 13 -7 10 -20 -4 -16 0 -20 18 -20 13 1 35 7 49 15 23
13 23 14 5 15 -16 1 -14 4 10 15 17 7 33 11 38 8 4 -2 7 1 7 6 0 6 8 11 18 12
14 0 14 1 -3 8 -34 13 -257 6 -282 -9 -29 -19 -110 5 -91 27 16 20 6 24 -30
11 -24 -9 -37 -9 -56 0 -15 7 -36 16 -48 21 -13 5 -41 16 -63 25 -71 28 -129
46 -152 46 -26 0 -75 20 -85 35 -13 17 -9 26 10 24 32 -3 40 1 45 21 4 15 0
20 -16 20 -18 0 -20 2 -7 11 12 9 10 10 -8 6 -21 -5 -23 -3 -16 26 6 27 25 57
37 57 2 0 3 -10 3 -22 -1 -17 5 -24 22 -26 20 -3 27 -13 23 -34 0 -5 4 -8 10
-8 5 0 7 -5 3 -11 -3 -6 0 -15 7 -20 21 -13 29 -11 29 10 0 10 7 21 15 25 8 3
21 18 28 33 6 15 24 39 40 52 l28 23 -21 18 c-21 18 -21 18 7 27 29 10 56 7
49 -6 -3 -4 5 -7 17 -8 12 0 17 1 10 4 -7 2 -9 11 -6 19 5 13 7 13 14 2 6 -9
8 -6 7 9 -2 18 -6 20 -26 12 -30 -12 -32 -11 -32 5 0 9 -8 12 -25 8 -36 -7
-31 7 10 24 20 8 33 19 29 25 -4 8 -10 7 -17 0 -6 -6 -22 -11 -37 -11 -24 0
-65 -19 -45 -21 6 0 1 -4 -10 -8 -12 -5 -23 -4 -27 3 -6 8 -8 7 -8 -1 0 -7 -4
-13 -10 -13 -5 0 -10 9 -10 19 0 23 30 35 80 33 26 -1 30 1 16 7 -26 10 -8 20
33 19 31 -1 51 14 51 37 0 6 -4 4 -9 -4 -7 -11 -13 -11 -32 3 -13 9 -38 16
-56 16 -18 0 -33 4 -33 8 0 4 -9 8 -20 9 -11 1 -18 -2 -15 -8 4 -5 -2 -12 -12
-16 -10 -4 -26 -15 -35 -25 -9 -11 -19 -19 -23 -18 -4 1 -9 -1 -13 -4 -5 -6
13 -10 31 -7 17 3 5 -42 -18 -63 -14 -13 -25 -28 -25 -35 0 -6 -6 -12 -12 -12
-7 -1 -23 -3 -35 -4 -12 -1 -34 -12 -48 -24 -29 -22 -51 -28 -40 -11 3 6 -1 7
-9 4 -9 -3 -13 -10 -10 -15 3 -5 -2 -9 -10 -9 -21 0 -20 12 2 31 17 15 26 19
40 19 4 0 8 9 9 20 1 11 -2 20 -6 20 -8 0 -81 68 -81 75 0 2 7 2 15 -1 10 -4
15 0 15 14 0 17 -5 20 -27 16 -16 -3 -32 -12 -36 -20 -4 -8 -15 -14 -23 -14
-8 0 -12 -4 -9 -10 4 -6 -5 -10 -19 -10 -14 0 -26 5 -26 11 0 5 6 7 13 4 6 -4
4 0 -6 8 -17 14 -16 15 5 20 13 3 68 18 123 32 55 15 110 29 122 32 13 3 20 9
17 15 -3 5 6 6 22 2 26 -7 27 -7 8 13 -10 10 -22 15 -25 10 -3 -5 -9 -2 -12 7
-8 20 -31 21 -49 3 -7 -8 -24 -12 -36 -11 -12 2 -22 -1 -22 -7 0 -5 -4 -7 -10
-4 -5 3 -10 0 -10 -7 0 -17 -180 -15 -190 3 -4 6 -9 7 -11 2 -2 -5 -15 -6 -29
-3 -23 6 -22 7 13 14 21 4 35 11 32 16 -3 4 8 11 25 15 16 4 30 11 30 16 0 5
15 9 33 9 17 0 37 4 42 8 9 7 35 47 35 55 0 8 -99 -2 -118 -12 -11 -6 -38 -11
-59 -11 -24 0 -33 -3 -25 -9 10 -6 11 -13 1 -34 -15 -33 -50 -36 -80 -6 -11
11 -27 18 -35 15 -9 -3 -12 -1 -9 4 3 6 -1 10 -9 10 -22 0 -15 -23 9 -34 19
-8 19 -9 -5 -19 -14 -6 -34 -22 -45 -34 -11 -13 -28 -23 -38 -23 -19 0 -24
-20 -4 -20 6 0 4 -5 -7 -11 -14 -9 -15 -13 -6 -19 16 -10 4 -30 -17 -30 -15 0
-62 -30 -97 -62 -11 -10 -25 -18 -32 -18 -7 0 -20 -7 -29 -16 -19 -20 -90 -31
-99 -15 -9 14 -66 15 -66 1 0 -5 16 -10 36 -10 30 0 34 -2 25 -14 -8 -10 -21
-12 -46 -6 -19 4 -36 5 -39 3 -5 -6 -36 21 -36 31 0 3 7 6 16 6 21 0 14 32 -8
36 -10 1 -18 -2 -18 -8 0 -6 -6 -5 -15 2 -12 10 -15 10 -15 -3 0 -8 -6 -17
-14 -20 -10 -4 -14 0 -13 13 1 10 5 16 9 14 4 -3 8 2 8 10 0 20 -16 29 -41 21
-15 -5 -18 -9 -9 -15 7 -5 1 -9 -19 -12 -17 -2 -31 -1 -31 4 0 4 -7 8 -16 8
-8 0 -12 5 -9 10 3 5 1 10 -4 10 -6 0 -11 -4 -11 -10 0 -5 -13 -10 -30 -10
-16 0 -30 -4 -30 -10 0 -5 -12 -10 -27 -10 -20 0 -24 3 -14 9 11 7 10 10 -5
14 -18 5 36 11 64 8 6 -1 12 3 12 8 0 5 14 11 32 13 45 4 51 30 7 28 -49 -3
-59 -1 -59 10 0 14 69 30 130 29 40 0 50 -3 35 -9 -16 -7 -13 -9 16 -9 35 -1
37 -3 43 -41 5 -32 9 -38 24 -33 9 4 21 12 25 20 4 7 16 13 26 13 10 0 24 6
30 14 6 8 32 17 57 21 25 3 43 9 40 12 -8 8 39 31 79 39 36 6 50 34 18 34 -15
0 -16 2 -3 10 11 7 -3 10 -46 10 -72 0 -86 9 -43 27 38 16 106 17 111 2 5 -14
68 -2 68 12 0 9 -15 13 -34 10 -5 -1 -5 4 1 11 9 10 6 13 -13 14 -13 1 -24 -2
-24 -6 0 -11 -64 -2 -68 10 -2 6 -8 10 -13 10 -6 0 -7 -4 -4 -10 3 -5 1 -10
-4 -10 -6 0 -11 4 -11 9 0 15 -31 21 -52 10 -11 -6 -18 -7 -15 -2 3 4 -1 14
-9 21 -12 11 -14 9 -14 -8 0 -15 -6 -20 -29 -20 -16 0 -37 -3 -47 -7 -13 -5
-15 -3 -9 8 7 11 6 12 -7 2 -8 -7 -17 -10 -21 -7 -3 3 -8 -3 -11 -14 -8 -25
-40 -38 -102 -41 -45 -2 -52 1 -62 23 -6 13 -18 23 -28 23 -9 -1 -19 4 -22 12
-3 9 0 11 8 6 7 -4 16 -2 21 6 6 10 11 11 16 3 11 -16 74 -23 101 -11 36 16
26 29 -20 25 -39 -3 -43 -1 -42 19 0 17 -6 22 -33 25 -18 2 -39 0 -46 -4 -6
-4 -33 -8 -59 -8 -27 0 -48 -4 -48 -9 0 -5 9 -7 20 -4 11 3 20 0 20 -6 0 -6 7
-11 15 -11 8 0 15 -5 15 -10 0 -6 -3 -9 -7 -9 -23 4 -53 -3 -65 -14 -24 -22
-72 -45 -110 -52 -22 -4 -38 -13 -38 -21 0 -8 5 -14 10 -14 6 0 10 -4 10 -10
0 -5 -6 -7 -14 -4 -8 3 -17 0 -21 -6 -6 -9 -9 -9 -15 0 -9 14 -40 6 -40 -10 0
-5 7 -10 15 -10 8 0 19 -9 25 -20 6 -10 17 -17 24 -14 11 4 9 -5 -6 -35 -27
-54 -34 -59 -124 -77 -111 -21 -129 -22 -129 -4 0 8 11 16 25 18 14 2 33 14
43 28 l18 24 -59 -2 c-33 -2 -55 -6 -49 -10 7 -5 -17 -8 -53 -8 -36 0 -78 -2
-94 -3 -16 -1 -31 3 -33 9 -4 13 61 31 147 40 30 3 57 10 58 15 2 5 14 9 26 9
63 0 189 73 166 96 -6 6 -5 19 3 34 9 19 23 26 54 31 55 7 136 45 152 72 10
15 11 22 2 25 -15 5 -14 37 2 49 6 6 30 14 52 18 51 9 75 22 75 41 0 29 60 42
205 43 89 0 161 6 198 16 32 8 88 17 125 21 37 3 76 9 87 14 11 6 45 11 75 12
53 3 55 4 58 33 5 50 -39 84 -111 86 -59 2 -67 8 -43 31 8 8 16 23 18 34 2 12
10 18 22 16 24 -4 43 14 67 62 36 75 22 84 -47 32 -48 -37 -37 -36 -152 -6
-33 8 -47 8 -58 -1 -7 -6 -23 -9 -34 -6 -14 4 -20 0 -21 -11 0 -11 -2 -13 -6
-4 -9 22 -33 -7 -33 -39 0 -25 -4 -29 -29 -29 -17 0 -33 -4 -36 -10 -13 -21
-61 -10 -90 20 -16 17 -33 30 -38 30 -6 0 -25 11 -43 25 -18 14 -43 25 -56 25
-68 0 -89 89 -28 113 11 4 9 6 -5 6 -16 1 -17 3 -5 11 11 7 12 12 3 21 -9 9
-19 9 -45 -1 -46 -18 -56 -29 -38 -41 12 -9 12 -10 -3 -5 -11 3 -20 0 -23 -9
-5 -11 -11 -9 -28 10 -13 14 -34 26 -46 28 -13 2 -29 12 -34 23 -6 10 -13 21
-16 24 -3 3 -5 12 -5 20 0 8 -15 17 -40 22 -22 5 -44 13 -49 18 -6 6 -24 10
-42 10 -18 0 -34 5 -36 10 -2 6 -13 12 -26 13 -24 1 -29 12 -9 20 6 3 -2 6
-20 6 -22 1 -31 -3 -28 -11 4 -10 -11 -13 -55 -13 -47 0 -57 2 -45 11 13 10 9
13 -22 19 l-38 7 37 21 c34 20 37 25 35 65 -1 23 -5 42 -9 42 -3 0 -9 9 -13
19 -3 11 -21 25 -40 31 -41 14 -42 16 -13 40 21 16 21 20 9 44 -8 14 -22 28
-33 32 -26 8 -22 29 7 42 37 17 31 39 -12 51 -21 6 -46 11 -55 11 -10 0 -15 6
-13 13 4 8 -7 12 -35 12 -31 1 -40 -3 -40 -16 0 -24 -20 -37 -61 -40 -43 -4
-65 11 -85 60 -8 19 -22 43 -31 53 -15 17 -18 17 -39 3 -20 -13 -29 -13 -62
-2 -60 21 -106 11 -152 -34 -50 -49 -76 -49 -136 -4 -25 19 -50 35 -55 35 -5
0 -9 13 -9 29 0 16 -5 42 -12 58 -6 15 -11 31 -10 36 1 4 -6 7 -16 7 -9 0 -41
16 -70 35 -42 29 -52 41 -52 64 0 16 7 34 15 41 8 7 15 18 15 25 0 13 49 59
72 68 9 3 8 9 -6 19 -13 10 -15 17 -8 22 15 9 15 49 1 63 -7 7 -6 21 5 46 14
35 14 37 -11 57 -15 12 -41 20 -63 20 -62 0 -99 11 -93 26 3 9 -2 14 -13 15
-13 0 -15 2 -5 6 29 12 -68 36 -184 45 -137 12 -117 11 -380 10 -110 -1 -211
1 -225 3 -85 13 -112 16 -175 21 -38 3 -122 20 -185 36 -63 17 -158 34 -210
39 -52 4 -113 13 -135 19 -53 15 -201 40 -242 40 l-33 0 0 -3365 0 -3365 574
0 c444 0 578 3 588 13 14 13 99 52 138 63 23 6 23 6 7 -10 -9 -10 -17 -22 -17
-27 0 -5 -6 -9 -12 -9 -7 0 -22 -8 -33 -16 -18 -14 -12 -15 74 -12 64 2 96 7
99 16 2 6 -3 12 -12 12 -20 0 -20 3 4 49 15 31 29 43 67 56 52 19 73 26 117
44 97 40 351 86 431 79 l40 -3 -55 -18 c-31 -9 -61 -26 -67 -36 -10 -15 -20
-18 -51 -14 -24 3 -42 1 -46 -6 -4 -6 -16 -11 -27 -11 -22 0 -49 -22 -49 -40
0 -6 -4 -9 -9 -5 -5 3 -12 1 -15 -4 -3 -5 -17 -12 -31 -15 -13 -3 -62 -24
-109 -46 -47 -22 -92 -40 -100 -40 -8 0 -18 -4 -21 -10 -4 -7 1963 -10 5894
-10 l5901 0 0 1144 0 1145 -22 4 -23 4 23 2 22 1 0 230 0 230 -22 1 -23 0 23
9 22 9 0 320 c0 252 -3 320 -12 316 -15 -4 -158 -13 -323 -21 -60 -2 -134 -6
-162 -8 -29 -2 -53 -1 -53 4 0 16 98 30 285 40 105 6 206 12 225 14 l35 3 3
1791 2 1790 -35 31 c-20 17 -68 47 -108 67 -40 20 -94 51 -122 69 -27 18 -68
41 -90 50 -135 58 -184 84 -215 117 -19 20 -80 60 -135 88 -118 62 -148 82
-196 130 -61 63 -152 134 -298 235 -77 54 -141 101 -141 105 0 22 -87 92 -152
123 -76 37 -206 144 -288 239 -22 26 -84 84 -138 129 -156 132 -237 215 -357
364 -196 244 -255 287 -392 289 -52 1 -78 6 -92 18 -18 16 -22 15 -55 -2 -26
-13 -36 -14 -36 -5 0 7 -7 26 -15 41 -8 16 -15 39 -15 52 0 13 -11 34 -25 48
-32 32 -32 57 3 82 26 20 26 21 7 28 -38 14 -47 57 -17 81 12 10 14 16 5 19
-18 8 -16 24 2 24 8 0 15 -9 15 -19 0 -21 26 -36 35 -21 4 6 19 10 36 10 34 0
35 2 13 35 -16 25 -16 25 19 25 20 0 43 7 52 17 16 16 18 16 27 0 11 -21 32
-22 47 -3 14 17 4 93 -14 109 -11 10 -10 15 2 29 13 15 14 22 3 47 -11 28 -10
33 14 62 32 37 33 56 3 91 -59 70 -57 66 -42 78 23 19 29 68 12 94 -20 29 -84
68 -92 55 -10 -16 -55 -11 -55 7 0 14 -7 15 -43 10 -43 -7 -44 -6 -41 21 1 15
3 29 4 31 1 1 3 5 4 10 8 33 20 52 37 57 17 6 23 17 20 37 0 4 8 9 18 13 11 3
22 12 24 20 3 7 14 11 24 9 10 -3 29 4 41 14 13 11 31 18 41 15 20 -5 61 42
61 70 0 49 -27 53 -87 12 -31 -20 -31 -22 -13 -35 20 -14 29 -37 11 -26 -5 4
-11 1 -13 -6 -6 -18 -28 1 -28 25 -1 29 -26 61 -43 54 -8 -3 -20 -1 -27 3 -8
5 -22 4 -33 -2 -13 -6 -22 -7 -26 0 -3 5 -17 13 -30 17 -23 7 -23 6 -16 -44
l7 -51 -30 6 c-16 3 -39 1 -51 -5 -31 -17 -28 9 5 49 15 17 24 34 20 37 -3 3
3 12 14 20 21 15 28 53 10 53 -5 0 -10 7 -10 16 0 13 5 12 29 -6 23 -16 31
-17 38 -8 11 18 13 37 3 43 -12 8 8 95 35 151 14 28 25 58 25 67 0 18 0 18 70
22 70 4 92 13 85 36 -9 27 45 73 60 50 7 -13 97 0 113 16 7 7 28 13 46 13 36
0 107 45 126 79 6 12 8 32 4 45 -4 16 3 42 20 75 14 28 23 51 20 51 -2 0 0 9
6 20 8 15 7 26 -5 43 -14 22 -14 26 6 51 16 20 20 36 16 62 -4 24 -2 34 8 34
18 0 28 32 13 41 -7 4 -30 6 -52 5 -38 -3 -41 -1 -53 33 -7 20 -10 45 -6 56 3
11 5 47 4 80 -1 33 3 67 9 75 6 10 10 11 10 3 0 -7 11 -13 25 -13 18 0 25 5
25 20 0 11 -3 19 -7 19 -48 -8 -70 25 -25 36 35 9 90 55 103 87 10 25 9 30
-12 47 -21 17 -26 17 -57 4 -26 -11 -32 -11 -26 -1 14 22 13 36 -3 50 -12 10
-17 9 -27 -4 -9 -12 -17 -13 -29 -7 -23 13 -21 29 3 29 11 0 20 6 20 13 0 17
-45 42 -59 33 -17 -11 -13 -26 7 -26 13 0 14 -2 3 -9 -16 -11 -50 -3 -73 17
-16 13 -16 17 -2 44 8 16 13 32 10 37 -3 4 0 24 6 44 11 36 30 48 43 27 13
-21 60 -10 87 20 21 24 34 30 67 30 26 0 41 5 41 13 0 14 -28 115 -29 106 -1
-4 -20 11 -43 32 -52 47 -91 58 -120 33 -19 -18 -20 -18 -33 -1 -20 27 -34 20
-37 -20 -3 -34 -6 -38 -28 -35 -14 1 -29 3 -35 3 -5 0 -30 -2 -55 -6 -38 -6
-49 -3 -67 14 -12 12 -28 21 -35 21 -7 0 -22 7 -33 16 -16 12 -18 18 -7 34 6
11 12 26 12 34 0 8 6 16 13 19 10 3 10 9 0 26 -23 37 -14 46 15 14 31 -36 89
-52 99 -27 3 8 18 21 34 30 16 8 29 21 29 30 0 9 14 29 30 46 17 16 30 33 30
38 0 23 20 18 26 -7 9 -34 42 -62 66 -55 21 5 23 32 7 76 -9 26 -8 37 7 65 23
40 82 66 103 43 11 -11 15 -10 27 6 16 23 9 52 -12 52 -8 0 -17 14 -21 30 -3
17 -14 35 -24 41 -11 5 -19 20 -19 32 0 16 3 18 9 9 6 -10 17 -11 42 -4 42 11
59 6 59 -17 0 -22 31 -51 53 -51 22 0 27 8 72 130 9 25 18 46 19 48 7 7 36
-12 36 -23 0 -16 33 -30 38 -15 2 6 17 8 37 4 32 -6 34 -5 37 28 3 32 4 33 58
39 30 3 73 15 95 26 68 34 113 3 98 -67 -4 -22 -1 -29 19 -35 61 -20 80 -8 92
58 4 20 12 37 18 37 7 0 3 6 -8 14 -11 8 -23 11 -29 6 -6 -5 -23 -13 -38 -19
-22 -9 -27 -8 -27 5 0 8 5 12 10 9 6 -3 10 0 10 8 0 8 7 17 15 21 11 4 13 11
5 30 -10 28 -1 40 24 30 10 -4 17 2 22 20 9 37 -83 138 -135 148 -58 11 -2051
9 -2051 -2z m1430 -316 c0 -8 -4 -12 -10 -9 -5 3 -10 10 -10 16 0 5 5 9 10 9
6 0 10 -7 10 -16z m108 -61 c-4 -22 -22 -20 -26 1 -2 10 3 16 13 16 10 0 15
-7 13 -17z m-628 -387 c0 -3 -4 -8 -10 -11 -5 -3 -10 -1 -10 4 0 6 5 11 10 11
6 0 10 -2 10 -4z m75 -6 c4 -6 -5 -10 -19 -10 -14 0 -26 5 -26 10 0 6 9 10 19
10 11 0 23 -4 26 -10z m62 -12 c-3 -8 -6 -5 -6 6 -1 11 2 17 5 13 3 -3 4 -12
1 -19z m83 -9 c0 -10 -4 -19 -9 -19 -5 0 -11 -8 -14 -17 -3 -14 -6 -11 -11 9
-5 16 -6 35 -2 43 7 20 36 8 36 -16z m-163 -135 c-9 -9 -28 6 -21 18 4 6 10 6
17 -1 6 -6 8 -13 4 -17z m-185 -156 c20 -23 11 -38 -24 -38 -18 0 -23 16 -12
44 8 21 13 20 36 -6z m375 -100 c-3 -8 -6 -5 -6 6 -1 11 2 17 5 13 3 -3 4 -12
1 -19z m-1009 -76 c2 -7 -6 -12 -17 -12 -21 0 -27 11 -14 24 9 9 26 2 31 -12z
m186 -10 c2 -4 -4 -13 -14 -20 -20 -12 -36 0 -25 18 7 12 32 13 39 2z m-340
-484 c-3 -4 -9 -8 -15 -8 -5 0 -9 4 -9 8 0 5 7 9 15 9 8 0 12 -4 9 -9z m-602
-603 c-2 -19 -10 -35 -17 -35 -9 0 -10 8 -1 35 6 19 13 35 16 35 3 0 4 -16 2
-35z m-105 -122 c-3 -10 -5 -2 -5 17 0 19 2 27 5 18 2 -10 2 -26 0 -35z m40 5
c-3 -8 -6 -5 -6 6 -1 11 2 17 5 13 3 -3 4 -12 1 -19z m-227 -450 c0 -26 -2
-29 -15 -18 -8 7 -15 23 -15 36 0 17 4 22 15 18 9 -4 15 -19 15 -36z m-100 7
c0 -16 -6 -25 -15 -25 -16 0 -19 9 -9 34 9 25 24 19 24 -9z m868 -7 c-3 -7
-13 -15 -24 -17 -16 -3 -17 -1 -5 13 16 19 34 21 29 4z m2 -73 c0 -8 -2 -15
-4 -15 -2 0 -6 7 -10 15 -3 8 -1 15 4 15 6 0 10 -7 10 -15z m860 -34 c0 -14
-1 -14 -10 -1 -7 11 -10 12 -10 2 0 -9 -7 -11 -21 -7 -16 5 -28 -1 -49 -27
-28 -33 -56 -33 -32 0 7 9 15 24 18 33 4 11 19 15 55 15 38 0 49 -3 49 -15z
m-1132 -83 c12 -16 -22 -63 -38 -53 -14 8 -13 33 3 50 15 18 22 18 35 3z m912
-78 c0 -5 -4 -10 -10 -10 -5 0 -10 5 -10 10 0 6 5 10 10 10 6 0 10 -4 10 -10z
m-260 -255 c0 -8 -6 -15 -14 -15 -17 0 -28 14 -19 24 12 12 33 6 33 -9z m793
-222 c-7 -2 -21 -2 -30 0 -10 3 -4 5 12 5 17 0 24 -2 18 -5z m-180 -98 c5 -31
-13 -28 -24 3 -6 16 -5 22 5 22 8 0 16 -11 19 -25z m-117 -170 c3 -14 3 -37 0
-51 -7 -25 -8 -25 -31 -10 -31 20 -32 20 -38 -5 -5 -20 -7 -20 -31 -4 -31 21
-35 45 -6 38 14 -4 20 0 20 11 0 9 3 16 8 17 29 3 47 9 50 18 6 19 21 12 28
-14z m24 -291 c0 -8 -5 -12 -10 -9 -6 4 -8 11 -5 16 9 14 15 11 15 -7z m-136
-68 c-5 -25 -14 -34 -14 -12 0 9 -4 14 -10 11 -5 -3 -10 0 -10 9 0 8 -6 17
-12 19 -10 4 -9 8 2 16 19 13 49 -16 44 -43z m66 39 c0 -8 -4 -15 -10 -15 -5
0 -10 7 -10 15 0 8 5 15 10 15 6 0 10 -7 10 -15z m-7 -92 c-5 -12 -7 -12 -14
-1 -13 20 -11 28 5 22 8 -3 12 -12 9 -21z m-131 -65 c-7 -7 -12 -8 -12 -2 0
14 12 26 19 19 2 -3 -1 -11 -7 -17z m-1187 -98 c-3 -5 -11 -10 -16 -10 -6 0
-7 5 -4 10 3 6 11 10 16 10 6 0 7 -4 4 -10z m-148 -82 c-3 -8 -6 -5 -6 6 -1
11 2 17 5 13 3 -3 4 -12 1 -19z m1018 2 c3 -6 -1 -7 -9 -4 -18 7 -21 14 -7 14
6 0 13 -4 16 -10z m46 -81 c-9 -23 -10 -23 -10 -2 -1 12 2 30 6 40 6 15 8 15
11 2 1 -8 -2 -26 -7 -40z m419 -1028 c0 -11 -3 -11 -13 4 -8 10 -19 15 -25 11
-6 -3 -14 -1 -18 5 -4 7 -3 9 3 6 6 -4 14 1 18 11 6 16 7 16 21 -2 8 -11 14
-27 14 -35z m-8651 -1225 c0 -8 34 -41 66 -62 16 -10 28 -10 58 -1 20 7 37 16
37 20 0 5 5 5 10 2 6 -4 17 -1 25 5 17 14 38 4 31 -15 -2 -7 3 -15 13 -18 25
-6 22 -37 -3 -37 -12 0 -32 -7 -44 -16 -31 -21 -161 -27 -169 -8 -3 8 -9 11
-14 8 -5 -3 -9 -2 -9 3 0 4 -13 14 -30 21 -16 6 -43 18 -60 24 -22 10 -29 18
-27 37 1 13 9 26 19 29 10 2 18 7 18 11 0 3 18 6 40 5 22 -1 40 -4 39 -8z
m4141 -587 c0 -5 -4 -9 -10 -9 -5 0 -10 7 -10 16 0 8 5 12 10 9 6 -3 10 -10
10 -16z m-2953 -345 c-3 -3 -12 -4 -19 -1 -8 3 -5 6 6 6 11 1 17 -2 13 -5z
m-7 -30 c0 -2 -7 -4 -15 -4 -8 0 -15 4 -15 10 0 5 7 7 15 4 8 -4 15 -8 15 -10z
m3780 -140 c0 -18 -39 -5 -50 16 -7 13 -6 20 2 22 15 5 48 -22 48 -38z m-3950
6 c0 -5 -7 -10 -15 -10 -8 0 -15 5 -15 10 0 6 7 10 15 10 8 0 15 -4 15 -10z
m4054 -36 c32 -31 6 -65 -34 -44 -10 6 -28 10 -39 10 -26 0 -26 8 -3 31 21 22
56 24 76 3z m-4374 -24 c0 -5 -9 -10 -20 -10 -11 0 -20 5 -20 10 0 6 9 10 20
10 11 0 20 -4 20 -10z m1117 -52 c-3 -8 -6 -5 -6 6 -1 11 2 17 5 13 3 -3 4
-12 1 -19z m563 -164 c0 -13 -13 -18 -33 -15 -4 1 -19 2 -33 3 -30 3 -26 20 7
28 32 8 59 1 59 -16z m50 -109 c0 -8 -4 -15 -10 -15 -5 0 -10 7 -10 15 0 8 5
15 10 15 6 0 10 -7 10 -15z m4367 -182 c-9 -9 -20 -13 -24 -9 -4 4 -1 11 7 16
25 16 35 11 17 -7z m240 -18 c-10 -10 -13 -9 -18 4 -4 9 -1 19 5 23 15 10 26
-13 13 -27z m-1040 -131 c8 -21 -11 -32 -43 -26 -31 6 -42 22 -15 22 11 0 23
5 26 10 9 15 25 12 32 -6z m-134 -21 c-7 -2 -21 -2 -30 0 -10 3 -4 5 12 5 17
0 24 -2 18 -5z m-398 -29 c22 -5 25 -9 13 -13 -37 -13 -1 -31 65 -33 36 -1 61
-5 56 -9 -6 -3 0 -9 13 -13 19 -5 20 -8 8 -16 -21 -14 -46 -12 -63 4 -8 8 -35
17 -60 21 -26 4 -47 11 -47 15 0 5 -10 12 -22 16 -26 8 -39 24 -31 36 2 5 12
7 21 4 10 -3 30 -8 47 -12z m-3597 -27 c6 3 12 0 12 -6 0 -6 -9 -11 -19 -11
-11 0 -23 -5 -27 -11 -5 -8 1 -10 21 -7 18 4 33 0 46 -13 17 -17 16 -18 -24
-33 -23 -8 -81 -17 -129 -19 -81 -4 -88 -3 -88 14 0 13 7 19 23 19 35 0 67 11
61 21 -3 5 3 9 13 9 17 1 17 1 0 15 -17 12 -15 14 25 23 23 5 50 6 58 2 8 -4
21 -5 28 -3z m4725 -44 c-7 -2 -21 -2 -30 0 -10 3 -4 5 12 5 17 0 24 -2 18 -5z
m-4324 -32 c18 -11 4 -18 -44 -22 -44 -4 -60 12 -23 23 33 9 51 9 67 -1z
m4109 -43 c2 -4 9 -5 17 -2 7 3 34 -2 59 -10 26 -9 66 -16 89 -17 23 0 35 -3
27 -6 -8 -3 -17 -9 -20 -14 -3 -4 -25 -3 -50 2 -58 12 -61 13 -85 26 -11 5
-26 8 -32 6 -7 -3 -13 -1 -13 5 0 9 -17 12 -62 12 -26 0 -38 17 -22 32 6 7 87
-23 92 -34z m-4233 22 c3 -5 1 -10 -4 -10 -6 0 -11 5 -11 10 0 6 2 10 4 10 3
0 8 -4 11 -10z m188 3 c-7 -2 -19 -2 -25 0 -7 3 -2 5 12 5 14 0 19 -2 13 -5z
m4302 -53 c27 -18 22 -28 -10 -20 -5 1 -16 3 -22 3 -14 0 -19 37 -5 37 4 0 21
-9 37 -20z m-4495 -4 c0 -2 -9 -6 -20 -9 -11 -3 -18 -1 -14 4 5 9 34 13 34 5z
m4145 -6 c3 -5 3 -15 -1 -21 -6 -11 -23 6 -24 24 0 10 18 9 25 -3z m-595 -28
c0 -10 -7 -19 -15 -19 -8 0 -15 9 -15 19 0 10 7 18 15 18 8 0 15 -8 15 -18z
m177 12 c-3 -3 -12 -4 -19 -1 -8 3 -5 6 6 6 11 1 17 -2 13 -5z m-4022 -14 c4
-6 -5 -10 -19 -10 -14 0 -26 5 -26 10 0 6 9 10 19 10 11 0 23 -4 26 -10z m911
-5 c-11 -8 -25 -15 -30 -14 -6 0 -5 3 3 6 11 5 11 7 0 14 -10 6 -5 9 16 9 29
-1 29 -1 11 -15z m-1636 -10 c0 -8 -5 -15 -11 -15 -6 0 -17 7 -25 15 -14 13
-13 15 10 15 16 0 26 -6 26 -15z m4660 -5 c14 -11 32 -20 41 -20 9 0 16 -7 16
-15 0 -15 -23 -20 -51 -9 -9 3 -16 15 -16 25 0 17 -3 18 -20 9 -17 -9 -20 -8
-20 10 0 25 18 25 50 0z m480 10 c0 -5 -4 -10 -10 -10 -5 0 -10 5 -10 10 0 6
5 10 10 10 6 0 10 -4 10 -10z m470 0 c8 -5 12 -12 8 -15 -10 -10 -49 5 -43 16
8 11 16 11 35 -1z m-4082 -7 c-10 -2 -26 -2 -35 0 -10 3 -2 5 17 5 19 0 27 -2
18 -5z m2875 -18 c-3 -17 -30 -17 -37 0 -4 13 -1 16 17 13 12 -2 21 -7 20 -13z
m84 -7 c-3 -8 -6 -5 -6 6 -1 11 2 17 5 13 3 -3 4 -12 1 -19z m779 7 c14 -13
13 -15 -4 -15 -11 0 -22 7 -26 15 -3 8 -1 15 5 15 6 0 17 -7 25 -15z m-3561
-5 c3 -5 -1 -10 -9 -10 -8 0 -18 5 -21 10 -3 6 1 10 9 10 8 0 18 -4 21 -10z
m3278 3 c-7 -2 -21 -2 -30 0 -10 3 -4 5 12 5 17 0 24 -2 18 -5z m-4195 -31
c-10 -2 -18 -7 -18 -10 0 -4 -14 -8 -30 -9 -34 -2 -36 0 -16 20 9 9 26 12 48
8 19 -3 26 -6 16 -9z m3642 8 c0 -5 -5 -10 -11 -10 -5 0 -7 5 -4 10 3 6 8 10
11 10 2 0 4 -4 4 -10z m90 -10 c5 8 10 10 10 4 0 -7 11 -15 25 -18 14 -4 25
-11 25 -16 0 -6 6 -10 14 -10 7 0 13 -8 13 -17 0 -35 3 -44 13 -38 6 3 10 1
10 -5 0 -6 5 -8 10 -5 6 3 10 1 10 -4 0 -6 19 -14 41 -17 29 -5 43 -13 46 -25
3 -10 8 -17 12 -15 4 3 5 -12 3 -32 -2 -28 -1 -33 7 -22 9 13 11 12 11 -4 0
-17 -5 -18 -47 -12 -27 4 -55 7 -63 8 -8 1 -18 5 -21 11 -4 6 -21 1 -43 -12
-20 -12 -39 -20 -44 -17 -5 3 -20 -1 -33 -8 -20 -10 -27 -10 -37 0 -9 10 -7
13 10 16 12 2 22 10 24 18 1 8 7 30 13 48 9 30 8 32 -13 26 -21 -5 -43 9 -45
29 0 4 -7 20 -16 36 -18 37 -6 44 55 30 44 -10 56 -7 46 9 -8 13 -46 22 -46
11 0 -17 -19 -9 -25 11 -3 11 -13 20 -21 20 -8 0 -14 5 -14 11 0 5 14 2 30 -8
27 -16 32 -16 40 -3z m-3897 3 c-7 -2 -21 -2 -30 0 -10 3 -4 5 12 5 17 0 24
-2 18 -5z m987 -7 c0 -2 -7 -7 -16 -10 -8 -3 -12 -2 -9 4 6 10 25 14 25 6z
m3550 -6 c0 -5 -7 -10 -15 -10 -8 0 -15 5 -15 10 0 6 7 10 15 10 8 0 15 -4 15
-10z m79 1 c11 -7 10 -11 -7 -20 -29 -16 -39 -14 -16 4 18 13 18 14 -5 8 -17
-4 -22 -3 -17 5 8 14 26 15 45 3z m-4359 -13 c0 -7 -5 -20 -10 -28 -9 -13 -11
-13 -19 -1 -7 10 -4 19 7 28 21 16 22 16 22 1z m-645 -12 c-20 -9 -34 -10 -42
-3 -12 9 -17 0 -15 -24 1 -3 -6 -6 -13 -6 -11 0 -12 4 -4 13 6 7 8 18 4 24 -4
6 12 10 47 10 52 -1 53 -1 23 -14z m1245 7 c-8 -3 -18 -11 -22 -17 -4 -6 -10
-7 -15 -3 -9 10 16 27 37 26 13 -1 13 -1 0 -6z m-740 -12 c0 -6 -4 -12 -8 -15
-5 -3 -9 1 -9 9 0 8 4 15 9 15 4 0 8 -4 8 -9z m1310 -1 c0 -5 9 -10 20 -10 11
0 20 5 20 10 0 6 5 10 10 10 15 0 12 -19 -6 -37 -10 -10 -12 -18 -5 -22 13 -8
-32 -36 -74 -45 -17 -4 -25 -3 -18 2 10 6 10 12 -1 28 -14 19 -15 19 -51 0
-25 -14 -38 -29 -42 -48 -3 -15 -9 -25 -14 -23 -4 3 -6 12 -3 19 3 7 -2 16
-10 19 -9 4 -16 13 -16 21 0 19 66 57 105 61 16 1 22 0 12 -2 -9 -2 -15 -9
-12 -14 8 -13 45 -11 45 2 0 5 4 8 9 4 5 -3 12 -1 16 5 3 5 1 10 -5 10 -6 0
-8 5 -5 10 3 6 10 10 16 10 5 0 9 -4 9 -10z m-787 -7 c-7 -2 -19 -2 -25 0 -7
3 -2 5 12 5 14 0 19 -2 13 -5z m4773 -2 c5 -5 18 -11 29 -13 11 -3 1 -6 -22
-9 -36 -4 -43 -2 -43 13 0 19 20 24 36 9z m-5209 -43 c-23 -12 -10 -38 19 -38
13 0 24 -2 24 -4 0 -2 3 -11 6 -19 7 -20 -52 -28 -85 -11 -14 8 -31 14 -38 14
-6 0 -9 9 -6 20 4 15 2 19 -10 14 -8 -3 -18 -1 -21 5 -7 11 8 16 72 26 23 4
42 12 43 18 0 7 3 6 6 -2 3 -8 -2 -18 -10 -23z m3847 17 c-7 -17 -20 -20 -28
-6 -7 10 3 21 20 21 8 0 11 -6 8 -15z m333 9 c-3 -3 -12 -4 -19 -1 -8 3 -5 6
6 6 11 1 17 -2 13 -5z m-119 -11 c-10 -2 -26 -2 -35 0 -10 3 -2 5 17 5 19 0
27 -2 18 -5z m292 -3 c0 -5 -2 -10 -4 -10 -3 0 -8 5 -11 10 -3 6 -1 10 4 10 6
0 11 -4 11 -10z m-4170 -14 c-16 -16 -31 -19 -70 -17 l-25 2 25 14 c14 8 38
14 55 15 25 0 27 -2 15 -14z m3981 -13 c5 -14 8 -31 6 -37 -2 -6 -7 3 -11 21
-4 17 -15 34 -24 36 -15 4 -15 5 1 6 10 1 22 -10 28 -26z m-3202 -4 c-11 -7
-9 -9 6 -10 19 -1 19 -2 1 -6 -15 -4 -16 -7 -5 -14 12 -7 12 -9 -1 -9 -8 -1 0
-7 17 -15 23 -10 31 -19 27 -29 -3 -9 -1 -16 6 -16 6 0 8 5 5 10 -8 12 0 13
23 1 9 -5 25 -12 35 -15 9 -3 17 -12 17 -19 0 -19 -76 -13 -161 12 -51 16 -68
26 -72 43 -4 14 0 26 11 34 25 20 33 17 26 -10 -3 -14 -1 -27 7 -32 9 -5 10
-2 6 9 -3 10 -2 17 3 17 5 0 16 16 25 36 9 22 19 33 26 28 8 -4 7 -9 -2 -15z
m2919 10 c-2 -6 -8 -10 -13 -10 -5 0 -11 4 -13 10 -2 6 4 11 13 11 9 0 15 -5
13 -11z m219 5 c-3 -3 -12 -4 -19 -1 -8 3 -5 6 6 6 11 1 17 -2 13 -5z m571
-44 c15 -1 15 -2 2 -9 -20 -12 -77 -2 -58 10 10 7 10 9 -2 9 -13 0 -13 2 -1 9
9 6 19 4 28 -5 8 -8 22 -14 31 -14z m-3751 -2 c-3 -8 -6 -5 -6 6 -1 11 2 17 5
13 3 -3 4 -12 1 -19z m3036 -18 c-3 -11 -7 -20 -9 -20 -2 0 -4 9 -4 20 0 11 4
20 9 20 5 0 7 -9 4 -20z m767 10 c8 -5 12 -11 10 -14 -3 -2 -14 2 -24 10 -22
15 -10 19 14 4z m571 -2 c0 -10 2 -10 6 0 2 6 9 12 14 12 4 0 6 -7 3 -15 -4
-9 -19 -15 -40 -15 -24 0 -34 5 -34 15 0 18 50 21 51 3z m-1192 -17 c9 -6 10
-10 2 -16 -8 -5 -5 -13 10 -26 l22 -19 -22 0 c-12 0 -25 8 -28 18 -4 9 -11 20
-17 24 -7 5 -7 8 2 8 7 0 10 5 7 10 -8 12 5 13 24 1z m631 -22 c0 -5 -4 -8 -8
-5 -4 2 -14 1 -22 -5 -13 -7 -13 -9 0 -9 13 0 13 -1 0 -10 -13 -9 -13 -10 0
-10 12 0 12 -2 2 -9 -9 -5 -1 -10 26 -14 22 -4 56 -21 78 -38 21 -18 31 -29
21 -26 -10 4 -27 2 -37 -3 -14 -8 -20 -6 -23 8 -4 13 -5 12 -6 -5 0 -12 4 -23
11 -25 8 -3 2 -15 -16 -32 -19 -20 -31 -25 -38 -18 -7 7 -19 7 -33 2 -13 -5
-26 -6 -31 -2 -4 4 -4 -1 -1 -10 4 -12 -1 -19 -14 -23 -12 -4 -18 -13 -15 -20
6 -17 -31 -65 -51 -65 -8 0 -13 6 -10 13 2 6 9 11 15 10 15 -3 35 24 27 37 -7
11 -16 2 -96 -93 -21 -24 -29 -27 -57 -21 -19 4 -29 10 -22 14 8 5 7 10 -3 19
-11 9 -31 9 -78 1 -78 -13 -87 -14 -119 -11 -24 2 -24 2 -6 16 11 8 31 15 45
15 24 1 25 2 9 14 -10 7 -18 18 -18 25 0 15 33 14 49 -1 11 -10 13 -10 7 0 -5
8 1 12 21 11 25 0 26 -1 8 -9 -19 -8 -19 -9 3 -9 12 -1 22 4 22 9 0 6 7 10 16
10 8 0 12 -4 9 -10 -3 -5 -1 -10 4 -10 6 0 11 4 11 10 0 5 11 12 25 16 14 3
25 10 25 14 0 12 58 30 95 30 18 0 42 9 55 20 13 11 28 20 35 20 15 0 47 35
39 43 -3 3 3 5 15 4 11 -1 21 -7 21 -14 0 -7 8 -13 18 -12 9 0 12 3 5 5 -7 3
-10 11 -7 17 5 15 -51 38 -63 26 -4 -4 -14 -5 -21 0 -9 6 -4 13 20 24 32 16
32 17 6 15 -15 -1 -25 -5 -22 -9 2 -4 -19 -9 -46 -11 -37 -2 -50 1 -50 10 0
10 10 12 40 7 24 -4 40 -3 40 3 0 11 -30 38 -39 36 -3 -1 -15 2 -25 6 -19 7
-19 7 0 12 24 6 64 -7 64 -22 0 -5 7 -10 16 -10 12 0 15 7 12 24 -4 19 0 26
16 29 38 8 46 7 46 -4z m-204 -19 c0 -11 -6 -20 -14 -20 -7 0 -10 5 -6 11 3 6
0 15 -7 20 -11 7 -9 9 6 9 14 0 21 -6 21 -20z m-482 -6 c21 -8 21 -54 1 -54
-8 0 -15 9 -15 20 0 11 -7 20 -15 20 -8 0 -15 5 -15 10 0 11 20 13 44 4z m709
-1 c-7 -2 -19 -2 -25 0 -7 3 -2 5 12 5 14 0 19 -2 13 -5z m-757 -18 c4 -8 11
-12 18 -9 6 3 2 -2 -8 -10 -36 -29 -74 -18 -53 15 14 23 35 25 43 4z m503 -16
c-7 -4 -20 -2 -31 4 -17 11 -17 12 0 18 22 8 49 -11 31 -22z m-664 1 c8 -13
-15 -13 -35 0 -12 8 -11 10 7 10 12 0 25 -4 28 -10z m-71 -16 c14 -5 14 -8 0
-21 -16 -16 -64 -10 -64 8 0 6 -5 7 -12 3 -7 -4 -8 -3 -4 4 8 13 54 16 80 6z
m786 -28 c0 -2 -7 -6 -15 -10 -8 -3 -15 -1 -15 4 0 6 7 10 15 10 8 0 15 -2 15
-4z m-950 -10 c0 -3 -4 -8 -10 -11 -5 -3 -10 -1 -10 4 0 6 5 11 10 11 6 0 10
-2 10 -4z m80 -5 c-20 -12 -87 -25 -78 -16 4 4 22 11 40 15 45 11 56 11 38 1z
m349 5 c-11 -9 -69 -15 -64 -6 3 6 20 10 37 10 17 0 29 -2 27 -4z m-106 -36
c3 -14 -3 -19 -25 -24 -36 -7 -79 -7 -60 1 6 2 12 9 12 15 0 17 32 36 51 31 9
-3 19 -13 22 -23z m397 20 c0 -5 -10 -10 -22 -9 -22 0 -22 1 -3 9 11 5 21 9
23 9 1 1 2 -3 2 -9z m-306 -7 c-5 -5 -12 -12 -16 -18 -4 -6 -8 -2 -8 8 0 9 7
17 17 17 9 0 12 -3 7 -7z m-421 -27 c4 -9 -6 -20 -28 -30 -41 -20 -55 -20 -55
-1 0 8 7 15 15 15 9 0 18 7 21 15 8 19 40 20 47 1z m645 1 c-16 -6 -28 -14
-28 -19 0 -4 -9 -8 -21 -8 -12 0 -19 5 -17 12 5 13 41 26 73 26 15 0 14 -3 -7
-11z m377 3 c8 -13 -5 -13 -25 0 -13 8 -13 10 2 10 9 0 20 -4 23 -10z m-825
-17 c0 -7 5 -13 11 -13 12 0 -5 -18 -41 -43 -15 -10 -44 -17 -73 -17 -26 0
-46 -4 -43 -9 3 -5 -6 -8 -20 -8 -15 0 -29 -4 -33 -9 -3 -5 -24 -10 -46 -10
-54 -2 -157 -21 -122 -23 17 -1 27 -7 27 -16 0 -8 -4 -15 -10 -15 -5 0 -10 4
-10 9 0 4 -17 5 -37 2 -21 -4 -64 -6 -96 -4 -37 2 -56 -1 -52 -7 3 -6 28 -10
56 -10 28 0 49 -5 49 -11 0 -5 -4 -8 -8 -5 -5 3 -22 1 -38 -4 -19 -5 -22 -9
-10 -9 26 -1 13 -13 -19 -16 -14 -2 -25 1 -25 6 0 5 -15 8 -32 8 -18 -1 -25
-3 -15 -6 9 -2 17 -9 17 -14 0 -15 -28 -10 -38 7 -6 11 -11 13 -16 5 -4 -6
-22 -11 -41 -11 -19 0 -37 -5 -40 -11 -11 -16 3 -23 19 -10 8 7 23 11 33 9 14
-3 12 -7 -13 -21 -17 -9 -34 -14 -37 -11 -3 3 -11 3 -18 -2 -9 -5 -7 -9 7 -14
14 -6 7 -9 -28 -15 -26 -4 -45 -11 -42 -16 3 -5 -2 -9 -10 -9 -9 0 -16 4 -16
9 0 5 -8 8 -17 7 -16 -3 -43 15 -43 28 0 3 14 6 31 6 33 0 59 19 59 44 0 15
11 20 70 31 19 4 50 13 68 21 27 13 32 20 32 51 0 32 2 35 24 31 21 -4 25 -1
28 21 2 16 10 27 22 29 15 3 18 -1 14 -21 -4 -22 -2 -25 21 -22 14 2 51 6 81
9 93 11 116 19 105 37 -4 5 -2 9 4 9 5 0 13 -4 16 -10 3 -5 24 -10 46 -10 30
0 45 6 61 26 16 18 29 23 45 19 13 -3 23 -1 23 4 0 11 38 18 88 18 19 -1 32
-6 32 -14z m-2515 -13 c3 -6 -1 -7 -9 -4 -18 7 -21 14 -7 14 6 0 13 -4 16 -10z
m-371 -21 c-32 -13 -50 -9 -24 5 14 7 29 10 34 8 5 -3 1 -9 -10 -13z m3186 12
c0 -13 -25 -20 -49 -14 -12 3 -21 1 -21 -6 0 -6 -7 -11 -16 -11 -8 0 -13 4
-10 8 3 5 -18 8 -47 6 l-52 -3 60 13 c78 16 135 19 135 7z m350 5 c0 -11 -19
-15 -25 -6 -3 5 1 10 9 10 9 0 16 -2 16 -4z m-3789 -34 c-7 -2 -18 1 -23 6 -8
8 -4 9 13 5 13 -4 18 -8 10 -11z m667 3 c6 -2 12 -11 12 -20 0 -19 -40 -20
-66 0 -10 8 -27 15 -37 15 -10 0 -16 4 -12 9 5 9 73 6 103 -4z m-478 -4 c0 -9
-23 -21 -41 -21 -4 0 -6 7 -3 15 7 16 44 21 44 6z m-235 -11 c3 -6 -1 -7 -9
-4 -18 7 -21 14 -7 14 6 0 13 -4 16 -10z m3235 -31 c0 -5 -7 -9 -15 -9 -15 0
-20 12 -9 23 8 8 24 -1 24 -14z m-724 -12 c4 -4 -7 -7 -24 -7 -18 0 -32 4 -32
8 0 10 46 9 56 -1z m-2406 -13 c0 -2 -7 -4 -15 -4 -8 0 -15 4 -15 10 0 5 7 7
15 4 8 -4 15 -8 15 -10z m1095 6 c3 -5 1 -10 -4 -10 -6 0 -11 5 -11 10 0 6 2
10 4 10 3 0 8 -4 11 -10z m2441 -3 c5 -4 -5 -8 -22 -8 -16 0 -69 -2 -119 -5
-104 -7 -110 4 -8 14 87 9 140 9 149 -1z m-656 -37 c0 -15 -7 -20 -25 -20 -40
0 -25 27 23 39 1 1 2 -8 2 -19z m-2805 0 c-3 -5 -1 -10 4 -10 6 0 11 5 11 10
0 6 19 10 43 10 37 -1 40 -2 24 -14 -25 -20 -109 -29 -119 -14 -13 22 -9 28
18 28 14 0 23 -4 19 -10z m318 3 c-7 -2 -21 -2 -30 0 -10 3 -4 5 12 5 17 0 24
-2 18 -5z m2397 -12 c0 -20 -30 -33 -50 -21 -8 5 -3 10 14 14 14 3 26 11 26
16 0 6 2 10 5 10 3 0 5 -8 5 -19z m518 12 c-10 -2 -28 -2 -40 0 -13 2 -5 4 17
4 22 1 32 -1 23 -4z m179 1 c-3 -3 -12 -4 -19 -1 -8 3 -5 6 6 6 11 1 17 -2 13
-5z m-454 -16 c-29 -5 -53 -14 -53 -19 0 -12 -51 -12 -69 0 -15 9 3 15 84 24
62 8 88 4 38 -5z m-2616 -30 c-3 -8 -6 -5 -6 6 -1 11 2 17 5 13 3 -3 4 -12 1
-19z m1730 6 c-3 -3 -12 -4 -19 -1 -8 3 -5 6 6 6 11 1 17 -2 13 -5z m1068 -14
c13 -5 14 -9 5 -9 -8 0 -24 4 -35 9 -13 5 -14 9 -5 9 8 0 24 -4 35 -9z m-430
-11 c-98 -20 -105 -21 -105 -11 0 12 35 19 100 19 l45 0 -40 -8z m372 5 c-3
-3 -12 -4 -19 -1 -8 3 -5 6 6 6 11 1 17 -2 13 -5z m110 0 c-3 -3 -12 -4 -19
-1 -8 3 -5 6 6 6 11 1 17 -2 13 -5z m-614 -11 c-7 -2 -19 -2 -25 0 -7 3 -2 5
12 5 14 0 19 -2 13 -5z m687 -3 c0 -5 -12 -10 -27 -10 -22 0 -25 2 -13 10 20
13 40 13 40 0z m83 3 c-7 -2 -21 -2 -30 0 -10 3 -4 5 12 5 17 0 24 -2 18 -5z
m-927 -31 c-10 -2 -22 0 -28 6 -6 6 0 7 19 4 21 -5 23 -7 9 -10z m982 6 c-3
-7 -20 -17 -39 -22 -19 -5 -36 -13 -39 -17 -11 -16 -29 7 -23 29 5 19 12 22
55 22 35 0 48 -4 46 -12z m-933 -8 c-3 -5 -10 -10 -16 -10 -5 0 -9 5 -9 10 0
6 7 10 16 10 8 0 12 -4 9 -10z m320 0 c-3 -5 3 -10 13 -10 31 0 87 -26 71 -33
-8 -3 0 -5 16 -5 17 0 24 2 18 5 -29 11 -8 20 70 31 97 13 217 14 217 2 0 -5
8 -11 18 -14 9 -3 -10 -3 -44 0 -61 6 -140 -8 -146 -25 -5 -15 -79 -26 -76
-11 2 7 -3 15 -9 17 -9 3 -13 -6 -13 -28 0 -30 -1 -31 -17 -17 -10 9 -28 19
-40 22 -13 4 -23 12 -23 18 0 6 -13 8 -34 4 -23 -5 -37 -2 -46 9 -15 18 -6 45
15 45 9 0 13 -4 10 -10z m-1242 -22 c36 2 39 1 22 -9 -22 -14 -90 -18 -108 -7
-7 4 -3 10 13 16 14 5 26 7 28 3 1 -4 21 -5 45 -3z m414 -4 c-3 -3 -12 -4 -19
-1 -8 3 -5 6 6 6 11 1 17 -2 13 -5z m-520 -10 c-3 -3 -12 -4 -19 -1 -8 3 -5 6
6 6 11 1 17 -2 13 -5z m248 -14 c-27 -12 -35 -12 -35 0 0 6 12 10 28 9 24 0
25 -1 7 -9z m113 2 c-10 -2 -15 -9 -11 -18 5 -12 -2 -15 -33 -12 -27 2 -40 8
-42 20 -3 14 5 17 50 15 29 0 45 -3 36 -5z m312 -2 c0 -13 -11 -13 -30 0 -12
8 -11 10 8 10 12 0 22 -4 22 -10z m-190 -17 c0 -10 -10 -13 -37 -11 -53 4 -56
28 -4 26 28 -1 41 -6 41 -15z m-460 -93 c0 -5 -7 -7 -15 -4 -8 4 -15 8 -15 10
0 2 7 4 15 4 8 0 15 -4 15 -10z m57 4 c-3 -3 -12 -4 -19 -1 -8 3 -5 6 6 6 11
1 17 -2 13 -5z m170 -10 c-3 -3 -12 -4 -19 -1 -8 3 -5 6 6 6 11 1 17 -2 13 -5z
m71 -11 c-10 -2 -26 -2 -35 0 -10 3 -2 5 17 5 19 0 27 -2 18 -5z m-143 -88
c55 -15 114 -28 130 -31 55 -10 62 -14 42 -25 -18 -11 -77 -3 -77 9 0 13 -84
34 -157 39 -62 5 -73 3 -73 -10 0 -19 -17 -17 -52 7 -34 22 -35 30 -6 43 23
10 37 8 193 -32z m6565 15 c-8 -5 -22 -9 -30 -9 -10 0 -8 3 5 9 27 12 43 12
25 0z m-6263 -42 c21 -12 44 -28 51 -35 7 -7 18 -13 23 -13 21 0 7 -27 -18
-36 -27 -11 -27 -11 27 -27 56 -17 102 -16 108 3 2 5 15 10 29 10 18 0 24 -4
19 -15 -3 -8 -1 -15 5 -15 20 0 49 21 49 35 0 23 24 18 35 -7 8 -18 23 -25 63
-32 28 -5 52 -12 52 -16 0 -5 -9 -6 -21 -3 -11 3 -31 0 -43 -7 -20 -10 -27 -9
-44 6 -12 10 -19 21 -16 26 3 4 -4 8 -16 8 -12 0 -18 -4 -15 -10 4 -6 -6 -10
-23 -10 -16 0 -45 -6 -63 -13 -19 -7 -43 -12 -54 -11 -11 1 -28 2 -37 3 -9 1
-24 8 -33 17 -8 9 -22 14 -29 11 -17 -7 -35 37 -30 71 3 15 -1 22 -14 22 -9 0
-26 7 -36 15 -11 8 -29 16 -40 16 -17 1 -18 2 -3 6 9 2 17 9 17 14 0 14 16 11
57 -13z m-289 -78 c11 -11 35 -23 53 -29 l34 -9 -45 -2 c-25 -1 -37 -4 -28 -7
23 -6 21 -61 -3 -73 -29 -16 -31 -12 -26 35 2 25 0 45 -5 45 -11 0 -68 51 -68
60 0 13 70 -3 88 -20z m1282 -28 c0 -12 -22 -32 -35 -32 -5 0 -16 9 -23 20
-11 19 -10 20 23 20 19 0 35 -4 35 -8z m15 -52 c3 -5 1 -10 -4 -10 -6 0 -11 5
-11 10 0 6 2 10 4 10 3 0 8 -4 11 -10z m-1145 -34 c0 -2 -9 -6 -20 -9 -11 -3
-20 -1 -20 4 0 5 9 9 20 9 11 0 20 -2 20 -4z m830 -6 c24 -8 24 -8 -7 -9 -17
-1 -35 4 -38 9 -7 11 9 11 45 0z m-876 -32 c9 -35 7 -41 -9 -34 -9 3 -15 0
-15 -8 0 -8 -5 -16 -11 -18 -6 -2 -2 -15 11 -30 17 -23 19 -31 10 -48 -7 -14
-17 -19 -27 -16 -10 4 -13 2 -10 -7 3 -8 1 -20 -4 -28 -7 -11 -9 -11 -9 -1 0
7 -4 10 -10 7 -5 -3 -10 0 -10 7 0 7 9 19 20 26 24 15 22 35 -10 94 -30 58
-23 78 29 78 32 0 40 -4 45 -22z m621 -10 c28 -13 30 -20 14 -51 -21 -39 -44
-56 -81 -60 -20 -2 -44 -9 -52 -16 -9 -8 -27 -13 -41 -13 -13 0 -22 -5 -19
-10 3 -5 -6 -6 -23 -1 -15 4 -38 7 -50 8 -18 0 -23 6 -23 28 0 15 3 26 8 25
19 -5 196 14 218 24 22 10 25 16 19 45 -7 37 -6 38 30 21z m50 2 c3 -5 1 -10
-4 -10 -6 0 -11 5 -11 10 0 6 2 10 4 10 3 0 8 -4 11 -10z m882 4 c-3 -3 -12
-4 -19 -1 -8 3 -5 6 6 6 11 1 17 -2 13 -5z m3116 -31 c-7 -2 -19 -2 -25 0 -7
3 -2 5 12 5 14 0 19 -2 13 -5z m-4565 -35 c18 -11 40 -34 48 -51 9 -18 24 -41
33 -51 12 -14 13 -20 4 -23 -7 -3 -13 -10 -13 -16 0 -7 -14 -18 -31 -26 -17
-7 -43 -26 -57 -42 -24 -28 -54 -31 -31 -3 9 11 8 14 -4 14 -9 0 -19 -4 -22
-10 -10 -16 -35 -12 -29 5 4 8 10 12 16 9 5 -3 12 2 14 13 3 10 22 27 42 39
24 13 36 26 34 37 -2 9 4 20 12 23 12 5 5 15 -27 41 -23 20 -41 39 -40 43 1 5
-7 6 -17 3 -14 -4 -20 0 -20 10 0 20 42 13 88 -15z m1780 22 c12 0 22 -4 22
-10 0 -11 -69 -14 -95 -4 -24 9 3 26 30 19 11 -2 30 -5 43 -5z m229 -15 c0
-19 -16 -19 -41 0 -19 14 -18 15 10 15 21 0 31 -5 31 -15z m-120 -11 c19 -5
20 -8 8 -20 -16 -16 -45 -8 -45 12 0 15 5 16 37 8z m-1687 -25 c0 -5 -16 -9
-35 -9 -22 0 -35 5 -35 13 0 9 11 12 35 9 19 -2 35 -8 35 -13z m-95 -39 c3 -5
-1 -10 -9 -10 -9 0 -16 5 -16 10 0 6 4 10 9 10 6 0 13 -4 16 -10z m2222 -26
c-3 -3 -12 -4 -19 -1 -8 3 -5 6 6 6 11 1 17 -2 13 -5z m-2537 -39 c-10 -12
-10 -15 4 -15 9 0 16 -6 16 -14 0 -11 -9 -13 -34 -9 -28 4 -35 2 -41 -16 -9
-29 -54 -30 -52 -1 1 11 8 20 15 20 17 0 85 40 91 53 1 4 6 6 8 3 3 -3 0 -12
-7 -21z m476 -22 c-11 -11 -19 6 -11 24 8 17 8 17 12 0 3 -10 2 -21 -1 -24z
m-52 -14 c-18 -20 -18 -21 0 -34 19 -14 16 -45 -4 -45 -17 0 -51 40 -48 58 2
9 14 26 28 39 31 27 52 13 24 -18z m-561 -59 c3 -11 2 -20 -2 -20 -4 0 -17 -9
-29 -20 -18 -17 -25 -18 -48 -8 -22 10 -28 10 -32 0 -4 -13 -52 -17 -52 -4 0
15 35 41 75 55 58 21 82 20 88 -3z m3002 9 c11 -17 -1 -21 -15 -4 -8 9 -8 15
-2 15 6 0 14 -5 17 -11z m-2747 -30 c-7 -5 -22 -9 -32 -9 -19 0 -19 0 -1 14
11 8 25 11 33 8 11 -4 11 -6 0 -13z m245 11 c-13 -5 -20 -15 -18 -22 5 -13
-52 -58 -73 -58 -20 0 -13 -28 13 -54 25 -25 34 -66 15 -66 -5 0 -10 7 -10 16
0 9 -9 24 -19 33 -10 9 -21 32 -23 51 -2 28 1 37 22 47 14 7 21 13 17 13 -27
0 55 49 83 49 8 0 5 -4 -7 -9z m2160 3 c-7 -2 -19 -2 -25 0 -7 3 -2 5 12 5 14
0 19 -2 13 -5z m757 -18 c0 -16 -35 -21 -44 -6 -8 12 4 21 26 21 10 0 18 -7
18 -15z m-476 -1 c9 -3 16 -14 16 -24 0 -16 35 -34 106 -54 13 -4 24 -18 27
-34 3 -16 16 -33 29 -39 21 -10 22 -11 4 -19 -11 -4 -27 -2 -37 4 -10 7 -28
12 -39 12 -13 0 -18 5 -14 14 10 25 -11 47 -72 80 -73 38 -89 86 -20 60z
m-2411 -21 c-7 -2 -19 -2 -25 0 -7 3 -2 5 12 5 14 0 19 -2 13 -5z m-198 -13
c3 -5 -1 -10 -9 -10 -9 0 -16 5 -16 10 0 6 4 10 9 10 6 0 13 -4 16 -10z m-496
-31 c16 -27 2 -39 -46 -39 -37 0 -44 -15 -12 -23 18 -5 20 -11 14 -34 -3 -15
-9 -30 -11 -32 -9 -9 -25 17 -29 48 -2 18 -6 35 -9 38 -6 7 55 63 69 63 6 0
16 -10 24 -21z m4789 5 c19 -6 4 -24 -19 -24 -19 0 -49 21 -49 34 0 6 35 1 68
-10z m-4697 -30 c-27 -20 -51 -72 -48 -108 1 -16 -4 -31 -10 -33 -18 -6 -17
48 1 84 8 15 17 36 21 46 3 11 14 21 25 24 11 3 20 10 21 17 0 6 3 5 6 -2 3
-8 -4 -20 -16 -28z m377 -21 c2 -9 -8 -13 -32 -13 -20 0 -36 -4 -36 -9 0 -10
35 -21 70 -21 14 0 40 -9 58 -20 18 -11 39 -20 47 -20 8 0 15 -7 15 -16 0 -8
5 -12 10 -9 6 4 8 11 5 16 -4 5 9 9 27 9 44 0 158 -67 158 -92 0 -10 7 -18 15
-18 8 0 15 -7 15 -15 0 -8 -7 -15 -15 -15 -9 0 -12 -6 -9 -15 7 -17 -4 -19
-26 -5 -10 6 -11 10 -2 10 6 0 12 4 12 10 0 5 -7 7 -15 4 -9 -4 -15 0 -15 9 0
9 -20 21 -52 32 -29 9 -55 20 -58 24 -9 13 -89 41 -118 41 -32 1 -110 21 -133
35 -9 6 -21 27 -27 47 -9 34 -8 37 11 41 39 8 90 2 95 -10z m6172 7 c-8 -5
-26 -9 -40 -9 -23 0 -23 1 -5 9 11 5 29 9 40 9 17 1 17 -1 5 -9z m-117 -37
c-7 -2 -19 -2 -25 0 -7 3 -2 5 12 5 14 0 19 -2 13 -5z m-3143 -28 c0 -25 -14
-29 -36 -10 -8 7 -7 13 5 22 24 18 31 16 31 -12z m3031 -10 c-41 -18 -42 -18
-35 0 4 9 19 15 38 15 l31 -1 -34 -14z m-2656 -25 c7 -11 10 -11 -67 -16 -46
-3 -58 0 -58 11 0 12 14 15 59 15 33 0 63 -4 66 -10z m105 0 c0 -5 -9 -10 -21
-10 -11 0 -17 5 -14 10 3 6 13 10 21 10 8 0 14 -4 14 -10z m-400 -70 c0 -5 -4
-10 -10 -10 -5 0 -10 5 -10 10 0 6 5 10 10 10 6 0 10 -4 10 -10z m-3425 -68
c5 -12 15 -22 22 -22 18 0 16 -17 -2 -24 -8 -3 -15 -1 -15 5 0 5 -11 14 -25
19 -16 6 -25 17 -25 30 0 28 32 23 45 -8z m645 8 c0 -5 -4 -10 -10 -10 -5 0
-10 5 -10 10 0 6 5 10 10 10 6 0 10 -4 10 -10z m265 0 c3 -5 17 -10 30 -10 13
0 26 -4 29 -9 10 -15 -23 -21 -77 -15 -51 6 -105 22 -79 23 7 1 10 6 7 11 -4
6 11 10 39 10 25 0 48 -4 51 -10z m4720 2 c35 -5 50 -12 50 -22 0 -13 -22 -14
-150 -11 -144 3 -185 10 -185 31 0 11 206 12 285 2z m555 -11 c0 -14 -25 -20
-51 -14 -22 6 -22 7 -3 14 27 11 54 11 54 0z m-6259 -25 c-7 -8 -10 -19 -7
-25 11 -17 -30 -22 -63 -8 l-33 14 54 20 c58 21 67 21 49 -1z m419 -7 c0 -5
-11 -9 -25 -9 -28 0 -34 16 -7 23 20 4 32 -1 32 -14z m4396 6 c14 -13 12 -15
-15 -15 -30 0 -46 11 -34 24 11 11 34 7 49 -9z m-3716 -4 c0 -5 12 -12 26 -15
14 -4 24 -12 21 -19 -6 -17 -90 -14 -109 3 -13 13 -13 16 6 26 26 15 56 17 56
5z m-90 -26 c0 -8 -6 -15 -14 -15 -8 0 -16 7 -20 15 -4 10 1 15 14 15 11 0 20
-7 20 -15z m2997 -4 c1 -14 -3 -17 -18 -14 -15 4 -17 8 -8 19 16 19 24 17 26
-5z m-3822 -1 c-3 -5 -19 -10 -35 -10 -16 0 -32 -4 -35 -10 -3 -5 -25 -10 -48
-9 -36 1 -38 2 -17 9 14 4 21 9 15 10 -17 4 48 18 88 19 23 1 36 -3 32 -9z
m155 -5 c0 -19 -27 -33 -56 -27 -30 6 -31 29 -1 35 44 8 57 7 57 -8z m-112
-25 c2 -20 -3 -33 -13 -36 -8 -3 -12 -10 -9 -15 3 -5 -2 -9 -11 -9 -11 0 -14
6 -10 23 4 13 8 32 10 43 2 10 4 20 4 22 1 1 7 2 14 2 7 0 14 -13 15 -30z
m3860 13 c2 -8 -6 -13 -22 -13 -25 0 -33 10 -19 24 10 10 36 3 41 -11z m2142
13 c0 -11 -19 -15 -25 -6 -3 5 1 10 9 10 9 0 16 -2 16 -4z m35 -6 c3 -5 -1
-10 -9 -10 -9 0 -16 5 -16 10 0 6 4 10 9 10 6 0 13 -4 16 -10z m80 -10 c3 -6
-1 -7 -9 -4 -18 7 -21 14 -7 14 6 0 13 -4 16 -10z m1160 0 c-11 -5 -27 -9 -35
-9 -13 -1 -13 0 0 9 8 5 24 9 35 9 l20 0 -20 -9z m-1098 -6 c-3 -3 -12 -4 -19
-1 -8 3 -5 6 6 6 11 1 17 -2 13 -5z m-6535 -26 c-3 -12 -7 -17 -9 -11 -3 7
-19 9 -43 6 -25 -4 -40 -2 -40 5 0 10 26 17 77 21 17 1 20 -3 15 -21z m6696
15 c-10 -2 -28 -2 -40 0 -13 2 -5 4 17 4 22 1 32 -1 23 -4z m-6798 -43 c0 -5
-7 -10 -16 -10 -8 0 -13 -4 -10 -9 3 -5 -1 -11 -9 -15 -16 -6 -19 3 -9 28 7
17 44 22 44 6z m-85 -10 c-3 -5 -1 -10 4 -10 6 0 11 -7 11 -15 0 -18 -36 -20
-43 -2 -3 9 -8 9 -16 1 -7 -6 -23 -9 -36 -6 -20 3 -22 7 -11 17 21 21 103 35
91 15z m455 0 c0 -5 -10 -10 -22 -9 -22 0 -22 1 -3 9 11 5 21 9 23 9 1 1 2 -3
2 -9z m1011 -6 c30 -9 58 -20 64 -25 5 -5 29 -9 52 -9 54 0 93 -24 93 -56 0
-17 6 -24 19 -24 10 0 30 -9 44 -20 14 -11 37 -20 52 -20 14 0 24 -4 21 -9 -6
-9 51 -33 114 -49 22 -5 36 -15 38 -27 4 -16 0 -17 -29 -11 -19 5 -48 9 -65
11 -18 2 -41 8 -52 14 -12 6 -30 11 -41 11 -12 0 -21 4 -21 9 0 5 -26 19 -57
32 -32 13 -69 29 -83 36 -14 7 -31 13 -38 13 -14 0 -119 40 -179 67 -34 16
-42 40 -21 61 16 16 24 15 89 -4z m-1784 -60 c-3 -3 -12 -4 -19 -1 -8 3 -5 6
6 6 11 1 17 -2 13 -5z m705 -6 c-9 -9 -15 -9 -24 0 -9 9 -7 12 12 12 19 0 21
-3 12 -12z m-842 -78 c0 -5 -4 -10 -10 -10 -5 0 -10 5 -10 10 0 6 5 10 10 10
6 0 10 -4 10 -10z m-260 -62 c-11 -12 -20 -27 -20 -34 0 -6 -7 -14 -15 -18
-27 -10 -15 -26 25 -32 50 -8 60 -20 17 -21 -18 0 -45 -3 -62 -5 -31 -6 -105
24 -105 42 0 12 82 60 103 60 10 0 17 4 17 9 0 8 12 12 53 20 4 0 -1 -9 -13
-21z m2340 -73 c0 -8 -4 -15 -10 -15 -5 0 -10 7 -10 15 0 8 5 15 10 15 6 0 10
-7 10 -15z m410 0 c0 -8 -9 -15 -20 -15 -22 0 -27 15 -7 23 21 9 27 7 27 -8z
m-72 -23 c16 -10 5 -42 -14 -42 -8 0 -14 10 -14 25 0 26 7 30 28 17z m-330
-119 c-17 -42 -42 -65 -61 -57 -12 4 -14 11 -8 22 16 29 51 62 66 62 12 0 13
-5 3 -27z m-2421 -7 c0 -8 -5 -14 -11 -13 -6 1 -11 -14 -12 -33 -1 -55 -3 -60
-20 -60 -13 0 -13 2 2 18 17 16 17 17 -4 20 -12 2 -22 8 -22 13 0 6 5 7 10 4
6 -3 10 -2 10 3 0 9 38 62 44 62 1 0 3 -6 3 -14z m658 -16 c-3 -5 -12 -10 -18
-10 -7 0 -6 4 3 10 19 12 23 12 15 0z m-50 -61 c-7 -20 -8 -21 -17 -4 -8 12
-7 20 3 26 18 11 22 5 14 -22z m1685 -39 c-8 -4 -32 -22 -54 -39 -21 -17 -43
-31 -48 -31 -16 0 -21 32 -7 41 8 5 15 4 17 -1 5 -13 32 -13 32 0 0 12 62 51
69 44 3 -3 -1 -9 -9 -14z m-1700 -24 c0 -33 -10 -57 -21 -50 -16 9 -11 74 6
74 9 0 15 -9 15 -24z m-657 -16 c-3 -11 -9 -17 -14 -15 -10 7 -1 35 11 35 5 0
6 -9 3 -20z m2185 -42 c7 -13 19 -33 28 -46 17 -23 17 -23 -12 -16 -35 8 -30
2 -38 47 -8 41 5 49 22 15z m292 -16 c0 -13 -2 -14 -9 -3 -6 9 -11 10 -15 2
-9 -14 -26 -14 -26 -1 0 6 7 10 15 10 8 0 15 5 15 11 0 5 5 7 10 4 6 -3 10
-14 10 -23z m-1840 -11 c0 -5 3 -16 6 -25 4 -10 1 -16 -9 -16 -20 0 -29 14
-21 34 7 17 24 22 24 7z m-692 -23 c22 -22 14 -39 -15 -32 -46 11 -48 10 -45
-13 2 -16 -2 -23 -12 -23 -20 0 -20 13 -1 50 16 32 51 40 73 18z m2518 -23
c-3 -8 -1 -27 5 -42 5 -14 7 -39 4 -55 -7 -28 -7 -28 -35 -11 -16 9 -27 20
-24 25 3 4 -6 8 -20 8 -14 0 -26 5 -26 10 0 6 6 10 14 10 15 0 26 21 26 51 0
15 7 19 31 19 24 0 30 -4 25 -15z m154 -9 c0 -3 -4 -8 -10 -11 -5 -3 -10 -1
-10 4 0 6 5 11 10 11 6 0 10 -2 10 -4z m-486 -51 c-4 -8 -10 -15 -15 -15 -5 0
-9 7 -9 15 0 8 7 15 15 15 9 0 12 -6 9 -15z m-2284 -14 c0 -12 -25 -21 -57
-21 -21 0 -24 2 -13 15 13 16 70 21 70 6z m720 -11 c0 -5 -5 -10 -11 -10 -5 0
-7 5 -4 10 3 6 8 10 11 10 2 0 4 -4 4 -10z m1530 -4 c0 -2 -7 -7 -16 -10 -8
-3 -12 -2 -9 4 6 10 25 14 25 6z m-1517 -34 c-2 -6 2 -12 8 -12 6 0 4 -7 -5
-15 -15 -15 -56 -21 -56 -7 1 32 15 53 34 50 11 -2 20 -9 19 -16z m-773 -12
c0 -10 -26 -20 -51 -20 -23 0 -25 16 -3 28 18 10 54 5 54 -8z m2695 -36 c-18
-28 -20 -64 -2 -64 19 0 20 -60 2 -80 -9 -10 -20 -31 -24 -46 -5 -20 -14 -28
-27 -27 -42 4 -94 22 -120 42 -15 12 -41 21 -60 21 -42 0 -37 22 9 41 18 7 35
18 40 23 4 7 10 6 17 -4 6 -10 10 -11 10 -3 0 8 10 11 28 7 18 -4 32 -1 39 8
14 19 23 58 12 58 -5 0 -9 -6 -9 -14 0 -8 -7 -16 -15 -20 -17 -6 -19 -1 -5 23
5 10 23 21 39 24 17 4 32 14 36 26 4 13 12 17 26 14 18 -5 19 -7 4 -29z
m-1985 -16 c0 -10 7 -18 16 -18 14 0 14 -1 0 -16 -18 -17 -32 -9 -54 33 -19
35 -15 44 13 31 14 -6 25 -19 25 -30z m-50 -93 c14 -17 9 -28 -33 -56 -18 -12
-26 -16 -19 -9 6 8 12 21 12 30 0 9 -3 11 -8 5 -11 -16 -32 -16 -32 -1 0 14
37 45 56 45 6 1 17 -6 24 -14z m-970 -21 c0 -11 -38 -41 -41 -32 -6 24 -5 37
2 32 5 -3 9 -1 9 4 0 5 7 9 15 9 8 0 15 -6 15 -13z m885 -48 c19 -21 16 -35
-8 -29 -12 3 -39 8 -59 10 -21 3 -42 11 -49 19 -10 12 -2 14 47 13 32 -1 63
-7 69 -13z m-15 -69 c0 -12 -14 -38 -30 -57 -27 -31 -30 -32 -24 -11 21 78 54
119 54 68z m-1162 -19 c-3 -15 -25 -26 -51 -27 -16 -1 -16 1 -5 13 8 8 23 16
34 19 10 2 20 5 22 6 1 0 1 -5 0 -11z m3298 -80 c24 -2 46 1 47 7 2 5 7 -11
11 -36 7 -47 0 -99 -13 -99 -4 0 -8 -11 -9 -24 -1 -18 6 -28 33 -40 19 -9 37
-21 40 -25 8 -14 -55 -1 -82 16 -19 13 -21 18 -11 30 14 18 -6 35 -31 25 -9
-3 -1 8 16 25 22 22 30 37 26 52 -6 24 -23 28 -23 5 0 -8 -4 -12 -10 -9 -5 3
-10 1 -10 -4 0 -6 -7 -11 -15 -11 -9 0 -12 -6 -9 -15 4 -8 2 -15 -4 -15 -6 0
-17 -2 -25 -5 -8 -4 -14 0 -14 10 0 8 4 15 8 15 4 0 12 12 17 28 5 15 13 35
17 45 4 10 3 17 -4 17 -7 0 -28 8 -49 17 l-37 16 35 6 c27 5 37 3 44 -10 5
-11 24 -18 52 -21z m-1326 26 c0 -8 -19 -13 -24 -6 -3 5 1 9 9 9 8 0 15 -2 15
-3z m-2180 -16 c0 -11 -29 -23 -36 -15 -3 3 -4 10 0 15 7 11 36 11 36 0z m650
-38 c0 -5 20 -15 45 -21 28 -7 45 -17 45 -26 0 -10 6 -13 16 -9 9 3 33 6 55 6
28 0 39 4 39 15 0 8 -6 15 -12 15 -7 0 -5 5 5 11 9 6 27 7 40 3 l22 -8 -25 -8
c-19 -6 -16 -6 10 -2 57 9 93 5 108 -10 13 -13 13 -17 -1 -30 -9 -9 -27 -16
-41 -16 -14 0 -26 -4 -26 -10 0 -5 -9 -10 -21 -10 -11 0 -17 -4 -14 -10 3 -5
14 -10 25 -10 10 0 20 -7 24 -15 3 -8 18 -21 33 -28 15 -6 42 -27 59 -44 17
-18 39 -33 48 -33 9 0 16 -4 16 -8 0 -5 10 -8 23 -8 13 1 22 -5 22 -14 0 -10
-22 -20 -68 -30 -42 -10 -73 -23 -78 -33 -13 -22 -101 -24 -119 -2 -16 20 -23
19 -81 -7 -45 -21 -63 -38 -39 -38 5 0 7 -7 4 -15 -7 -16 -45 -22 -204 -29
-126 -6 -147 -11 -233 -51 -45 -21 -61 -25 -70 -15 -16 16 6 31 82 56 34 10
61 25 61 31 0 16 -77 18 -114 3 -14 -5 -40 -7 -56 -3 -29 5 -30 6 -15 29 26
40 15 64 -31 64 -25 0 -65 -51 -62 -79 2 -20 12 -28 47 -38 24 -7 46 -15 50
-18 13 -14 -29 -25 -96 -25 -72 0 -73 0 -73 26 0 38 -18 64 -45 64 -31 0 -38
12 -21 36 10 14 17 16 27 7 33 -26 90 10 105 66 6 22 9 23 73 17 144 -13 197
-23 173 -31 -35 -12 -23 -39 23 -50 45 -10 64 -29 65 -62 0 -26 24 -31 37 -9
9 16 77 46 103 46 10 0 23 6 29 14 21 25 -22 39 -98 31 -55 -5 -70 -4 -80 9
-8 9 -19 16 -26 16 -22 0 -24 26 -3 44 24 21 94 47 102 39 8 -8 -14 -33 -29
-33 -7 0 -18 -7 -25 -15 -11 -13 -6 -15 33 -15 36 0 47 4 52 19 4 13 24 22 72
32 40 9 70 21 77 32 17 28 -5 34 -91 25 -43 -4 -86 -5 -95 -2 -10 3 -28 -1
-40 -8 -41 -23 -139 -33 -228 -25 -135 14 -171 12 -233 -7 -31 -11 -60 -17
-62 -14 -15 15 35 49 84 58 30 6 66 18 80 27 18 11 61 18 146 24 154 10 255
29 255 49 0 4 16 11 35 14 19 4 41 16 48 26 8 11 17 17 20 13 4 -3 7 -1 7 5 0
7 7 12 15 12 8 0 15 -4 15 -10z m2487 -27 c0 -20 -20 -43 -36 -43 -16 0 -13
21 6 42 20 23 30 23 30 1z m-1818 -103 c1 -13 0 -13 -9 0 -5 8 -10 11 -10 5
-1 -25 -20 23 -19 50 l0 30 19 -35 c11 -19 19 -42 19 -50z m-1588 63 c0 -5 2
-16 4 -26 3 -15 1 -16 -11 -6 -7 6 -12 15 -9 19 3 5 -1 11 -7 13 -8 3 -6 6 5
6 9 1 17 -2 18 -6z m599 -13 c0 -5 -7 -10 -15 -10 -8 0 -15 5 -15 10 0 6 7 10
15 10 8 0 15 -4 15 -10z m83 3 c-7 -2 -19 -2 -25 0 -7 3 -2 5 12 5 14 0 19 -2
13 -5z m1287 -48 c0 -10 -76 -55 -92 -55 -29 0 -20 14 25 36 42 21 67 28 67
19z m1775 -4 c3 -5 1 -12 -5 -16 -5 -3 -10 1 -10 9 0 18 6 21 15 7z m-3705
-41 c0 -5 -4 -10 -10 -10 -5 0 -10 -8 -11 -17 0 -11 -2 -13 -6 -5 -3 7 -2 19
1 27 6 17 26 20 26 5z m1545 -89 c3 -6 -2 -11 -12 -11 -33 0 -44 33 -25 72
l17 35 7 -43 c3 -24 9 -48 13 -53z m-1621 45 c-10 -20 -24 -36 -31 -36 -7 0
-13 -4 -13 -10 0 -17 -60 -41 -93 -38 l-32 4 45 22 c25 12 65 39 90 61 24 22
46 39 48 37 1 -2 -5 -20 -14 -40z m6662 7 c-7 -7 -26 7 -26 19 0 6 6 6 15 -2
9 -7 13 -15 11 -17z m-6473 -7 c4 -11 1 -13 -10 -9 -11 4 -14 2 -9 -5 5 -9 -5
-12 -35 -12 -47 0 -47 2 -4 24 37 20 51 20 58 2z m494 -2 c-3 -3 -12 -4 -19
-1 -8 3 -5 6 6 6 11 1 17 -2 13 -5z m3300 -16 c-3 -8 -6 -5 -6 6 -1 11 2 17 5
13 3 -3 4 -12 1 -19z m-3344 5 c-7 -2 -21 -2 -30 0 -10 3 -4 5 12 5 17 0 24
-2 18 -5z m50 -10 c-7 -2 -19 -2 -25 0 -7 3 -2 5 12 5 14 0 19 -2 13 -5z
m2457 -33 c0 -5 -7 -7 -15 -4 -8 4 -15 8 -15 10 0 2 7 4 15 4 8 0 15 -4 15
-10z m-1573 -83 c-29 -52 -64 -87 -113 -112 -21 -11 -40 -23 -42 -27 -5 -11
-72 -10 -72 1 0 5 17 21 38 36 20 16 47 40 59 54 16 19 25 23 31 14 5 -9 22 7
52 48 40 55 45 59 57 43 10 -14 9 -24 -10 -57z m2618 45 c-3 -3 -11 0 -18 7
-9 10 -8 11 6 5 10 -3 15 -9 12 -12z m-4340 -2 c11 -5 15 -9 8 -9 -7 -1 -23
-12 -37 -26 -14 -14 -33 -25 -42 -25 -9 0 -40 -11 -68 -24 -104 -49 -133 -58
-151 -49 -14 8 3 18 81 51 55 23 104 42 109 42 6 0 24 11 40 25 34 27 32 27
60 15z m1620 -10 c3 -6 -1 -7 -9 -4 -18 7 -21 14 -7 14 6 0 13 -4 16 -10z
m1563 3 c-10 -2 -18 -9 -18 -14 0 -5 -11 -8 -24 -7 -38 3 -11 28 28 27 17 -1
23 -3 14 -6z m-144 -35 c-3 -4 -12 -8 -20 -8 -12 0 -13 4 -3 21 9 17 13 19 19
8 5 -7 6 -17 4 -21z m1316 -8 c0 -5 -5 -10 -11 -10 -5 0 -7 5 -4 10 3 6 8 10
11 10 2 0 4 -4 4 -10z m-3932 -27 c6 -19 -28 -29 -39 -12 -5 8 -9 18 -9 22 0
13 43 3 48 -10z m2552 -50 c14 -9 28 -21 32 -27 8 -12 -1 -36 -14 -36 -5 0
-20 -11 -34 -25 -14 -14 -29 -25 -33 -25 -5 0 -11 -9 -14 -21 -3 -12 -10 -18
-16 -14 -6 3 -9 10 -6 14 2 5 -6 6 -19 4 -21 -4 -23 -2 -19 21 3 14 11 31 19
37 16 13 19 39 4 39 -20 0 9 38 32 43 40 8 43 7 68 -10z m1716 -8 c14 -13 13
-15 -5 -15 -12 0 -24 0 -28 -1 -5 0 -9 7 -11 15 -4 20 25 21 44 1z m-5073 -21
c-3 -8 -12 -13 -20 -10 -8 3 -17 6 -19 6 -3 0 -2 5 1 10 11 17 45 12 38 -6z
m3077 -5 c0 -5 13 -9 29 -9 17 0 33 -4 36 -10 3 -5 1 -10 -5 -10 -6 0 -18 -6
-26 -14 -7 -8 -22 -12 -33 -9 -10 2 -35 0 -56 -6 -37 -10 -125 -4 -125 8 0 3
25 20 55 37 40 22 64 29 90 26 19 -2 35 -8 35 -13z m1404 -4 c-4 -8 -10 -15
-15 -15 -4 0 -6 7 -3 15 4 8 10 15 15 15 4 0 6 -7 3 -15z m-4484 -60 c0 -16
-1 -16 -37 -20 -25 -3 -21 21 5 28 29 8 32 7 32 -8z m-81 -14 c9 -6 10 -11 2
-15 -6 -4 -11 -20 -11 -35 0 -31 -18 -41 -72 -41 -32 0 -38 23 -10 39 30 18 0
12 -93 -18 -140 -45 -166 -52 -227 -57 -49 -4 -57 -2 -52 11 4 8 10 15 15 15
5 0 6 18 3 39 -6 39 -6 40 32 50 22 6 66 11 99 10 l60 0 -52 -22 c-29 -12 -53
-28 -53 -34 0 -18 20 -16 56 6 27 16 164 46 279 59 6 1 16 -2 24 -7z m3041
-22 c57 -11 116 -18 131 -15 18 3 29 1 29 -6 0 -6 12 -9 33 -6 17 3 40 2 51
-1 17 -6 16 -9 -10 -26 -41 -26 -74 -58 -74 -71 0 -9 -10 -9 -37 -2 -21 5 -66
13 -100 18 -55 6 -66 12 -102 49 -23 24 -41 47 -41 52 0 5 -8 9 -17 9 -15 0
-16 2 -3 10 20 13 23 13 140 -11z m-192 -24 c-16 -19 -31 -25 -62 -25 -42 0
-76 -14 -64 -26 4 -3 2 -12 -5 -18 -22 -23 -71 -33 -117 -26 -38 6 -40 8 -15
10 25 2 26 3 8 7 -37 7 -26 33 21 54 36 15 154 39 243 48 7 0 3 -10 -9 -24z
m-3378 -4 c13 -25 13 -31 0 -31 -5 0 -10 6 -10 13 0 9 -11 12 -34 9 -18 -2
-42 -2 -52 1 -17 3 -16 5 6 15 40 17 78 14 90 -7z m10320 -6 c0 -12 -14 -15
-69 -15 -65 0 -90 8 -74 24 3 3 37 6 75 6 54 0 68 -3 68 -15z m123 5 l48 0 -3
-57 c-2 -46 -7 -59 -20 -61 -16 -3 -17 2 -12 42 l7 46 -57 0 c-50 0 -56 2 -56
21 0 17 4 20 23 15 12 -3 44 -6 70 -6z m333 -5 c-3 -9 0 -15 9 -15 8 0 15 7
15 15 0 8 5 15 10 15 6 0 10 -7 10 -15 0 -10 10 -15 30 -15 18 0 30 -5 30 -13
0 -8 -11 -13 -27 -13 -34 1 -39 -27 -5 -32 30 -5 28 -22 -3 -22 -16 0 -25 -6
-25 -15 0 -10 10 -15 30 -15 20 0 30 -5 30 -15 0 -12 -14 -15 -70 -15 -56 0
-70 3 -70 15 0 10 10 15 30 15 20 0 30 5 30 15 0 9 -9 15 -25 15 -31 0 -33 17
-3 22 31 4 35 28 4 28 -13 0 -27 4 -30 8 -9 15 6 52 21 52 9 0 13 -6 9 -15z
m230 4 c5 -8 9 -8 14 1 4 7 13 9 19 6 16 -11 13 -46 -4 -46 -16 0 -19 -9 -9
-34 3 -9 10 -14 14 -11 5 3 9 -13 8 -35 0 -40 -13 -53 -24 -25 -4 8 -11 12
-17 8 -6 -4 -8 2 -4 16 9 37 -11 81 -39 81 -30 0 -32 -18 -1 -22 18 -2 23 -10
25 -42 4 -43 -8 -62 -34 -52 -13 5 -15 9 -6 18 17 17 15 48 -3 48 -10 0 -15
-10 -15 -29 0 -27 -15 -49 -25 -39 -2 2 -1 36 2 76 l6 72 33 0 c19 0 34 5 34
10 0 13 17 13 26 -1z m-376 -74 c24 -76 20 -109 -7 -67 -20 29 -68 30 -76 2
-3 -11 -13 -20 -22 -20 -10 0 -15 6 -13 13 3 6 15 42 27 80 19 56 26 67 45 67
19 0 26 -11 46 -75z m78 -2 c-2 -61 -6 -78 -18 -78 -12 0 -16 17 -18 78 -3 72
-2 77 18 77 20 0 21 -5 18 -77z m-9609 58 c17 -11 5 -31 -19 -31 -24 0 -36 20
-19 31 8 5 16 9 19 9 3 0 11 -4 19 -9z m2801 -8 c14 -9 26 -17 28 -18 7 -5
-12 -35 -22 -35 -18 1 -56 37 -56 54 0 21 19 20 50 -1z m6410 -38 l0 -35 -60
0 -60 0 0 35 0 35 60 0 60 0 0 -35z m-7560 4 c0 -6 -4 -7 -10 -4 -5 3 -10 11
-10 16 0 6 5 7 10 4 6 -3 10 -11 10 -16z m7690 -18 c0 -37 -2 -40 -32 -44 -20
-2 -10 -4 25 -5 42 -2 57 -6 55 -14 -3 -8 -29 -14 -71 -16 l-67 -3 0 61 0 60
45 0 45 0 0 -39z m-9472 2 c-3 -17 -48 -46 -57 -38 -2 2 4 16 13 30 19 29 49
34 44 8z m2869 -9 c42 -7 51 -12 44 -23 -8 -13 -17 -13 -65 -1 -31 7 -56 14
-56 16 0 14 14 34 19 26 3 -5 30 -13 58 -18z m-3037 -37 c0 -25 -38 -49 -85
-54 -60 -7 -58 9 7 41 58 29 78 32 78 13z m9430 3 c0 -14 37 -12 44 3 5 10 7
10 12 0 3 -7 12 -13 20 -13 8 0 14 -7 14 -15 0 -12 -14 -15 -68 -15 -78 0 -89
6 -64 31 19 20 42 25 42 9z m-7034 -32 c-9 -5 -21 -6 -28 -2 -8 5 -5 10 8 14
25 10 41 0 20 -12z m1955 -5 c10 -60 -3 -67 -53 -32 -23 17 -27 24 -16 30 16
11 68 12 69 2z m-2043 -18 c13 -4 29 -2 37 5 8 6 16 7 19 2 6 -10 -29 -25 -51
-23 -6 1 -18 -7 -25 -18 -13 -19 -16 -19 -36 -5 -12 8 -27 14 -34 13 -25 -3
-38 1 -38 12 0 6 10 9 23 7 13 -2 29 2 36 9 7 8 20 12 29 9 9 -2 27 -7 40 -11z
m-4123 -41 c17 -13 7 -29 -22 -38 -20 -6 -23 -4 -23 19 0 29 22 61 29 42 2 -7
9 -17 16 -23z m1575 -54 c-7 -16 -16 -30 -21 -30 -16 0 -9 49 8 59 25 13 28 7
13 -29z m-1774 -75 c-15 -14 -31 -23 -36 -20 -5 3 -11 1 -15 -5 -3 -5 -12 -10
-18 -10 -7 0 8 14 33 30 55 37 73 39 36 5z"/>
<path d="M3368 4423 c6 -2 18 -2 25 0 6 3 1 5 -13 5 -14 0 -19 -2 -12 -5z"/>
<path d="M7248 4113 c7 -3 16 -2 19 1 4 3 -2 6 -13 5 -11 0 -14 -3 -6 -6z"/>
<path d="M7963 3688 c-4 -8 4 -12 20 -9 4 1 7 -6 5 -15 -2 -9 3 -19 10 -21 6
-3 12 2 12 11 0 9 5 16 10 16 6 0 10 6 10 14 0 14 -58 17 -67 4z"/>
<path d="M6728 3673 c7 -3 16 -2 19 1 4 3 -2 6 -13 5 -11 0 -14 -3 -6 -6z"/>
<path d="M6784 2174 c21 -7 43 -11 50 -7 12 8 -26 21 -64 21 -20 1 -17 -2 14
-14z"/>
<path d="M6898 2123 c7 -3 16 -2 19 1 4 3 -2 6 -13 5 -11 0 -14 -3 -6 -6z"/>
<path d="M3974 884 c3 -9 6 -18 6 -20 0 -13 66 -1 87 16 l26 20 -63 0 c-53 0
-61 -2 -56 -16z"/>
<path d="M3610 829 c0 -5 5 -7 10 -4 6 3 10 8 10 11 0 2 -4 4 -10 4 -5 0 -10
-5 -10 -11z"/>
<path d="M5735 370 c4 -6 11 -8 16 -5 14 9 11 15 -7 15 -8 0 -12 -5 -9 -10z"/>
<path d="M5548 343 c6 -2 18 -2 25 0 6 3 1 5 -13 5 -14 0 -19 -2 -12 -5z"/>
<path d="M12567 336 c-11 -27 -8 -36 8 -36 16 0 17 5 6 34 -7 18 -8 18 -14 2z"/>
<path d="M12218 323 c12 -2 30 -2 40 0 9 3 -1 5 -23 4 -22 0 -30 -2 -17 -4z"/>
<path d="M12370 315 c0 -8 7 -15 15 -15 8 0 15 7 15 15 0 8 -7 15 -15 15 -8 0
-15 -7 -15 -15z"/>
<path d="M11675 13273 c11 -3 24 -9 30 -14 15 -14 45 -10 45 6 0 11 -11 15
-47 14 -27 -1 -39 -3 -28 -6z"/>
<path d="M9410 13245 c0 -8 5 -15 10 -15 6 0 10 7 10 15 0 8 -4 15 -10 15 -5
0 -10 -7 -10 -15z"/>
<path d="M9450 13190 c0 -5 5 -10 10 -10 6 0 10 5 10 10 0 6 -4 10 -10 10 -5
0 -10 -4 -10 -10z"/>
<path d="M9380 12995 c0 -8 5 -15 10 -15 6 0 10 7 10 15 0 8 -4 15 -10 15 -5
0 -10 -7 -10 -15z"/>
<path d="M11550 12885 c0 -9 6 -12 15 -9 8 4 15 10 15 15 0 5 -7 9 -15 9 -8 0
-15 -7 -15 -15z"/>
<path d="M8415 12754 c-32 -78 -12 -129 56 -140 39 -7 59 10 78 65 17 53 14
70 -16 81 -16 6 -36 15 -45 20 -35 20 -57 12 -73 -26z"/>
<path d="M9260 12758 c0 -7 9 -19 21 -26 19 -12 20 -11 17 10 -3 24 -38 39
-38 16z"/>
<path d="M8907 12714 c-13 -13 -7 -42 9 -48 33 -13 45 -7 42 22 -3 26 -34 43
-51 26z"/>
<path d="M11553 12655 c-21 -24 -16 -47 10 -43 16 2 23 11 25 31 4 30 -14 36
-35 12z"/>
<path d="M9190 12611 c0 -32 16 -42 26 -16 3 8 -1 22 -10 30 -15 15 -16 14
-16 -14z"/>
<path d="M8901 12604 c0 -11 3 -14 6 -6 3 7 2 16 -1 19 -3 4 -6 -2 -5 -13z"/>
<path d="M9105 12610 c-3 -5 -1 -10 4 -10 6 0 11 5 11 10 0 6 -2 10 -4 10 -3
0 -8 -4 -11 -10z"/>
<path d="M9010 12516 c0 -9 7 -16 16 -16 9 0 14 5 12 12 -6 18 -28 21 -28 4z"/>
<path d="M12211 12444 c-12 -15 -21 -31 -21 -36 0 -5 -28 -39 -63 -76 -77 -83
-104 -126 -113 -180 -6 -40 -5 -42 18 -42 14 0 39 7 57 16 23 11 45 14 79 10
120 -17 163 -18 179 -5 20 17 123 227 123 251 0 10 -7 18 -17 18 -19 0 -111
34 -155 56 -39 21 -64 17 -87 -12z"/>
<path d="M11247 12363 c-4 -3 -7 -17 -7 -30 0 -24 0 -24 30 -6 17 9 30 23 30
30 0 13 -41 18 -53 6z"/>
<path d="M9130 12315 c0 -8 7 -15 16 -15 14 0 14 3 4 15 -7 8 -14 15 -16 15
-2 0 -4 -7 -4 -15z"/>
<path d="M11287 12262 c-10 -10 -17 -24 -17 -31 0 -13 29 -62 43 -72 15 -11
-33 -18 -63 -9 -16 4 -31 6 -34 2 -3 -3 -6 -27 -6 -53 0 -46 -1 -47 -35 -53
-19 -4 -35 -12 -35 -19 0 -7 -4 -6 -10 3 -6 9 -5 17 1 21 16 9 -11 59 -32 59
-15 0 -17 -5 -13 -30 4 -19 1 -38 -9 -54 -25 -37 -13 -119 16 -115 32 4 37 -1
26 -28 -9 -26 0 -42 24 -43 11 0 37 26 37 37 0 5 5 14 12 21 9 9 16 8 30 -5
10 -9 18 -12 18 -6 0 5 9 20 20 33 11 13 20 29 20 35 0 7 -9 15 -20 18 -15 4
-20 14 -20 36 0 36 8 38 43 11 15 -12 40 -20 61 -20 29 0 39 5 48 25 15 34 0
79 -29 83 -11 2 -23 12 -26 23 -4 16 2 24 31 36 l37 15 -26 22 c-15 11 -29 33
-33 49 -8 32 -35 36 -59 9z"/>
<path d="M8743 12093 c-15 -5 -18 -69 -4 -78 12 -7 41 33 41 56 0 18 -18 29
-37 22z"/>
<path d="M12125 12040 c-3 -5 -1 -10 4 -10 6 0 11 5 11 10 0 6 -2 10 -4 10 -3
0 -8 -4 -11 -10z"/>
<path d="M7303 11964 c-7 -18 11 -39 25 -30 12 7 4 46 -9 46 -6 0 -12 -7 -16
-16z"/>
<path d="M11150 11762 c0 -11 7 -23 16 -26 20 -8 21 -7 26 19 2 14 -3 21 -19
23 -17 3 -23 -2 -23 -16z"/>
<path d="M9110 11736 c0 -14 5 -26 10 -26 6 0 10 9 10 19 0 11 -4 23 -10 26
-6 4 -10 -5 -10 -19z"/>
<path d="M11688 11753 c-11 -3 -18 -14 -18 -30 0 -24 2 -25 38 -18 46 8 49 12
36 33 -12 18 -28 23 -56 15z"/>
<path d="M11480 11711 c-22 -17 -23 -21 -10 -38 36 -45 38 -46 65 -19 28 28
31 46 13 64 -17 17 -39 15 -68 -7z"/>
<path d="M11210 11703 c0 -10 9 -36 20 -58 11 -22 20 -44 20 -50 0 -5 14 -11
30 -11 17 -1 40 -10 50 -19 24 -21 50 -14 44 13 -3 10 -17 32 -31 48 -14 16
-31 41 -39 57 -8 15 -22 27 -32 27 -9 0 -27 3 -39 6 -18 5 -23 2 -23 -13z"/>
<path d="M9030 11530 c0 -5 5 -10 11 -10 5 0 8 -3 6 -7 -3 -5 -1 -19 4 -32 8
-20 12 -22 22 -11 9 10 9 13 0 17 -7 3 -13 16 -13 29 0 15 -6 24 -15 24 -8 0
-15 -4 -15 -10z"/>
<path d="M9082 11439 c2 -7 10 -15 17 -17 8 -3 12 1 9 9 -2 7 -10 15 -17 17
-8 3 -12 -1 -9 -9z"/>
<path d="M11102 11410 c-12 -12 -22 -29 -22 -39 0 -17 4 -18 35 -8 37 11 56
44 34 58 -20 12 -23 11 -47 -11z"/>
<path d="M11442 11388 c5 -15 28 -18 29 -3 0 6 -7 12 -17 13 -10 3 -15 -1 -12
-10z"/>
<path d="M9118 11370 c-15 -4 -29 -5 -32 -2 -9 8 -7 -11 2 -24 13 -20 72 -3
72 21 0 17 -3 17 -42 5z"/>
<path d="M8970 11315 c0 -9 9 -15 23 -15 14 0 24 6 24 15 0 9 -10 15 -24 15
-14 0 -23 -6 -23 -15z"/>
<path d="M9056 11312 c-2 -4 -1 -14 3 -21 6 -10 10 -9 14 3 6 16 -8 32 -17 18z"/>
<path d="M8173 11294 c-8 -22 16 -44 49 -44 25 0 29 4 26 22 -4 27 -66 45 -75
22z"/>
<path d="M7462 11214 c1 -9 9 -19 16 -22 9 -3 13 2 10 14 -1 9 -9 19 -16 22
-9 3 -13 -2 -10 -14z"/>
<path d="M8632 11111 c2 -11 12 -15 27 -13 22 3 23 1 18 -27 -6 -29 -5 -30 18
-19 29 13 32 30 9 52 -17 17 -17 17 -52 21 -16 2 -22 -2 -20 -14z"/>
<path d="M7690 11030 c0 -5 4 -10 9 -10 6 0 13 5 16 10 3 6 -1 10 -9 10 -9 0
-16 -4 -16 -10z"/>
<path d="M11441 10591 c-10 -6 -9 -10 3 -14 8 -3 18 -2 21 3 8 13 -9 20 -24
11z"/>
<path d="M10993 10493 c-18 -7 -16 -50 3 -57 30 -11 53 -6 64 15 20 36 -21 61
-67 42z"/>
<path d="M10778 10119 c-28 -16 -23 -63 8 -78 22 -10 31 -9 50 4 58 38 2 109
-58 74z"/>
<path d="M8427 10024 c-13 -13 -7 -24 14 -24 11 0 19 5 17 12 -5 14 -22 21
-31 12z"/>
<path d="M8756 9989 c-11 -56 23 -69 49 -19 21 41 19 50 -14 50 -24 0 -29 -5
-35 -31z"/>
<path d="M9355 9850 c3 -5 8 -10 11 -10 2 0 4 5 4 10 0 6 -5 10 -11 10 -5 0
-7 -4 -4 -10z"/>
<path d="M9420 9740 c-9 -17 -7 -22 15 -32 21 -9 29 -9 42 4 9 9 13 24 10 32
-9 23 -54 20 -67 -4z"/>
<path d="M9515 9717 c-11 -7 -32 -25 -47 -41 -21 -22 -24 -31 -15 -41 10 -11
14 -11 26 3 12 15 12 15 6 -6 -8 -28 11 -80 39 -105 20 -17 21 -17 27 0 8 19
9 19 14 -10 5 -26 11 -31 32 -22 12 5 14 9 6 12 -7 3 -13 13 -13 24 0 10 -7
19 -15 19 -25 0 -17 37 15 63 17 14 30 30 30 34 0 12 -66 83 -76 82 -5 0 -18
-6 -29 -12z"/>
<path d="M8975 9651 c-3 -5 -1 -12 5 -16 5 -3 10 1 10 9 0 18 -6 21 -15 7z"/>
<path d="M9009 9627 c6 -8 8 -17 4 -20 -3 -4 1 -7 10 -7 20 0 22 11 5 28 -16
16 -33 15 -19 -1z"/>
<path d="M10761 9613 c-13 -3 -26 -13 -28 -24 -3 -10 -12 -19 -20 -19 -11 0
-50 -20 -73 -38 -3 -2 3 -8 13 -13 9 -6 17 -21 17 -34 0 -19 10 -30 39 -45 25
-12 42 -16 46 -10 3 6 22 10 41 10 38 0 42 9 18 45 -9 14 -12 25 -6 25 5 0 12
13 14 29 3 18 0 28 -6 24 -5 -4 -7 1 -3 11 5 13 1 19 -13 23 -11 3 -17 9 -14
14 3 5 4 8 2 8 -2 -1 -14 -4 -27 -6z"/>
<path d="M9604 9585 c3 -9 2 -13 -3 -10 -5 3 -12 1 -15 -4 -5 -7 14 -21 29
-21 12 0 10 40 -2 44 -11 5 -13 2 -9 -9z"/>
<path d="M9650 9540 c0 -5 4 -10 9 -10 6 0 13 5 16 10 3 6 -1 10 -9 10 -9 0
-16 -4 -16 -10z"/>
<path d="M9210 9525 c0 -8 7 -15 16 -15 8 0 13 -4 10 -9 -7 -11 22 -23 35 -15
5 3 9 14 9 26 0 16 -5 19 -25 16 -14 -3 -25 -1 -25 3 0 5 -4 9 -10 9 -5 0 -10
-7 -10 -15z"/>
<path d="M9410 9485 c-10 -12 -10 -18 -1 -29 10 -12 8 -17 -9 -26 -12 -6 -28
-9 -36 -6 -7 3 -18 -3 -24 -14 -13 -24 -13 -40 0 -20 5 8 10 10 10 4 0 -7 11
-14 25 -16 13 -3 22 -1 19 3 -3 5 -1 9 4 9 5 0 12 9 15 21 3 11 15 23 26 26
25 6 38 42 20 54 -20 13 -35 11 -49 -6z"/>
<path d="M11120 9480 c0 -23 22 -35 45 -26 13 5 13 9 3 26 -17 26 -48 26 -48
0z"/>
<path d="M9412 9364 c2 -11 11 -20 22 -22 13 -3 17 1 14 14 -2 11 -11 20 -22
22 -13 3 -17 -1 -14 -14z"/>
<path d="M9737 9369 c-9 -6 -17 -17 -17 -25 0 -8 5 -12 10 -9 6 3 10 1 10 -5
0 -18 44 -7 48 12 4 22 -28 39 -51 27z"/>
<path d="M9688 9363 c-10 -2 -18 -11 -18 -18 0 -23 12 -45 21 -39 5 3 9 0 9
-7 0 -9 4 -8 15 1 12 10 12 15 0 34 -8 13 -12 26 -8 29 3 4 4 6 2 6 -2 -1 -12
-3 -21 -6z"/>
<path d="M9236 9335 c-16 -12 -17 -17 -6 -30 7 -8 21 -15 32 -15 15 0 19 6 16
27 -4 32 -16 37 -42 18z"/>
<path d="M9379 9321 c9 -6 10 -10 2 -14 -8 -4 -8 -5 1 -3 20 4 21 26 1 26 -14
0 -15 -2 -4 -9z"/>
<path d="M9912 9293 c9 -10 18 -25 21 -33 4 -12 6 -11 6 3 1 10 -5 25 -13 33
-21 20 -32 17 -14 -3z"/>
<path d="M10408 9288 c6 -8 9 -17 6 -20 -2 -3 2 -8 11 -12 13 -4 16 -1 13 16
-2 13 -11 24 -23 27 -16 3 -17 1 -7 -11z"/>
<path d="M9156 9255 c-15 -35 -12 -70 4 -60 5 3 11 1 15 -5 9 -14 61 -12 72 3
26 32 21 54 -17 76 -50 28 -57 27 -74 -14z"/>
<path d="M9966 9259 c-16 -16 -17 -20 -4 -33 21 -20 60 -24 81 -6 24 21 21 27
-15 35 -18 4 -35 11 -38 15 -3 4 -13 -1 -24 -11z"/>
<path d="M9797 9253 c-13 -12 -7 -23 11 -23 10 0 23 -5 29 -11 7 -7 12 -6 16
5 9 22 -39 47 -56 29z"/>
<path d="M9337 9227 c-29 -12 -31 -24 -5 -41 20 -12 48 8 48 35 0 21 -3 22
-43 6z"/>
<path d="M9766 9155 c4 -8 8 -15 10 -15 2 0 4 7 4 15 0 8 -4 15 -10 15 -5 0
-7 -7 -4 -15z"/>
<path d="M9990 9120 c0 -5 5 -10 10 -10 6 0 10 5 10 10 0 6 -4 10 -10 10 -5 0
-10 -4 -10 -10z"/>
<path d="M9326 9107 c3 -10 9 -15 12 -12 3 3 0 11 -7 18 -10 9 -11 8 -5 -6z"/>
<path d="M9222 8998 c-6 -6 -12 -25 -12 -40 0 -26 3 -28 40 -28 34 0 40 3 40
20 0 11 -8 24 -17 27 -10 4 -23 13 -28 20 -8 11 -13 11 -23 1z"/>
<path d="M9645 9000 c-3 -5 -1 -10 4 -10 6 0 11 5 11 10 0 6 -2 10 -4 10 -3 0
-8 -4 -11 -10z"/>
<path d="M5234 6888 c-3 -4 -20 -8 -38 -8 -42 0 -72 -32 -85 -92 -13 -54 -6
-78 20 -78 10 0 34 -9 54 -20 46 -26 51 -25 79 5 24 26 66 41 66 24 0 -5 6 -9
13 -9 14 0 57 77 57 101 0 8 7 25 16 37 28 40 15 47 -85 47 -51 0 -95 -3 -97
-7z"/>
<path d="M5583 6643 c-24 -9 -13 -23 18 -23 20 0 29 4 27 13 -5 13 -26 18 -45
10z"/>
<path d="M5640 6451 c0 -6 5 -13 10 -16 6 -3 10 1 10 9 0 9 -4 16 -10 16 -5 0
-10 -4 -10 -9z"/>
<path d="M6238 5769 c-30 -22 -35 -53 -14 -81 16 -22 36 -23 36 -4 0 8 4 17 9
20 14 9 41 -4 41 -20 0 -8 4 -14 9 -14 15 0 6 54 -14 87 -23 38 -30 39 -67 12z"/>
<path d="M5582 5750 c0 -19 2 -27 5 -17 2 9 2 25 0 35 -3 9 -5 1 -5 -18z"/>
<path d="M5600 5720 c0 -13 7 -20 20 -20 11 0 20 1 20 3 0 1 -9 10 -20 20 -19
16 -20 16 -20 -3z"/>
<path d="M2918 5393 c7 -3 16 -2 19 1 4 3 -2 6 -13 5 -11 0 -14 -3 -6 -6z"/>
<path d="M4403 5393 c-7 -2 -13 -16 -13 -29 0 -17 6 -24 19 -24 11 0 23 5 26
10 4 6 10 8 14 5 5 -2 6 7 3 20 -4 24 -21 30 -49 18z"/>
<path d="M4060 5318 c-38 -11 -60 -25 -60 -39 0 -16 81 -10 111 8 52 31 18 52
-51 31z"/>
<path d="M4767 5270 c-9 -11 -29 -20 -46 -20 -23 0 -32 -7 -46 -36 l-17 -37
40 -56 c37 -52 42 -56 75 -53 41 4 53 -9 36 -39 -13 -24 3 -42 29 -32 8 3 18
0 22 -7 11 -17 26 -5 46 35 22 47 12 91 -24 100 -16 4 -28 2 -30 -4 -2 -6 -8
-9 -13 -5 -5 3 -12 -2 -15 -10 -3 -9 -11 -16 -17 -16 -6 0 -7 3 -4 7 4 3 -1
11 -9 18 -15 10 -14 14 10 32 28 22 34 48 14 56 -8 4 -7 6 3 6 9 1 22 7 28 15
8 10 5 19 -14 40 -29 31 -45 33 -68 6z"/>
<path d="M3963 5164 c-3 -8 -1 -20 6 -27 8 -8 11 -4 11 16 0 30 -7 35 -17 11z"/>
<path d="M4888 5163 c7 -3 16 -2 19 1 4 3 -2 6 -13 5 -11 0 -14 -3 -6 -6z"/>
<path d="M4260 5036 c0 -32 13 -46 41 -46 12 0 11 37 -1 61 -18 32 -40 23 -40
-15z"/>
<path d="M3916 4738 c5 -7 0 -9 -14 -6 -12 3 -23 1 -25 -5 -2 -6 -29 -10 -60
-10 -31 0 -57 -4 -57 -8 0 -4 -49 -10 -109 -14 -88 -6 -108 -10 -104 -21 7
-19 163 -20 163 -1 1 7 6 5 14 -5 7 -10 19 -18 26 -18 10 0 10 3 0 15 -11 13
-5 15 41 14 40 0 49 -3 34 -9 -16 -7 -11 -9 20 -9 30 0 35 2 20 8 -13 5 4 8
45 6 36 -1 79 4 95 11 l30 12 -27 7 c-16 4 -28 11 -28 16 0 5 -9 9 -21 9 -11
0 -17 5 -14 10 3 6 -3 10 -15 10 -13 0 -19 -4 -14 -12z"/>
<path d="M7290 4695 c0 -8 5 -15 10 -15 6 0 10 7 10 15 0 8 -4 15 -10 15 -5 0
-10 -7 -10 -15z"/>
<path d="M7343 4683 c9 -2 23 -2 30 0 6 3 -1 5 -18 5 -16 0 -22 -2 -12 -5z"/>
<path d="M7805 4630 c3 -4 23 -10 45 -14 22 -3 40 -10 40 -14 0 -4 19 -6 41
-4 24 3 39 0 36 -5 -10 -16 7 -31 28 -22 18 7 18 8 -5 8 -19 1 -22 3 -11 10
12 8 8 11 -15 16 -16 4 -36 9 -44 12 -28 9 -119 20 -115 13z"/>
<path d="M7753 4623 c9 -2 23 -2 30 0 6 3 -1 5 -18 5 -16 0 -22 -2 -12 -5z"/>
<path d="M3357 4584 c6 -16 13 -17 33 -4 16 11 15 11 -17 15 -14 1 -20 -2 -16
-11z"/>
<path d="M3468 4583 c7 -3 16 -2 19 1 4 3 -2 6 -13 5 -11 0 -14 -3 -6 -6z"/>
<path d="M3540 4547 c0 -8 12 -14 30 -14 24 0 27 3 19 14 -6 7 -20 13 -30 13
-11 0 -19 -6 -19 -13z"/>
<path d="M4030 4545 c-8 -9 -8 -15 -2 -15 12 0 26 19 19 26 -2 2 -10 -2 -17
-11z"/>
<path d="M4060 4552 c0 -27 63 -39 78 -15 4 6 21 13 37 16 20 2 12 5 -22 6
-28 0 -55 -4 -58 -9 -5 -8 -11 -7 -21 1 -8 7 -14 7 -14 1z"/>
<path d="M8198 4533 c6 -2 18 -2 25 0 6 3 1 5 -13 5 -14 0 -19 -2 -12 -5z"/>
<path d="M3960 4520 c0 -5 12 -10 26 -10 14 0 23 4 19 10 -3 6 -15 10 -26 10
-10 0 -19 -4 -19 -10z"/>
<path d="M4020 4493 c0 -5 11 -8 24 -8 13 0 22 3 19 8 -2 4 -13 7 -24 7 -10 0
-19 -3 -19 -7z"/>
<path d="M8310 4469 c18 -16 32 -19 58 -14 21 4 32 3 28 -3 -9 -15 28 -21 41
-7 8 9 -6 16 -61 29 -90 21 -97 20 -66 -5z"/>
<path d="M3228 4453 c7 -3 16 -2 19 1 4 3 -2 6 -13 5 -11 0 -14 -3 -6 -6z"/>
<path d="M4383 4405 c0 -11 6 -13 21 -9 46 14 52 23 15 24 -25 0 -36 -4 -36
-15z"/>
<path d="M8445 4400 c3 -5 8 -10 11 -10 2 0 4 5 4 10 0 6 -5 10 -11 10 -5 0
-7 -4 -4 -10z"/>
<path d="M3997 4333 c-4 -3 -7 -11 -7 -17 0 -6 5 -5 12 2 6 6 9 14 7 17 -3 3
-9 2 -12 -2z"/>
<path d="M4538 4323 c-13 -3 -18 -15 -18 -44 0 -21 1 -39 3 -39 2 0 19 14 38
30 26 24 30 33 20 39 -11 7 -11 9 0 14 17 7 -18 7 -43 0z"/>
<path d="M6786 4281 c-6 -9 85 -43 93 -35 2 2 -1 4 -7 4 -7 0 -12 6 -12 14 0
20 -63 35 -74 17z"/>
<path d="M3893 4263 c9 -2 25 -2 35 0 9 3 1 5 -18 5 -19 0 -27 -2 -17 -5z"/>
<path d="M3795 4250 c3 -5 -1 -10 -9 -10 -9 0 -16 -4 -16 -10 0 -13 40 -13 60
0 13 9 13 10 0 10 -13 0 -13 1 0 10 12 8 9 10 -13 10 -16 0 -26 -4 -22 -10z"/>
<path d="M8576 4241 c-4 -5 -2 -12 3 -15 5 -4 12 -2 15 3 4 5 2 12 -3 15 -5 4
-12 2 -15 -3z"/>
<path d="M3855 4190 c-3 -5 -1 -10 4 -10 6 0 11 5 11 10 0 6 -2 10 -4 10 -3 0
-8 -4 -11 -10z"/>
<path d="M5010 4169 c0 -5 5 -7 10 -4 6 3 10 8 10 11 0 2 -4 4 -10 4 -5 0 -10
-5 -10 -11z"/>
<path d="M4967 3993 c-4 -5 -20 -8 -37 -5 -32 5 -40 -10 -17 -38 17 -21 87
-52 87 -39 0 6 7 17 15 26 21 20 15 49 -9 45 -11 -2 -22 2 -26 8 -4 7 -10 8
-13 3z"/>
<path d="M5171 3951 c-11 -7 -11 -9 0 -13 11 -4 11 -9 -2 -29 -21 -32 -14 -49
22 -49 27 0 29 3 29 40 0 42 -24 66 -49 51z"/>
<path d="M5145 3910 c3 -5 8 -10 11 -10 2 0 4 5 4 10 0 6 -5 10 -11 10 -5 0
-7 -4 -4 -10z"/>
<path d="M6765 3897 c-18 -18 -18 -19 -2 -14 10 4 28 7 40 8 15 0 17 2 7 6 -8
3 -17 9 -20 13 -3 4 -14 -2 -25 -13z"/>
<path d="M5246 3884 c-10 -27 -7 -31 29 -30 19 1 35 4 35 8 0 3 6 8 14 10 12
3 12 5 0 16 -12 11 -14 10 -14 -3 0 -8 -4 -15 -10 -15 -5 0 -10 7 -10 15 0 20
-36 19 -44 -1z"/>
<path d="M6678 3872 c-26 -5 -22 -21 8 -28 15 -4 30 -2 37 6 9 10 8 12 -5 7
-9 -3 -18 0 -20 6 -2 7 -11 11 -20 9z"/>
<path d="M5580 3798 c0 -4 9 -8 20 -8 11 0 20 4 20 8 0 4 -9 8 -20 8 -11 0
-20 -4 -20 -8z"/>
<path d="M5118 3793 c7 -3 16 -2 19 1 4 3 -2 6 -13 5 -11 0 -14 -3 -6 -6z"/>
<path d="M5485 3790 c-19 -8 -19 -9 3 -9 12 -1 22 4 22 9 0 6 -1 10 -2 9 -2 0
-12 -4 -23 -9z"/>
<path d="M5532 3783 c-13 -5 -7 -23 9 -23 6 0 8 4 4 9 -3 5 3 12 12 14 12 3
13 5 3 5 -8 0 -21 -2 -28 -5z"/>
<path d="M5570 3770 c-18 -12 -2 -12 25 0 13 6 15 9 5 9 -8 0 -22 -4 -30 -9z"/>
<path d="M5733 3745 c0 -9 4 -14 9 -13 5 2 10 8 10 13 0 5 -5 11 -10 13 -5 1
-9 -4 -9 -13z"/>
<path d="M5070 3680 c0 -5 7 -7 15 -4 8 4 15 8 15 10 0 2 -7 4 -15 4 -8 0 -15
-4 -15 -10z"/>
<path d="M5320 3653 c0 -5 28 -10 62 -11 34 -1 60 -1 57 2 -9 8 -119 17 -119
9z"/>
<path d="M5338 3593 c6 -2 18 -2 25 0 6 3 1 5 -13 5 -14 0 -19 -2 -12 -5z"/>
<path d="M1808 183 c6 -2 18 -2 25 0 6 3 1 5 -13 5 -14 0 -19 -2 -12 -5z"/>
<path d="M1487 132 c-9 -2 -15 -7 -12 -12 3 -5 1 -11 -5 -15 -5 -3 -10 -13
-10 -21 0 -20 35 -1 50 26 11 21 4 28 -23 22z"/>
</g>
</svg>
